<?xml version="1.0" encoding="utf-8"?>
<!-- Generator: Adobe Illustrator 16.0.0, SVG Export Plug-In . SVG Version: 6.00 Build 0)  -->
<!DOCTYPE svg PUBLIC "-//W3C//DTD SVG 1.1//EN" "http://www.w3.org/Graphics/SVG/1.1/DTD/svg11.dtd">
<svg version="1.1" id="Layer_1" xmlns="http://www.w3.org/2000/svg" xmlns:xlink="http://www.w3.org/1999/xlink" x="0px" y="0px"
	 width="126px" height="126px" viewBox="0 0 126 126" enable-background="new 0 0 126 126" xml:space="preserve">
<path d="M76.059,108.078H49.607c-2.233,0-3.36-0.336-3.656-1.09c-0.264-0.672,0.311-1.231,0.377-1.293l0.145-0.094
	c3.838-1.627,4.748-9.276,4.962-13.023H15.396c-1.413,0-2.563-1.15-2.563-2.563l-0.002-68.01c0-2.206,1.794-4,4-4h92.334
	c2.206,0,4,1.794,4,4l-0.01,68.01c0,1.437-1.104,2.563-2.514,2.563H74.231c0.214,3.747,1.124,11.396,4.962,13.023l0.145,0.094
	c0.066,0.063,0.641,0.621,0.376,1.293C79.418,107.742,78.291,108.078,76.059,108.078z M46.884,106.633
	c0.004,0,0.305,0.445,2.724,0.445h26.451c2.435,0,2.723-0.451,2.726-0.456c-0.002-0.022-0.039-0.088-0.083-0.145
	c-4.3-1.939-5.289-9.825-5.495-14.378l-0.024-0.521h37.461c0.849,0,1.514-0.688,1.514-1.563l0.01-68.01c0-1.654-1.346-3-3-3H16.832
	c-1.654,0-3,1.346-3,3l0.002,68.01c0,0.862,0.701,1.563,1.563,1.563h37.088L52.46,92.1c-0.206,4.553-1.195,12.439-5.495,14.379
	C46.921,106.533,46.884,106.602,46.884,106.633L46.884,106.633z M63,87.922c-1.609,0-2.918-1.309-2.918-2.917
	s1.309-2.917,2.918-2.917c1.607,0,2.916,1.309,2.916,2.917S64.607,87.922,63,87.922z M63,83.088c-1.058,0-1.918,0.86-1.918,1.917
	s0.86,1.917,1.918,1.917c1.057,0,1.916-0.86,1.916-1.917S64.057,83.088,63,83.088z M110.166,79.168H15.832V22.005
	c0-0.552,0.448-1,1-1h92.334c0.552,0,1,0.448,1,1V79.168z M16.832,78.168h92.334V22.005H16.832V78.168z"/>
</svg>
