<?xml version="1.0" encoding="utf-8"?>
<!-- Generator: Adobe Illustrator 16.0.0, SVG Export Plug-In . SVG Version: 6.00 Build 0)  -->
<!DOCTYPE svg PUBLIC "-//W3C//DTD SVG 1.1//EN" "http://www.w3.org/Graphics/SVG/1.1/DTD/svg11.dtd">
<svg version="1.1" id="Layer_1" xmlns="http://www.w3.org/2000/svg" xmlns:xlink="http://www.w3.org/1999/xlink" x="0px" y="0px"
	 width="126px" height="126px" viewBox="0 0 126 126" enable-background="new 0 0 126 126" xml:space="preserve">
<path d="M81.25,116.625h-36.5c-3.032,0-5.5-2.468-5.5-5.5V14.959c0-3.033,2.468-5.5,5.5-5.5h36.5c3.032,0,5.5,2.467,5.5,5.5v96.166
	C86.75,114.157,84.282,116.625,81.25,116.625z M44.75,10.459c-2.481,0-4.5,2.018-4.5,4.5v96.166c0,2.48,2.019,4.5,4.5,4.5h36.5
	c2.481,0,4.5-2.02,4.5-4.5V14.959c0-2.482-2.019-4.5-4.5-4.5H44.75z M80.533,113.125H45.299c-1.355,0-2.932-1.063-2.932-2.434
	l-0.579-3.883h41.758l-0.584,3.955C82.967,112.033,81.875,113.125,80.533,113.125z M42.946,107.809l0.415,2.809
	c0.006,0.813,1.094,1.508,1.938,1.508h35.234c0.79,0,1.434-0.644,1.434-1.434l0.422-2.883H42.946z M47.084,88.625
	c-1.563,0-2.833-1.271-2.833-2.834s1.271-2.834,2.833-2.834s2.833,1.271,2.833,2.834S48.646,88.625,47.084,88.625z M47.084,83.957
	c-1.011,0-1.833,0.823-1.833,1.834c0,1.012,0.822,1.834,1.833,1.834s1.833-0.822,1.833-1.834
	C48.917,84.78,48.095,83.957,47.084,83.957z M47.084,81.459c-1.838,0-3.333-1.496-3.333-3.334s1.495-3.334,3.333-3.334
	s3.333,1.496,3.333,3.334S48.922,81.459,47.084,81.459z M47.084,75.791c-1.286,0-2.333,1.047-2.333,2.334s1.047,2.334,2.333,2.334
	s2.333-1.047,2.333-2.334S48.37,75.791,47.084,75.791z M82.18,40.207H42.979v-5.605H82.18V40.207z M43.979,39.207H81.18v-3.605
	H43.979V39.207z M82.18,28.98H42.979v-5.605H82.18V28.98z M43.979,27.98H81.18v-3.605H43.979V27.98z M83.546,19.316H41.788
	l0.584-3.957C42.367,14.092,43.458,13,44.799,13h35.234c1.356,0,2.934,1.063,2.934,2.434L83.546,19.316z M42.945,18.316h39.442
	l-0.415-2.811C81.967,14.695,80.878,14,80.033,14H44.799c-0.789,0-1.432,0.643-1.432,1.434L42.945,18.316z"/>
</svg>
