<?xml version="1.0" encoding="utf-8"?>
<!-- Generator: Adobe Illustrator 16.0.0, SVG Export Plug-In . SVG Version: 6.00 Build 0)  -->
<!DOCTYPE svg PUBLIC "-//W3C//DTD SVG 1.1//EN" "http://www.w3.org/Graphics/SVG/1.1/DTD/svg11.dtd">
<svg version="1.1" id="Layer_1" xmlns="http://www.w3.org/2000/svg" xmlns:xlink="http://www.w3.org/1999/xlink" x="0px" y="0px"
	 width="126px" height="126px" viewBox="0 0 126 126" enable-background="new 0 0 126 126" xml:space="preserve">
<path d="M76.039,117.334H49.961c-1.285,0-2.33-1.045-2.33-2.33c0.023-0.26,2.104-21.258,2.104-37.361
	c0-16.117-2.082-66.122-2.103-66.626c0-1.306,1.045-2.351,2.33-2.351h26.078c1.285,0,2.33,1.045,2.33,2.33
	c-0.021,0.524-2.104,50.529-2.104,66.646c0,16.105,2.08,37.102,2.101,37.312C78.369,116.289,77.324,117.334,76.039,117.334z
	 M49.961,9.666c-0.733,0-1.33,0.597-1.33,1.33c0.021,0.482,2.104,50.508,2.104,66.646c0,16.154-2.085,37.2-2.106,37.411
	c0.002,0.684,0.599,1.28,1.333,1.28h26.078c0.733,0,1.33-0.597,1.33-1.33c-0.019-0.161-2.104-21.207-2.104-37.361
	c0-16.139,2.083-66.164,2.104-66.667c0-0.713-0.597-1.31-1.331-1.31H49.961z M63,78.9c-3.387,0-6.143-2.755-6.143-6.141
	c0-3.387,2.755-6.143,6.143-6.143c3.387,0,6.142,2.756,6.142,6.143C69.142,76.146,66.387,78.9,63,78.9z M63,67.617
	c-2.835,0-5.143,2.307-5.143,5.143c0,2.835,2.307,5.141,5.143,5.141c2.835,0,5.142-2.306,5.142-5.141
	C68.142,69.924,65.835,67.617,63,67.617z M63,75.25c-1.31,0-2.375-1.065-2.375-2.375S61.69,70.5,63,70.5s2.375,1.065,2.375,2.375
	S64.31,75.25,63,75.25z M63,71.5c-0.758,0-1.375,0.617-1.375,1.375S62.242,74.25,63,74.25s1.375-0.617,1.375-1.375
	S63.758,71.5,63,71.5z M68.594,27.924c-0.917,0-1.813-0.239-2.661-0.712l-0.276-0.153l-0.013,0.029l-0.141-0.115l-0.446-0.248
	l0.091-0.04l-0.019-0.016c-1.303-1.059-2.05-2.612-2.05-4.261c0-1.645,0.747-3.197,2.049-4.261l0.014-0.011l-0.092-0.04l0.593-0.369
	l0.014,0.032l0.276-0.153c2.188-1.219,4.839-0.791,6.532,0.882l0.457,0.451l-0.55,0.332c-0.709,0.428-1.456,0.976-2.159,1.583
	l-0.328,0.283l-0.327-0.283c-0.902-0.782-1.805-1.427-2.612-1.861c-0.361-0.208-0.685-0.367-0.971-0.492h0
	c0.146,0.327,0.31,0.648,0.487,0.956c0.44,0.814,1.101,1.742,1.867,2.623l0.285,0.328l-0.284,0.327
	c-0.781,0.901-1.424,1.805-1.861,2.613c-0.182,0.313-0.347,0.636-0.496,0.97c0.286-0.127,0.61-0.285,0.959-0.487
	c0.82-0.441,1.723-1.085,2.625-1.868l0.328-0.285l0.328,0.284c0.701,0.607,1.427,1.142,2.16,1.588l0.548,0.333l-0.457,0.45
	C71.424,27.358,70.049,27.924,68.594,27.924z M67.358,26.739c1.355,0.412,2.815,0.119,3.92-0.703
	c-0.47-0.315-0.936-0.663-1.392-1.04c-0.849,0.707-1.695,1.293-2.466,1.708C67.4,26.716,67.379,26.728,67.358,26.739z
	 M65.282,19.372c-0.771,0.833-1.203,1.909-1.203,3.036c0,1.13,0.432,2.207,1.202,3.037c0.101-0.201,0.207-0.396,0.316-0.585
	c0.41-0.761,0.995-1.605,1.699-2.452c-0.701-0.842-1.287-1.687-1.707-2.464C65.483,19.761,65.38,19.568,65.282,19.372z
	 M67.362,18.079c0.023,0.013,0.047,0.026,0.071,0.04c0.761,0.41,1.605,0.997,2.454,1.702c0.46-0.38,0.925-0.728,1.391-1.038
	C70.174,17.963,68.712,17.673,67.362,18.079z M73.341,25.363l-0.523-0.806c-0.386-0.596-0.852-1.209-1.382-1.822l-0.282-0.327
	l0.282-0.327c0.527-0.609,0.991-1.223,1.381-1.822l0.523-0.805l0.36,0.89c0.271,0.669,0.408,1.363,0.408,2.064
	c0,0.702-0.137,1.396-0.407,2.064L73.341,25.363z M72.469,22.408c0.203,0.244,0.395,0.488,0.577,0.731
	c0.041-0.242,0.062-0.486,0.062-0.731s-0.021-0.489-0.062-0.731C72.864,21.92,72.671,22.164,72.469,22.408z"/>
</svg>
