<?xml version="1.0" encoding="utf-8"?>
<!-- Generator: Adobe Illustrator 16.0.0, SVG Export Plug-In . SVG Version: 6.00 Build 0)  -->
<!DOCTYPE svg PUBLIC "-//W3C//DTD SVG 1.1//EN" "http://www.w3.org/Graphics/SVG/1.1/DTD/svg11.dtd">
<svg version="1.1" id="Layer_1" xmlns="http://www.w3.org/2000/svg" xmlns:xlink="http://www.w3.org/1999/xlink" x="0px" y="0px"
	 width="126px" height="126px" viewBox="0 0 126 126" enable-background="new 0 0 126 126" xml:space="preserve">
<path d="M97.167,111.703H25.833v-2.932h-3.208V14.297h73.332v56.152c2.221,1.656,4.548,2.496,6.918,2.496h0.5v35.826h-6.208V111.703
	z M26.833,110.703h69.333v-2.932h6.208V73.934c-2.491-0.112-4.918-1.066-7.224-2.84l-0.195-0.15V15.297H23.625v92.475h3.208V110.703
	z M56.019,19.443c0.475-0.002,0.949-0.002,1.423,0c0.143,0,0.286,0,0.427,0.016c0.397,0.045,0.77,0.313,0.764,0.846
	c-0.016,1.545-0.006,3.092-0.005,4.637c0,0.166,0.001,0.334,0.019,0.498c0.057,0.512,0.27,0.932,0.736,1.188
	c0.326,0.18,0.682,0.213,1.047,0.186c0.77-0.059,1.348-0.68,1.348-1.449c0-2.342,0-4.682,0-7.023c0-0.047,0-0.094,0-0.158
	c-0.166,0-0.312,0.01-0.456-0.002c-0.118-0.008-0.145,0.037-0.145,0.148c0.004,1.254,0.003,2.506,0.003,3.76
	c0,0.879,0.001,1.756-0.001,2.635c-0.001,0.434-0.209,0.713-0.625,0.799c-0.179,0.037-0.372,0.045-0.553,0.021
	c-0.509-0.068-0.738-0.348-0.738-0.859c0-1.672-0.012-3.344,0.004-5.018c0.009-0.836-0.621-1.418-1.377-1.461
	c-0.626-0.037-1.257-0.018-1.885-0.023c-0.079-0.002-0.111,0.025-0.109,0.109c0.004,0.346,0.005,0.689-0.001,1.033
	C55.893,19.422,55.931,19.445,56.019,19.443z M56.162,29.781c0.302,0.457,0.751,0.643,1.276,0.646
	c0.902,0.01,1.803,0.002,2.705,0.004c0.113,0.002,0.229,0.01,0.342,0.023c0.34,0.047,0.59,0.258,0.66,0.563
	c0.023,0.1,0.03,0.203,0.03,0.307c0.002,1.07,0.001,2.143,0.001,3.213c0,0.029-0.01,0.063,0.003,0.082
	c0.019,0.033,0.05,0.082,0.079,0.084c0.166,0.008,0.332,0.004,0.516,0.004c0-0.043,0-0.07,0-0.096c0-1.35,0.01-2.697-0.007-4.045
	c-0.005-0.449-0.203-0.834-0.577-1.105c-0.282-0.207-0.604-0.287-0.948-0.287c-0.929-0.002-1.858,0.004-2.788-0.004
	c-0.544-0.004-0.944-0.268-0.932-0.922c0.021-1.119,0.005-2.238,0.005-3.357c0-0.027-0.002-0.055,0.001-0.082
	c0.006-0.076-0.024-0.107-0.103-0.105c-0.138,0.004-0.276,0.004-0.415-0.002c-0.095-0.004-0.119,0.035-0.119,0.125
	c0.002,1.326,0,2.65,0.002,3.975C55.896,29.15,55.966,29.486,56.162,29.781z M61.871,35.846c0-0.115,0-0.232,0-0.346
	c-0.24,0-0.434,0-0.646,0c0,0.148,0,0.268,0,0.387c0,1.521-0.001,3.041,0.001,4.563c0,0.229-0.023,0.453-0.236,0.584
	c-0.393,0.238-0.819,0.271-1.247,0.123c-0.407-0.143-0.488-0.285-0.489-0.723c0-1.541-0.001-3.08-0.003-4.621
	c0-0.105,0-0.213,0-0.326c-0.234,0-0.423,0-0.654,0c0,0.145,0,0.254,0,0.363c0,1.539-0.003,3.08,0.003,4.619
	c0,0.24-0.051,0.447-0.265,0.568c-0.396,0.225-0.831,0.244-1.26,0.164c-0.496-0.092-0.647-0.309-0.649-0.82c0-1.52,0-3.041,0-4.561
	c0-0.107,0-0.215,0-0.32c-0.235,0-0.429,0-0.642,0c0,0.125,0,0.225,0,0.324c0,1.643,0,3.283,0.001,4.924
	c0,0.121,0.001,0.242,0.02,0.361c0.06,0.393,0.261,0.689,0.629,0.852c0.869,0.383,1.705,0.297,2.521-0.17
	c0.358,0.281,0.699,0.402,1.246,0.398c1.1-0.006,1.721-0.445,1.681-1.633L61.871,35.846z"/>
</svg>
