<?xml version="1.0" encoding="utf-8"?>
<!-- Generator: Adobe Illustrator 16.0.0, SVG Export Plug-In . SVG Version: 6.00 Build 0)  -->
<!DOCTYPE svg PUBLIC "-//W3C//DTD SVG 1.1//EN" "http://www.w3.org/Graphics/SVG/1.1/DTD/svg11.dtd">
<svg version="1.1" id="Layer_1" xmlns="http://www.w3.org/2000/svg" xmlns:xlink="http://www.w3.org/1999/xlink" x="0px" y="0px"
	 width="126px" height="126px" viewBox="0 0 126 126" enable-background="new 0 0 126 126" xml:space="preserve">
<path d="M104.771,88.12H21.229c-3.716,0-6.739-3.023-6.739-6.74V44.619c0-3.716,3.023-6.739,6.739-6.739h83.541
	c3.716,0,6.739,3.023,6.739,6.739V81.38C111.51,85.097,108.486,88.12,104.771,88.12z M21.229,38.88
	c-3.165,0-5.739,2.574-5.739,5.739V81.38c0,3.165,2.574,5.74,5.739,5.74h83.541c3.165,0,5.739-2.575,5.739-5.74V44.619
	c0-3.165-2.574-5.739-5.739-5.739H21.229z M62.998,85.96c-1.194,0-2.166-0.973-2.166-2.169s0.972-2.17,2.166-2.17
	c1.196,0,2.17,0.974,2.17,2.17S64.194,85.96,62.998,85.96z M62.998,82.621c-0.643,0-1.166,0.524-1.166,1.17
	c0,0.645,0.523,1.169,1.166,1.169c0.646,0,1.17-0.524,1.17-1.169C64.168,83.146,63.644,82.621,62.998,82.621z M86.109,80.062H38.447
	V45.938h47.662V80.062z M39.447,79.062h45.662V46.938H39.447V79.062z M96.15,71.677c-0.168,0-0.337-0.013-0.508-0.039
	c-1.77-0.29-2.983-1.96-2.709-3.724c0.278-1.755,1.9-2.979,3.722-2.703c1.769,0.283,2.981,1.949,2.706,3.716
	C99.106,70.521,97.756,71.677,96.15,71.677z M96.148,66.172c-1.116,0-2.053,0.798-2.227,1.897c-0.19,1.222,0.652,2.38,1.879,2.581
	c1.204,0.184,2.377-0.658,2.572-1.88c0.19-1.222-0.649-2.376-1.874-2.571C96.383,66.181,96.265,66.172,96.148,66.172z
	 M30.833,71.138h-5.312V67.29l2.566-2.854l2.745,2.843V71.138z M26.521,70.138h3.312v-2.454l-1.72-1.78l-1.592,1.77V70.138z
	 M101.996,67.232c-0.166,0-0.335-0.013-0.505-0.039c-1.767-0.288-2.979-1.957-2.707-3.721c0.269-1.732,1.925-2.991,3.72-2.709
	c1.767,0.285,2.98,1.952,2.707,3.716C104.952,66.076,103.601,67.232,101.996,67.232z M101.996,61.724
	c-1.1,0-2.056,0.818-2.224,1.902c-0.188,1.223,0.653,2.38,1.876,2.58c1.223,0.185,2.377-0.662,2.575-1.884
	c0.188-1.219-0.653-2.373-1.878-2.571C102.229,61.733,102.112,61.724,101.996,61.724z M35.449,66.441h-3.848l-2.852-2.563
	l2.841-2.747h3.858V66.441z M31.984,65.441h2.465v-3.31h-2.454l-1.778,1.72L31.984,65.441z M24.597,66.441h-3.849v-5.31h3.859
	l2.841,2.747L24.597,66.441z M21.748,65.441h2.466l1.768-1.59l-1.778-1.72h-2.455V65.441z M93.014,64.823
	c-0.166,0-0.333-0.012-0.502-0.038c-1.769-0.292-2.981-1.961-2.708-3.721c0.27-1.731,1.935-2.986,3.721-2.707
	c1.771,0.285,2.984,1.952,2.706,3.718C95.973,63.668,94.62,64.823,93.014,64.823z M93.019,59.318c-1.101,0-2.058,0.816-2.227,1.899
	c-0.189,1.221,0.652,2.378,1.877,2.58c1.201,0.177,2.377-0.661,2.574-1.881c0.191-1.22-0.649-2.375-1.875-2.572
	C93.252,59.327,93.135,59.318,93.019,59.318z M28.088,63.136l-2.566-2.849v-3.851h5.312v3.86L28.088,63.136z M26.521,59.902
	l1.592,1.769l1.72-1.778v-2.456h-3.312V59.902z M98.691,60.695c-0.169,0-0.34-0.013-0.512-0.04
	c-1.768-0.279-2.979-1.949-2.702-3.722c0.276-1.757,1.913-2.988,3.717-2.696c0.855,0.134,1.607,0.595,2.116,1.295
	c0.511,0.701,0.716,1.562,0.58,2.42C101.649,59.516,100.274,60.695,98.691,60.695z M98.673,55.195c-1.107,0-2.035,0.796-2.207,1.893
	c-0.192,1.229,0.646,2.387,1.87,2.579c1.231,0.205,2.382-0.671,2.566-1.869c0.095-0.598-0.048-1.192-0.4-1.678
	c-0.353-0.484-0.872-0.803-1.465-0.896C98.914,55.204,98.792,55.195,98.673,55.195z M21.946,52.203
	c-1.648,0-2.989-1.341-2.989-2.989c0-1.649,1.341-2.991,2.989-2.991c1.649,0,2.991,1.342,2.991,2.991
	C24.938,50.862,23.596,52.203,21.946,52.203z M21.946,47.223c-1.097,0-1.989,0.894-1.989,1.991c0,1.097,0.893,1.989,1.989,1.989
	c1.098,0,1.991-0.893,1.991-1.989C23.938,48.116,23.044,47.223,21.946,47.223z M100.112,49.714c-2.188,0-3.967-1.779-3.967-3.967
	s1.779-3.968,3.967-3.968s3.968,1.78,3.968,3.968S102.3,49.714,100.112,49.714z M100.112,42.779c-1.636,0-2.967,1.331-2.967,2.968
	c0,1.636,1.331,2.967,2.967,2.967c1.637,0,2.968-1.331,2.968-2.967C103.08,44.11,101.749,42.779,100.112,42.779z M77.817,43.995
	H48.183c-0.801,0-1.452-0.652-1.452-1.455c0-0.801,0.651-1.453,1.452-1.453h29.635c0.802,0,1.454,0.652,1.454,1.453
	C79.271,43.343,78.619,43.995,77.817,43.995z M48.183,42.087c-0.249,0-0.452,0.203-0.452,0.453c0,0.251,0.203,0.455,0.452,0.455
	h29.635c0.25,0,0.454-0.204,0.454-0.455c0-0.25-0.204-0.453-0.454-0.453H48.183z"/>
</svg>
