<?xml version="1.0" encoding="utf-8"?>
<!-- Generator: Adobe Illustrator 16.0.0, SVG Export Plug-In . SVG Version: 6.00 Build 0)  -->
<!DOCTYPE svg PUBLIC "-//W3C//DTD SVG 1.1//EN" "http://www.w3.org/Graphics/SVG/1.1/DTD/svg11.dtd">
<svg version="1.1" id="Layer_1" xmlns="http://www.w3.org/2000/svg" xmlns:xlink="http://www.w3.org/1999/xlink" x="0px" y="0px"
	 width="126px" height="126px" viewBox="0 0 126 126" enable-background="new 0 0 126 126" xml:space="preserve">
<path fill-rule="evenodd" clip-rule="evenodd" d="M35.72,44.809h6.845v70.884l-13.921-0.021l7.076-6.288V44.809z M35.72,42.354
	l6.845,0.009V11.158H35.72V42.354z M97.356,115.67l-52.701,0.023V44.809l6.162,0.5l41.269,8.49v56.237L97.356,115.67z M48,99.444
	c0,0.041,0.018,0.056,0.062,0.067c0.235,0.064,0.47,0.131,0.705,0.196c0.07,0.019,0.141,0.039,0.211,0.064
	c0.197,0.073,0.381,0.236,0.378,0.458c-0.007,0.643-0.003,1.289-0.002,1.934c0,0.069,0,0.14,0.009,0.21
	c0.028,0.222,0.133,0.426,0.365,0.597c0.162,0.12,0.337,0.184,0.518,0.222c0.381,0.083,0.667-0.097,0.667-0.418
	c0-0.977,0-1.954,0-2.93c0-0.02,0-0.039,0-0.066c-0.082-0.022-0.154-0.039-0.226-0.063c-0.059-0.02-0.072-0.005-0.072,0.042
	c0.002,0.523,0.001,1.046,0.001,1.569c0,0.366,0,0.732,0,1.098c0,0.182-0.104,0.27-0.31,0.248c-0.088-0.009-0.184-0.033-0.273-0.067
	c-0.252-0.099-0.366-0.247-0.366-0.46c0-0.697-0.005-1.397,0.002-2.092c0.004-0.348-0.308-0.678-0.682-0.801
	c-0.31-0.102-0.622-0.18-0.933-0.27c-0.04-0.011-0.056-0.004-0.055,0.031C48.003,99.158,48.003,99.302,48,99.444z M48.002,103.397
	c0.001,0.146,0.035,0.296,0.132,0.446c0.15,0.231,0.372,0.371,0.632,0.445c0.447,0.128,0.893,0.249,1.339,0.374
	c0.056,0.017,0.113,0.036,0.169,0.058c0.168,0.066,0.292,0.188,0.327,0.325c0.012,0.045,0.015,0.089,0.015,0.132
	c0.001,0.447,0.001,0.895,0.001,1.342c0,0.011-0.005,0.023,0.001,0.034c0.01,0.016,0.025,0.041,0.04,0.045
	c0.082,0.026,0.164,0.048,0.255,0.073c0-0.019,0-0.029,0-0.041c0-0.563,0.005-1.123-0.003-1.688
	c-0.002-0.188-0.101-0.375-0.286-0.541c-0.139-0.124-0.299-0.203-0.469-0.25c-0.46-0.129-0.92-0.254-1.38-0.386
	c-0.27-0.076-0.467-0.241-0.461-0.513c0.01-0.464,0.003-0.933,0.003-1.399c0-0.013-0.001-0.023,0-0.035
	c0.002-0.03-0.012-0.048-0.051-0.059c-0.068-0.017-0.137-0.035-0.206-0.056c-0.047-0.016-0.059-0.003-0.059,0.034
	C48.002,102.293,48,102.845,48.002,103.397z M50.914,108.86c0.009-0.098-0.037-0.193-0.097-0.29
	c-0.179-0.294-0.358-0.588-0.537-0.881c-0.532-0.874-1.065-1.749-1.598-2.623c-0.028-0.045-0.061-0.091-0.099-0.131
	c-0.107-0.11-0.222-0.11-0.253,0c-0.012,0.043-0.014,0.09-0.014,0.138c-0.001,0.891-0.001,1.781,0,2.672
	c0,0.04-0.014,0.051-0.063,0.035c-0.08-0.025-0.16-0.046-0.246-0.069c0,0.177,0,0.35,0,0.527c0.082,0.022,0.16,0.047,0.238,0.065
	c0.054,0.013,0.071,0.032,0.07,0.079c-0.003,0.138-0.002,0.278,0,0.42c0,0.016,0.016,0.048,0.025,0.051
	c0.093,0.029,0.187,0.054,0.284,0.08c0.001-0.023,0.003-0.041,0.003-0.059c0-0.133,0.003-0.266-0.001-0.4
	c0-0.05,0.013-0.063,0.075-0.045c0.63,0.178,1.261,0.354,1.891,0.527c0.062,0.017,0.126,0.027,0.185,0.028
	C50.872,108.988,50.907,108.941,50.914,108.86z M48.691,105.594c-0.011-0.018-0.025-0.033-0.038-0.051c-0.007,0-0.013,0-0.019,0.001
	c0,0.78,0,1.56,0,2.341c0.017,0.006,0.029,0.011,0.04,0.014c0.542,0.151,1.085,0.302,1.627,0.453
	c0.067,0.019,0.076,0.007,0.039-0.055C49.791,107.396,49.241,106.494,48.691,105.594z M92.086,51.812V24.606L51.742,11.158h-7.087
	v31.206l6.394,0.557L92.086,51.812z"/>
</svg>
