<?xml version="1.0" encoding="utf-8"?>
<!-- Generator: Adobe Illustrator 16.0.0, SVG Export Plug-In . SVG Version: 6.00 Build 0)  -->
<!DOCTYPE svg PUBLIC "-//W3C//DTD SVG 1.1//EN" "http://www.w3.org/Graphics/SVG/1.1/DTD/svg11.dtd">
<svg version="1.1" id="Layer_1" xmlns="http://www.w3.org/2000/svg" xmlns:xlink="http://www.w3.org/1999/xlink" x="0px" y="0px"
	 width="126px" height="126px" viewBox="0 0 126 126" enable-background="new 0 0 126 126" xml:space="preserve">
<path d="M52.617,52.765c0.769,0,1.487-0.209,2.108-0.569c0.507,1.144,0.793,2.405,0.793,3.735c0,0.953-0.145,1.871-0.411,2.734
	c-0.699-0.512-1.559-0.818-2.49-0.818c-2.333,0-4.223,1.891-4.223,4.223c0,0.977,0.335,1.873,0.892,2.589
	c-0.943,0.325-1.95,0.51-3.004,0.51c-1.053,0-2.061-0.185-3.003-0.51c0.557-0.716,0.892-1.612,0.892-2.589
	c0-2.332-1.89-4.223-4.223-4.223c-0.933,0-1.791,0.307-2.49,0.818c-0.268-0.863-0.412-1.781-0.412-2.734
	c0-1.33,0.287-2.592,0.794-3.735c0.62,0.359,1.34,0.569,2.108,0.569c2.333,0,4.223-1.891,4.223-4.223
	c0-0.537-0.104-1.049-0.286-1.521c0.766-0.206,1.566-0.326,2.397-0.326s1.633,0.12,2.398,0.326
	c-0.183,0.473-0.286,0.984-0.286,1.521C48.395,50.874,50.284,52.765,52.617,52.765z M33.266,43.723l1.483-1.801h-2.968
	L33.266,43.723z M37.931,35.884v2.968l1.8-1.483L37.931,35.884z M71.813,57.981v-2.648l-1.606,1.324L71.813,57.981z M31.781,32.813
	h2.968l-1.483-1.8L31.781,32.813z M74.453,52.593h2.649l-1.325-1.606L74.453,52.593z M79.941,57.981l1.606-1.324l-1.606-1.324
	V57.981z M28.821,38.852v-2.968l-1.8,1.484L28.821,38.852z M104.905,106.862c-16.075,0-14.146-34.753-38.248-34.753
	c-29.797,0-22.677,35.077-44.438,35.077c-25.862,0-18.032-87.521,16.506-87.521c0,0,9.754,4.786,22.93,6.455l7.798-0.011
	c12.664-1.695,20.635-6.305,20.635-6.305C118.683,19.805,130.684,106.862,104.905,106.862z M70.552,35.884
	c0,1.639,1.328,2.968,2.968,2.968c1.639,0,2.968-1.329,2.968-2.968c0-1.64-1.329-2.968-2.968-2.968
	C71.88,32.916,70.552,34.244,70.552,35.884z M61.77,30.729c0.544,0.354,1.111,0.783,1.666,1.262c0.555-0.479,1.12-0.908,1.666-1.264
	c-0.515-0.207-1.075-0.328-1.666-0.327C62.846,30.399,62.286,30.52,61.77,30.729z M33.266,44.954c4.19,0,7.587-3.396,7.587-7.587
	s-3.396-7.587-7.587-7.587s-7.588,3.396-7.588,7.587S29.075,44.954,33.266,44.954z M56.399,55.931
	c0-5.587-4.53-10.116-10.117-10.116c-5.588,0-10.117,4.529-10.117,10.116c0,5.588,4.529,10.117,10.117,10.117
	C51.869,66.048,56.399,61.519,56.399,55.931z M57.098,35.884c0-1.64-1.328-2.968-2.968-2.968c-1.639,0-2.968,1.328-2.968,2.968
	c0,1.639,1.329,2.968,2.968,2.968C55.77,38.852,57.098,37.522,57.098,35.884z M59.56,36.996c0.116-0.266,0.266-0.567,0.453-0.894
	c0.405-0.752,1.006-1.589,1.708-2.399c-0.574-0.665-1.064-1.34-1.45-1.978c-0.794,0.803-1.284,1.907-1.284,3.125
	C58.986,35.634,59.204,36.357,59.56,36.996z M66.874,37.646c-0.297-0.126-0.655-0.296-1.039-0.519
	c-0.75-0.405-1.59-1.006-2.399-1.707c-0.808,0.702-1.649,1.302-2.398,1.707c-0.387,0.223-0.743,0.393-1.04,0.519
	c0.818,1.003,2.046,1.657,3.438,1.656C64.83,39.302,66.059,38.648,66.874,37.646z M67.889,34.851c0-1.219-0.493-2.321-1.285-3.125
	c-0.389,0.638-0.877,1.313-1.453,1.978c0.704,0.81,1.303,1.646,1.708,2.399c0.189,0.326,0.336,0.628,0.454,0.894
	C67.668,36.357,67.889,35.633,67.889,34.851z M82.549,56.657c0-3.74-3.031-6.771-6.771-6.771c-3.739,0-6.771,3.031-6.771,6.771
	c0,3.739,3.031,6.771,6.771,6.771C79.518,63.428,82.549,60.396,82.549,56.657z M90.501,43.608c0-1.788-1.45-3.237-3.237-3.237
	c-1.788,0-3.237,1.449-3.237,3.237c0,1.787,1.449,3.237,3.237,3.237C89.051,46.846,90.501,45.396,90.501,43.608z M90.501,35.562
	c0,1.788,1.449,3.237,3.236,3.237c1.788,0,3.237-1.449,3.237-3.237c0-1.787-1.449-3.236-3.237-3.236
	C91.95,32.325,90.501,33.774,90.501,35.562z M97.711,50.083c0-1.788-1.449-3.237-3.237-3.237s-3.237,1.449-3.237,3.237
	c0,1.787,1.449,3.236,3.237,3.236S97.711,51.87,97.711,50.083z M104.185,42.036c0-1.788-1.449-3.237-3.236-3.237
	c-1.788,0-3.237,1.449-3.237,3.237c0,1.787,1.449,3.237,3.237,3.237C102.735,45.273,104.185,43.823,104.185,42.036z M75.777,62.328
	l1.325-1.606h-2.649L75.777,62.328z"/>
</svg>
