<?xml version="1.0" encoding="utf-8"?>
<!-- Generator: Adobe Illustrator 16.0.0, SVG Export Plug-In . SVG Version: 6.00 Build 0)  -->
<!DOCTYPE svg PUBLIC "-//W3C//DTD SVG 1.1//EN" "http://www.w3.org/Graphics/SVG/1.1/DTD/svg11.dtd">
<svg version="1.1" id="Layer_1" xmlns="http://www.w3.org/2000/svg" xmlns:xlink="http://www.w3.org/1999/xlink" x="0px" y="0px"
	 width="126px" height="126px" viewBox="0 0 126 126" enable-background="new 0 0 126 126" xml:space="preserve">
<path d="M104.881,74.24c0-1.706-1.615-3.089-3.66-3.224c1.928-0.438,3.371-2.153,3.371-4.212V19.773
	c0-2.389-1.936-4.326-4.324-4.326H24.314c-2.389,0-4.324,1.938-4.324,4.326v47.031c0,2.04,1.418,3.741,3.32,4.197
	c-2.137,0.057-3.85,1.48-3.85,3.238l-5.314,33.909c0,1.8,1.784,3.255,3.984,3.255h89.738c2.2,0,3.984-1.455,3.984-3.255
	L104.881,74.24z M101.016,79.958c1.154,0.122,1.879,0.834,1.623,1.589c-0.263,0.761-1.405,1.28-2.561,1.161
	c-1.16-0.12-1.879-0.83-1.622-1.589C98.711,80.363,99.859,79.842,101.016,79.958z M96.213,77.818
	c0.258-0.761,1.402-1.279,2.56-1.157c1.153,0.118,1.872,0.829,1.612,1.586c-0.252,0.759-1.398,1.281-2.553,1.16
	C96.674,79.288,95.955,78.576,96.213,77.818z M26.942,84.263h3.04l-0.152,2.088l-1.688,1.528l-1.354-1.528L26.942,84.263z
	 M23.143,90.219l0.209-2.852h2.225l1.521,1.479l-1.729,1.373H23.143z M29.319,93.327h-3.04l0.153-2.089l1.577-1.529l1.463,1.529
	L29.319,93.327z M32.803,90.219h-2.226l-1.529-1.373l1.737-1.479h2.226L32.803,90.219z M36.92,100.737l2.387-24.717h46.858
	l2.253,24.717H36.92z M90.737,61.645H34.6V24.113h56.138V61.645z M91.596,79.906c0.257-0.753,1.404-1.273,2.563-1.158
	c1.154,0.12,1.877,0.834,1.62,1.588c-0.263,0.762-1.401,1.281-2.562,1.164C92.061,81.376,91.339,80.668,91.596,79.906z
	 M93.686,83.371c0.258-0.756,1.401-1.277,2.562-1.162c1.157,0.121,1.878,0.836,1.622,1.589c-0.264,0.761-1.402,1.28-2.562,1.164
	C94.15,84.84,93.428,84.128,93.686,83.371z M99.842,99.881c-3.203,0-5.8-1.557-5.8-3.479c0-1.922,2.597-3.479,5.8-3.479
	c3.202,0,5.799,1.558,5.799,3.479C105.641,98.324,103.044,99.881,99.842,99.881z"/>
</svg>
