<?xml version="1.0" encoding="utf-8"?>
<!-- Generator: Adobe Illustrator 16.0.0, SVG Export Plug-In . SVG Version: 6.00 Build 0)  -->
<!DOCTYPE svg PUBLIC "-//W3C//DTD SVG 1.1//EN" "http://www.w3.org/Graphics/SVG/1.1/DTD/svg11.dtd">
<svg version="1.1" id="Layer_1" xmlns="http://www.w3.org/2000/svg" xmlns:xlink="http://www.w3.org/1999/xlink" x="0px" y="0px"
	 width="126px" height="126px" viewBox="0 0 126 126" enable-background="new 0 0 126 126" xml:space="preserve">
<path d="M31.267,52.635c0.306,0.367,0.498,0.859,0.498,1.312v4.614c0,0.864-0.701,1.565-1.565,1.565h-3.499
	c-0.864,0-1.564-0.701-1.564-1.565v-4.614c0-0.548,0.28-1.154,0.706-1.526l2.208-2.412c0.226-0.248,0.592-0.248,0.818,0l2.404,2.627
	H31.267z M27.245,48.227l-2.627-2.404v0.006c-0.367-0.306-0.859-0.498-1.311-0.498h-4.616c-0.864,0-1.564,0.701-1.564,1.565v3.499
	c0,0.864,0.7,1.564,1.564,1.564h4.616c0.547,0,1.153-0.281,1.525-0.706l2.413-2.208C27.492,48.818,27.492,48.452,27.245,48.227z
	 M51.111,47.813h23.813c1.181,0,2.142-0.962,2.142-2.145v-0.027V33.295v-0.063c0-1.183-0.961-2.145-2.141-2.145H51.111
	c-1.181,0-2.142,0.962-2.142,2.145v0.027v12.346v0.063C48.97,46.851,49.931,47.813,51.111,47.813z M28.051,47.783
	c0.226,0.246,0.592,0.246,0.818,0l2.404-2.628h-0.006c0.306-0.367,0.498-0.859,0.498-1.311v-4.616c0-0.863-0.701-1.563-1.565-1.563
	h-3.499c-0.864,0-1.564,0.7-1.564,1.563v4.616c0,0.546,0.28,1.152,0.706,1.525L28.051,47.783z M105.742,44.793
	c2.013,0,3.644,1.632,3.644,3.644c0,2.013-1.631,3.645-3.644,3.645c-2.012,0-3.644-1.632-3.644-3.645
	C102.098,46.425,103.73,44.793,105.742,44.793z M105.742,46.008c-1.314,0-2.384,1.069-2.384,2.384c0,1.315,1.07,2.386,2.384,2.386
	c1.315,0,2.385-1.07,2.385-2.386C108.127,47.077,107.058,46.008,105.742,46.008z M95.841,41.847h3.496l-1.748-2.959L95.841,41.847z
	 M101.233,40.586c0,2.013-1.631,3.644-3.644,3.644c-2.012,0-3.645-1.631-3.645-3.644s1.632-3.645,3.645-3.645
	C99.602,36.941,101.233,38.573,101.233,40.586z M100.125,42.297l-2.536-4.294l-2.536,4.294H100.125z M103.808,48.392
	c0,1.066,0.868,1.936,1.935,1.936s1.935-0.869,1.935-1.936c0-1.065-0.868-1.935-1.935-1.935S103.808,47.326,103.808,48.392z
	 M101.233,56.302c0,2.013-1.631,3.645-3.644,3.645c-2.012,0-3.645-1.632-3.645-3.645c0-2.012,1.632-3.644,3.645-3.644
	C99.602,52.658,101.233,54.29,101.233,56.302z M98.1,56.302l1.709-1.709l-0.415-0.415l-1.709,1.71l-1.709-1.71l-0.415,0.415
	l1.709,1.709l-1.709,1.709l0.415,0.414l1.709-1.708l1.709,1.708l0.415-0.414L98.1,56.302z M118.36,85.409
	c-0.047,3.618-0.842,6.106-4.351,8.995c-6.123,4.73-14.394,1.643-16.145-0.941c-1.751-2.585-3.243-6.604-4.432-10.095
	c-0.968-2.84-1.937-5.68-2.884-8.527c-0.303-0.909-1.062-1.249-1.831-1.588c-0.093-0.04-0.278,0.05-0.385,0.129
	c-4.222,3.075-9.569,2.979-13.682-0.229c-0.209-0.164-0.524-0.276-0.79-0.276c-1.215,0-4.345,0.004-7.418,0.009v0.014
	c-0.672-0.003-1.931-0.005-3.442-0.008c-1.511,0.003-2.771,0.005-3.442,0.008v-0.014c-3.073-0.005-6.203-0.009-7.418-0.009
	c-0.266,0-0.581,0.112-0.79,0.276c-4.113,3.209-9.46,3.305-13.683,0.229c-0.107-0.079-0.292-0.169-0.385-0.129
	c-0.77,0.339-1.528,0.679-1.831,1.588c-0.947,2.848-1.916,5.688-2.884,8.527c-1.188,3.491-2.68,7.51-4.432,10.095
	c-1.751,2.584-10.022,5.672-16.145,0.941c-3.509-2.889-4.304-5.377-4.351-8.995c-0.035-2.744,0.124-5.505,0.423-8.232
	c0.602-5.501,1.614-10.943,2.725-16.364c1.092-5.333,2.351-10.628,3.92-15.845c0.71-2.361,1.567-4.656,2.938-6.729
	c1.072-1.619,2.123-3.251,3.222-4.851c0.201-0.293,0.563-0.499,0.889-0.679c0.248-0.139,0.431-0.238,0.45-0.566
	c0.01-0.174,0.158-0.378,0.304-0.491c0.229-0.179,0.498-0.319,0.768-0.43c3.877-1.587,7.779-1.652,11.702-0.165
	c0.333,0.126,0.522,0.352,0.49,0.698c-0.05,0.54,0.16,0.838,0.706,0.887c0.043,0.004,0.085,0.026,0.124,0.047
	c0.924,0.478,1.917,0.642,2.944,0.646h8.716l-0.027,12.334c0,1.755,1.426,3.184,3.18,3.184h23.813c1.753,0,3.18-1.429,3.18-3.184
	V33.334h8.653c1.027-0.004,2.021-0.168,2.944-0.646c0.039-0.021,0.081-0.043,0.124-0.047c0.546-0.049,0.755-0.347,0.706-0.887
	c-0.032-0.347,0.156-0.572,0.49-0.698c3.923-1.487,7.824-1.422,11.702,0.165c0.271,0.11,0.539,0.251,0.768,0.43
	c0.146,0.113,0.294,0.317,0.304,0.491c0.019,0.328,0.202,0.428,0.45,0.566c0.326,0.18,0.688,0.386,0.889,0.679
	c1.099,1.6,2.15,3.231,3.222,4.851c1.371,2.073,2.227,4.368,2.937,6.729c1.57,5.217,2.829,10.512,3.92,15.845
	c1.11,5.421,2.123,10.863,2.725,16.364C118.236,79.904,118.396,82.665,118.36,85.409z M41.967,41.719c0,1.235,1,2.236,2.235,2.236
	c1.235,0,2.236-1.001,2.236-2.236v-4.6c0-1.234-1-2.235-2.236-2.235c-1.234,0-2.235,1.001-2.235,2.235V41.719z M41.044,48.652
	c0-6.915-5.606-12.522-12.521-12.522c-6.916,0-12.522,5.607-12.522,12.522c0,6.916,5.606,12.521,12.522,12.521
	C35.438,61.174,41.044,55.568,41.044,48.652z M51.115,67.16c0-3.594-2.913-6.507-6.507-6.507c-3.593,0-6.506,2.913-6.506,6.507
	s2.913,6.506,6.506,6.506C48.202,73.666,51.115,70.754,51.115,67.16z M62.609,67.297c0.125,0,0.251,0,0.375-0.013
	c0.385-0.044,0.702-0.204,0.894-0.555c0.136-0.245,0.161-0.513,0.14-0.788c-0.043-0.579-0.511-1.016-1.091-1.016
	c-1.763,0-3.525,0-5.287,0c-0.035,0-0.071,0-0.119,0c0,0.126,0.006,0.235-0.002,0.346c-0.005,0.087,0.028,0.108,0.112,0.108
	c0.943-0.003,1.887-0.003,2.831-0.003c0.661,0,1.321,0,1.983,0.001c0.327,0,0.537,0.157,0.602,0.47
	c0.028,0.135,0.034,0.28,0.016,0.417c-0.05,0.382-0.261,0.556-0.646,0.556c-1.258,0-2.518,0.009-3.777-0.004
	c-0.629-0.006-1.067,0.469-1.101,1.037c-0.028,0.472-0.012,0.946-0.018,1.418c-0.001,0.061,0.02,0.084,0.083,0.084
	c0.259-0.002,0.518-0.005,0.778,0c0.073,0.002,0.09-0.028,0.089-0.094c-0.002-0.357-0.001-0.715,0-1.072c0-0.107,0-0.214,0.012-0.32
	c0.033-0.298,0.235-0.579,0.636-0.575C60.281,67.306,61.446,67.299,62.609,67.297z M69.961,64.926c-0.031,0-0.052,0-0.072,0
	c-1.015,0-2.03-0.006-3.044,0.006c-0.338,0.004-0.628,0.154-0.833,0.435c-0.155,0.212-0.215,0.454-0.216,0.714
	c-0.001,0.699,0.004,1.399-0.002,2.1c-0.004,0.409-0.202,0.71-0.694,0.7c-0.842-0.015-1.686-0.004-2.527-0.004
	c-0.021,0-0.042,0.002-0.063,0c-0.057-0.005-0.081,0.018-0.08,0.078c0.004,0.104,0.004,0.207,0,0.312
	c-0.003,0.071,0.026,0.09,0.094,0.09c0.998-0.002,1.995,0,2.992-0.002c0.262,0,0.515-0.055,0.738-0.201
	c0.343-0.228,0.483-0.565,0.487-0.961c0.006-0.68,0.001-1.357,0.002-2.037c0.001-0.085,0.007-0.172,0.018-0.257
	c0.034-0.257,0.194-0.444,0.423-0.497c0.074-0.019,0.153-0.022,0.23-0.022c0.806-0.001,1.613-0.001,2.419-0.001
	c0.021,0,0.046,0.008,0.062-0.002c0.025-0.016,0.061-0.037,0.063-0.06C69.964,65.191,69.961,65.066,69.961,64.926z M79.563,41.719
	c0,1.235,1,2.236,2.235,2.236s2.235-1.001,2.235-2.236v-4.6c0-1.234-1-2.235-2.235-2.235s-2.235,1.001-2.235,2.235V41.719z
	 M87.897,67.16c0-3.594-2.913-6.507-6.506-6.507c-3.594,0-6.507,2.913-6.507,6.507s2.913,6.506,6.507,6.506
	C84.984,73.666,87.897,70.754,87.897,67.16z M109.999,48.652c0-6.915-5.606-12.522-12.521-12.522s-12.522,5.607-12.522,12.522
	c0,6.916,5.606,12.521,12.522,12.521S109.999,55.568,109.999,48.652z M93.325,48.437c0,2.013-1.632,3.645-3.645,3.645
	s-3.645-1.632-3.645-3.645c0-2.012,1.632-3.644,3.645-3.644S93.325,46.425,93.325,48.437z M91.663,46.41h-3.965v3.964h3.965V46.41z
	 M38.023,45.33h-4.616c-0.452,0-0.943,0.192-1.311,0.498v-0.006l-2.627,2.404c-0.247,0.226-0.247,0.592,0,0.818l2.413,2.208
	c0.373,0.425,0.979,0.706,1.525,0.706h4.616c0.864,0,1.564-0.7,1.564-1.564v-3.499C39.587,46.031,38.887,45.33,38.023,45.33z
	 M91.213,46.858h-3.065v3.067h3.065V46.858z"/>
</svg>
