<?xml version="1.0" encoding="utf-8"?>
<!-- Generator: Adobe Illustrator 16.0.0, SVG Export Plug-In . SVG Version: 6.00 Build 0)  -->
<!DOCTYPE svg PUBLIC "-//W3C//DTD SVG 1.1//EN" "http://www.w3.org/Graphics/SVG/1.1/DTD/svg11.dtd">
<svg version="1.1" id="Layer_1" xmlns="http://www.w3.org/2000/svg" xmlns:xlink="http://www.w3.org/1999/xlink" x="0px" y="0px"
	 width="126px" height="126px" viewBox="0 0 126 126" enable-background="new 0 0 126 126" xml:space="preserve">
<path d="M88.719,6.162H37.283c-3.025,0-5.484,2.461-5.484,5.484v103.559c0,3.023,2.459,5.484,5.484,5.484h51.436
	c3.023,0,5.484-2.461,5.484-5.484V11.646C94.203,8.623,91.742,6.162,88.719,6.162z M92.379,115.205c0,2.018-1.643,3.66-3.66,3.66
	H37.283c-2.02,0-3.662-1.643-3.662-3.66v-9.107h58.758V115.205z M33.711,96.723V20.369h58.514v76.354H33.711z M92.379,18.545H33.621
	v-6.898c0-2.02,1.643-3.66,3.662-3.66h51.436c2.018,0,3.66,1.641,3.66,3.66V18.545z M41.295,13.255c0,0.691-0.561,1.25-1.25,1.25
	c-0.691,0-1.25-0.559-1.25-1.25c0-0.689,0.559-1.25,1.25-1.25C40.734,12.005,41.295,12.565,41.295,13.255z M44.984,13.255
	c0,0.691-0.561,1.25-1.25,1.25c-0.691,0-1.25-0.559-1.25-1.25c0-0.689,0.559-1.25,1.25-1.25
	C44.424,12.005,44.984,12.565,44.984,13.255z M46.295,12.468h35.25v1.25h-35.25V12.468z M81.545,113.176h-35.25v-1.25h35.25V113.176
	z M87.207,13.093c0,1.09-0.885,1.975-1.975,1.975c-1.092,0-1.977-0.885-1.977-1.975s0.885-1.975,1.977-1.975
	C86.322,11.118,87.207,12.003,87.207,13.093z"/>
</svg>
