<?xml version="1.0" encoding="utf-8"?>
<!-- Generator: Adobe Illustrator 16.0.0, SVG Export Plug-In . SVG Version: 6.00 Build 0)  -->
<!DOCTYPE svg PUBLIC "-//W3C//DTD SVG 1.1//EN" "http://www.w3.org/Graphics/SVG/1.1/DTD/svg11.dtd">
<svg version="1.1" id="Layer_1" xmlns="http://www.w3.org/2000/svg" xmlns:xlink="http://www.w3.org/1999/xlink" x="0px" y="0px"
	 width="126px" height="126px" viewBox="0 0 126 126" enable-background="new 0 0 126 126" xml:space="preserve">
<path d="M94.697,11.128c-0.05-3.257-2.711-5.892-5.979-5.892H37.282c-3.3,0-5.984,2.685-5.984,5.984v103.559
	c0,3.3,2.685,5.984,5.984,5.984h51.436c3.3,0,5.984-2.685,5.984-5.984V18.938v-7.718v-0.093H94.697z M37.282,6.236h51.436
	c2.748,0,4.984,2.236,4.984,4.984v6.702H32.331v-6.795h-0.023C32.358,8.424,34.565,6.236,37.282,6.236z M32.298,96.797h61.404v7.62
	H32.298V96.797z M32.432,18.938h61.135v76.858H32.432V18.938z M88.718,119.764H37.282c-2.748,0-4.984-2.236-4.984-4.984v-9.362
	h61.404v9.362C93.702,117.527,91.466,119.764,88.718,119.764z M40.043,14.649c0.827,0,1.5-0.673,1.5-1.5s-0.673-1.5-1.5-1.5
	s-1.5,0.673-1.5,1.5S39.216,14.649,40.043,14.649z M40.043,12.149c0.552,0,1,0.448,1,1s-0.448,1-1,1s-1-0.448-1-1
	S39.491,12.149,40.043,12.149z M43.732,14.649c0.827,0,1.5-0.673,1.5-1.5s-0.673-1.5-1.5-1.5s-1.5,0.673-1.5,1.5
	S42.905,14.649,43.732,14.649z M43.732,12.149c0.552,0,1,0.448,1,1s-0.448,1-1,1s-1-0.448-1-1S43.181,12.149,43.732,12.149z
	 M81.793,12.112h-35.75v1.75h35.75V12.112z M81.293,13.362h-34.75v-0.75h34.75V13.362z M46.043,113.321h35.75v-1.75h-35.75V113.321z
	 M46.543,112.071h34.75v0.75h-34.75V112.071z M85.23,15.212c1.227,0,2.225-0.998,2.225-2.225s-0.998-2.225-2.225-2.225
	c-1.228,0-2.227,0.998-2.227,2.225S84.003,15.212,85.23,15.212z M85.23,11.263c0.951,0,1.725,0.773,1.725,1.725
	s-0.773,1.725-1.725,1.725c-0.952,0-1.727-0.773-1.727-1.725S84.278,11.263,85.23,11.263z"/>
</svg>
