<?xml version="1.0" encoding="utf-8"?>
<!-- Generator: Adobe Illustrator 16.0.0, SVG Export Plug-In . SVG Version: 6.00 Build 0)  -->
<!DOCTYPE svg PUBLIC "-//W3C//DTD SVG 1.1//EN" "http://www.w3.org/Graphics/SVG/1.1/DTD/svg11.dtd">
<svg version="1.1" id="Layer_1" xmlns="http://www.w3.org/2000/svg" xmlns:xlink="http://www.w3.org/1999/xlink" x="0px" y="0px"
	 width="126px" height="126px" viewBox="0 0 126 126" enable-background="new 0 0 126 126" xml:space="preserve">
<path d="M89.833,17.667H36.167c-1.657,0-3,1.343-3,3v84.666c0,1.657,1.343,3,3,3h53.666c1.657,0,3-1.343,3-3V20.667
	C92.833,19.01,91.49,17.667,89.833,17.667z M63.768,42.54c0.535-0.626,1.439-1.093,2.185-1.124c0.095,0.87-0.253,1.741-0.772,2.369
	c-0.518,0.626-1.368,1.114-2.201,1.05C62.868,43.982,63.289,43.095,63.768,42.54z M68.012,54.408
	c-0.619,0.904-1.259,1.803-2.271,1.822c-0.994,0.019-1.313-0.589-2.448-0.589c-1.136,0-1.491,0.57-2.43,0.608
	c-0.976,0.037-1.719-0.976-2.342-1.877c-1.275-1.84-2.248-5.204-0.94-7.474c0.648-1.127,1.81-1.841,3.069-1.859
	c0.958-0.018,1.862,0.645,2.447,0.645c0.586,0,1.686-0.797,2.84-0.68c0.484,0.02,1.841,0.194,2.712,1.47
	c-0.069,0.045-1.62,0.946-1.601,2.825c0.019,2.244,1.968,2.99,1.991,3C69.022,52.351,68.727,53.363,68.012,54.408z"/>
</svg>
