<?xml version="1.0" encoding="utf-8"?>
<!-- Generator: Adobe Illustrator 16.0.0, SVG Export Plug-In . SVG Version: 6.00 Build 0)  -->
<!DOCTYPE svg PUBLIC "-//W3C//DTD SVG 1.1//EN" "http://www.w3.org/Graphics/SVG/1.1/DTD/svg11.dtd">
<svg version="1.1" id="Layer_1" xmlns="http://www.w3.org/2000/svg" xmlns:xlink="http://www.w3.org/1999/xlink" x="0px" y="0px"
	 width="126px" height="126px" viewBox="0 0 126 126" enable-background="new 0 0 126 126" xml:space="preserve">
<path d="M104.988,15.658H21.012c-1.66,0-3.012,1.351-3.012,3.011v88.662c0,1.66,1.352,3.011,3.012,3.011h83.977
	c1.66,0,3.012-1.351,3.012-3.011V18.669C108,17.009,106.648,15.658,104.988,15.658z M28.406,109.673
	c0.175-2.797,2.478-5.019,5.318-5.019h58.551c2.841,0,5.144,2.221,5.318,5.019H28.406z M63.114,59.291
	c0.69,0,1.984-0.938,3.344-0.801c0.571,0.024,2.169,0.23,3.195,1.731c-0.081,0.053-1.907,1.114-1.886,3.326
	c0.023,2.643,2.316,3.522,2.347,3.535c-0.021,0.061-0.369,1.253-1.211,2.484c-0.729,1.063-1.484,2.123-2.674,2.146
	c-1.173,0.021-1.547-0.694-2.886-0.694c-1.336,0-1.755,0.671-2.861,0.715c-1.148,0.043-2.023-1.148-2.758-2.211
	c-1.502-2.168-2.647-6.128-1.106-8.802c0.765-1.327,2.13-2.167,3.614-2.19C61.359,58.512,62.425,59.291,63.114,59.291z
	 M63.906,55.588c0.627-0.738,1.692-1.287,2.57-1.324c0.112,1.025-0.298,2.051-0.908,2.791c-0.612,0.738-1.611,1.313-2.591,1.236
	C62.844,57.288,63.338,56.243,63.906,55.588z M92.275,21.346H33.725c-2.841,0-5.144-2.221-5.318-5.019h69.188
	C97.419,19.125,95.116,21.346,92.275,21.346z"/>
</svg>
