<?xml version="1.0" encoding="utf-8"?>
<!-- Generator: Adobe Illustrator 16.0.0, SVG Export Plug-In . SVG Version: 6.00 Build 0)  -->
<!DOCTYPE svg PUBLIC "-//W3C//DTD SVG 1.1//EN" "http://www.w3.org/Graphics/SVG/1.1/DTD/svg11.dtd">
<svg version="1.1" id="Layer_1" xmlns="http://www.w3.org/2000/svg" xmlns:xlink="http://www.w3.org/1999/xlink" x="0px" y="0px"
	 width="126px" height="126px" viewBox="0 0 126 126" enable-background="new 0 0 126 126" xml:space="preserve">
<path d="M96.5,10.75h-67c-1.93,0-3.5,1.57-3.5,3.5v97.5c0,1.93,1.57,3.5,3.5,3.5h67c1.93,0,3.5-1.57,3.5-3.5v-97.5
	C100,12.32,98.43,10.75,96.5,10.75z M63.993,54.868c0.691-0.81,1.859-1.412,2.822-1.452c0.123,1.124-0.328,2.25-0.997,3.061
	c-0.67,0.81-1.768,1.44-2.844,1.356C62.829,56.733,63.373,55.586,63.993,54.868z M34.917,20.167c-1.473,0-2.667-1.194-2.667-2.667
	s1.194-2.667,2.667-2.667s2.667,1.194,2.667,2.667S36.39,20.167,34.917,20.167z M69.476,70.204c-0.8,1.168-1.626,2.33-2.934,2.354
	c-1.284,0.024-1.696-0.761-3.164-0.761c-1.468,0-1.926,0.737-3.14,0.785c-1.261,0.047-2.221-1.261-3.026-2.425
	c-1.647-2.378-2.904-6.724-1.214-9.657c0.837-1.457,2.338-2.379,3.965-2.403c1.237-0.022,2.406,0.833,3.162,0.833
	c0.757,0,2.178-1.029,3.67-0.878c0.625,0.026,2.379,0.251,3.505,1.899c-0.089,0.059-2.093,1.222-2.069,3.65
	c0.025,2.899,2.543,3.863,2.572,3.877C70.781,67.545,70.4,68.853,69.476,70.204z"/>
</svg>
