<?xml version="1.0" encoding="utf-8"?>
<!-- Generator: Adobe Illustrator 16.0.0, SVG Export Plug-In . SVG Version: 6.00 Build 0)  -->
<!DOCTYPE svg PUBLIC "-//W3C//DTD SVG 1.1//EN" "http://www.w3.org/Graphics/SVG/1.1/DTD/svg11.dtd">
<svg version="1.1" id="Layer_1" xmlns="http://www.w3.org/2000/svg" xmlns:xlink="http://www.w3.org/1999/xlink" x="0px" y="0px"
	 width="126px" height="126px" viewBox="0 0 126 126" enable-background="new 0 0 126 126" xml:space="preserve">
<path d="M104.988,110.883H21.012c-1.937,0-3.512-1.574-3.512-3.51V18.711c0-1.937,1.575-3.512,3.512-3.512h83.977
	c1.937,0,3.512,1.575,3.512,3.512v88.662C108.5,109.309,106.925,110.883,104.988,110.883z M98.066,109.883h6.922
	c1.385,0,2.512-1.126,2.512-2.51V18.711c0-1.385-1.127-2.512-2.512-2.512h-6.922c-0.334,2.933-2.821,5.188-5.791,5.188H33.725
	c-2.97,0-5.457-2.255-5.791-5.188h-6.922c-1.385,0-2.512,1.127-2.512,2.512v88.662c0,1.384,1.127,2.51,2.512,2.51h6.922
	c0.334-2.932,2.821-5.188,5.791-5.188h58.551C95.245,104.695,97.732,106.951,98.066,109.883z M28.968,109.715h68.064
	c-0.397-2.293-2.394-4.02-4.757-4.02H33.725C31.361,105.695,29.365,107.422,28.968,109.715z M28.968,16.369
	c0.397,2.291,2.394,4.018,4.757,4.018h58.551c2.363,0,4.359-1.727,4.757-4.018H28.968z M60.5,72.275c-1.511,0-2.52-1.46-3.187-2.426
	c-1.723-2.486-2.703-6.604-1.129-9.336c0.854-1.48,2.401-2.416,4.04-2.441h0.05c0.719,0,1.396,0.269,1.94,0.484
	c0.104,0.041,0.206,0.082,0.304,0.119l-0.037-0.277c-0.161-1.209,0.436-2.393,1.047-3.097c0.711-0.837,1.916-1.453,2.928-1.495
	l0.467-0.02l0.051,0.465c0.118,1.082-0.253,2.234-1.02,3.163c-0.236,0.285-0.51,0.535-0.804,0.743
	c0.426-0.109,0.886-0.172,1.357-0.124c0.669,0.027,2.416,0.275,3.559,1.946l0.287,0.421l-0.426,0.28
	c-0.412,0.256-1.677,1.18-1.66,2.902c0.02,2.207,1.824,2.992,2.03,3.075l0.439,0.177l-0.149,0.449
	c-0.133,0.421-0.516,1.499-1.271,2.605c-0.713,1.041-1.601,2.336-3.077,2.363c-0.001,0-0.003,0-0.003,0
	c-0.708,0-1.16-0.195-1.559-0.367c-0.404-0.176-0.753-0.326-1.334-0.326c-0.613,0-1,0.164-1.408,0.338
	c-0.388,0.166-0.828,0.354-1.434,0.377C60.502,72.275,60.501,72.275,60.5,72.275z M60.274,58.572l-0.033,0.5
	c-1.29,0.02-2.512,0.764-3.189,1.939c-1.455,2.524-0.242,6.355,1.084,8.269c0.698,1.011,1.449,1.997,2.286,1.997
	c0.463-0.018,0.769-0.148,1.122-0.299c0.46-0.195,0.982-0.418,1.8-0.418c0.788,0,1.289,0.217,1.731,0.408
	c0.369,0.16,0.661,0.286,1.103,0.286c0.936-0.017,1.547-0.81,2.313-1.929c0.509-0.745,0.83-1.475,1.008-1.949
	c-0.76-0.432-2.212-1.547-2.231-3.783c-0.018-1.773,0.997-2.889,1.669-3.433c-0.87-0.953-2.012-1.109-2.499-1.13
	c-0.105-0.01-0.181-0.014-0.256-0.014c-0.637,0-1.274,0.252-1.837,0.473c-0.465,0.184-0.867,0.342-1.23,0.342
	c-0.395,0-0.818-0.168-1.268-0.346c-0.489-0.193-1.044-0.414-1.572-0.414V58.572z M65.983,54.889
	c-0.62,0.169-1.276,0.571-1.696,1.064c-0.373,0.431-0.768,1.132-0.825,1.861c0.615-0.101,1.264-0.485,1.722-1.037
	C65.644,56.221,65.926,55.543,65.983,54.889z"/>
</svg>
