<?xml version="1.0" encoding="utf-8"?>
<!-- Generator: Adobe Illustrator 16.0.0, SVG Export Plug-In . SVG Version: 6.00 Build 0)  -->
<!DOCTYPE svg PUBLIC "-//W3C//DTD SVG 1.1//EN" "http://www.w3.org/Graphics/SVG/1.1/DTD/svg11.dtd">
<svg version="1.1" id="Layer_1" xmlns="http://www.w3.org/2000/svg" xmlns:xlink="http://www.w3.org/1999/xlink" x="0px" y="0px"
	 width="126px" height="126px" viewBox="0 0 126 126" enable-background="new 0 0 126 126" xml:space="preserve">
<path d="M87.432,20.917v-0.516c0-2.228-1.807-4.035-4.035-4.035H42.592c-2.229,0-4.035,1.807-4.035,4.035v1.474h0.018v82.25h-0.018
	v1.474c0,2.228,1.807,4.035,4.035,4.035h40.805c2.229,0,4.035-1.807,4.035-4.035v-0.974h0.012V20.917H87.432z M63.564,29.319
	c0.412-0.484,1.111-0.845,1.688-0.869c0.074,0.673-0.195,1.347-0.596,1.832c-0.402,0.485-1.059,0.862-1.701,0.812
	C62.867,30.435,63.191,29.749,63.564,29.319z M44.633,21.841c-0.949,0-1.719-0.77-1.719-1.72s0.77-1.72,1.719-1.72
	c0.951,0,1.721,0.77,1.721,1.72S45.584,21.841,44.633,21.841z M49.695,21.289c-0.645,0-1.168-0.523-1.168-1.168
	s0.523-1.168,1.168-1.168c0.646,0,1.17,0.523,1.17,1.168S50.342,21.289,49.695,21.289z M66.846,38.497
	c-0.479,0.698-0.975,1.394-1.756,1.409c-0.77,0.014-1.016-0.456-1.895-0.456c-0.877,0-1.152,0.441-1.879,0.47
	c-0.754,0.028-1.328-0.754-1.811-1.452c-0.986-1.423-1.738-4.023-0.727-5.779c0.502-0.872,1.398-1.423,2.373-1.438
	c0.74-0.013,1.439,0.499,1.893,0.499s1.303-0.616,2.195-0.526c0.375,0.016,1.424,0.151,2.098,1.137
	c-0.053,0.035-1.252,0.731-1.238,2.184c0.016,1.735,1.521,2.313,1.541,2.321C67.627,36.906,67.398,37.688,66.846,38.497z
	 M82.375,22.5H73c-1.104,0-2-0.896-2-2s0.896-2,2-2h9.375c1.104,0,2,0.896,2,2S83.479,22.5,82.375,22.5z"/>
</svg>
