<?xml version="1.0" encoding="utf-8"?>
<!-- Generator: Adobe Illustrator 16.0.0, SVG Export Plug-In . SVG Version: 6.00 Build 0)  -->
<!DOCTYPE svg PUBLIC "-//W3C//DTD SVG 1.1//EN" "http://www.w3.org/Graphics/SVG/1.1/DTD/svg11.dtd">
<svg version="1.1" id="Layer_1" xmlns="http://www.w3.org/2000/svg" xmlns:xlink="http://www.w3.org/1999/xlink" x="0px" y="0px"
	 width="126px" height="126px" viewBox="0 0 126 126" enable-background="new 0 0 126 126" xml:space="preserve">
<g>
	<path d="M87.438,20.917v-0.516c0-2.228-1.806-4.035-4.036-4.035H42.598c-2.228,0-4.036,1.807-4.036,4.035v1.474h0.018v82.25h-0.018
		v1.474c0,2.228,1.808,4.035,4.036,4.035h40.804c2.229,0,4.036-1.807,4.036-4.035v-0.974h0.013V20.917H87.438z M49.702,18.952
		c0.646,0,1.169,0.523,1.169,1.168s-0.523,1.168-1.169,1.168c-0.645,0-1.168-0.523-1.168-1.168S49.057,18.952,49.702,18.952z
		 M44.64,18.4c0.95,0,1.721,0.77,1.721,1.72s-0.771,1.72-1.721,1.72c-0.95,0-1.72-0.77-1.72-1.72S43.69,18.4,44.64,18.4z
		 M86.45,103.125H39.58V23.75h46.87V103.125z"/>
	<path d="M65.259,28.45c-0.576,0.024-1.276,0.385-1.689,0.869c-0.372,0.43-0.697,1.116-0.609,1.775
		c0.644,0.05,1.3-0.327,1.702-0.812C65.062,29.796,65.332,29.123,65.259,28.45z"/>
	<path d="M61.323,39.92c0.727-0.029,1-0.47,1.878-0.47c0.879,0,1.125,0.47,1.894,0.456c0.782-0.015,1.277-0.71,1.755-1.409
		c0.553-0.809,0.781-1.591,0.795-1.631c-0.018-0.008-1.525-0.585-1.54-2.321c-0.014-1.453,1.186-2.149,1.239-2.184
		c-0.674-0.986-1.724-1.121-2.098-1.137c-0.893-0.09-1.744,0.526-2.196,0.526s-1.152-0.512-1.893-0.499
		c-0.974,0.015-1.871,0.566-2.373,1.438c-1.011,1.756-0.259,4.356,0.727,5.779C59.994,39.166,60.568,39.948,61.323,39.92z"/>
</g>
</svg>
