<?xml version="1.0" encoding="utf-8"?>
<!-- Generator: Adobe Illustrator 16.0.0, SVG Export Plug-In . SVG Version: 6.00 Build 0)  -->
<!DOCTYPE svg PUBLIC "-//W3C//DTD SVG 1.1//EN" "http://www.w3.org/Graphics/SVG/1.1/DTD/svg11.dtd">
<svg version="1.1" id="Layer_1" xmlns="http://www.w3.org/2000/svg" xmlns:xlink="http://www.w3.org/1999/xlink" x="0px" y="0px"
	 width="126px" height="126px" viewBox="0 0 126 126" enable-background="new 0 0 126 126" xml:space="preserve">
<path d="M80.357,104.188c-2.047,0-3.713-1.666-3.713-3.713s1.666-3.711,3.713-3.711s3.713,1.664,3.713,3.711
	S82.404,104.188,80.357,104.188z M80.357,97.764c-1.496,0-2.713,1.217-2.713,2.711c0,1.496,1.217,2.713,2.713,2.713
	s2.713-1.217,2.713-2.713C83.07,98.98,81.854,97.764,80.357,97.764z M71.711,104.188c-2.047,0-3.713-1.666-3.713-3.713
	s1.666-3.711,3.713-3.711c2.046,0,3.711,1.664,3.711,3.711S73.757,104.188,71.711,104.188z M71.711,97.764
	c-1.496,0-2.713,1.217-2.713,2.711c0,1.496,1.217,2.713,2.713,2.713c1.495,0,2.711-1.217,2.711-2.713
	C74.422,98.98,73.206,97.764,71.711,97.764z M63.063,104.188c-2.047,0-3.713-1.666-3.713-3.713s1.666-3.711,3.713-3.711
	c2.046,0,3.711,1.664,3.711,3.711S65.108,104.188,63.063,104.188z M63.063,97.764c-1.496,0-2.713,1.217-2.713,2.711
	c0,1.496,1.217,2.713,2.713,2.713c1.495,0,2.711-1.217,2.711-2.713C65.773,98.98,64.558,97.764,63.063,97.764z M54.289,104.188
	c-2.046,0-3.711-1.666-3.711-3.713s1.665-3.711,3.711-3.711c2.047,0,3.713,1.664,3.713,3.711S56.336,104.188,54.289,104.188z
	 M54.289,97.764c-1.495,0-2.711,1.217-2.711,2.711c0,1.496,1.216,2.713,2.711,2.713c1.496,0,2.713-1.217,2.713-2.713
	C57.002,98.98,55.785,97.764,54.289,97.764z M45.641,104.188c-2.046,0-3.711-1.666-3.711-3.713s1.665-3.711,3.711-3.711
	c2.047,0,3.713,1.664,3.713,3.711S47.688,104.188,45.641,104.188z M45.641,97.764c-1.495,0-2.711,1.217-2.711,2.711
	c0,1.496,1.216,2.713,2.711,2.713c1.496,0,2.713-1.217,2.713-2.713C48.354,98.98,47.137,97.764,45.641,97.764z M80.357,95.211
	c-2.047,0-3.713-1.666-3.713-3.713s1.666-3.712,3.713-3.712s3.713,1.665,3.713,3.712S82.404,95.211,80.357,95.211z M80.357,88.786
	c-1.496,0-2.713,1.217-2.713,2.712c0,1.496,1.217,2.713,2.713,2.713s2.713-1.217,2.713-2.713
	C83.07,90.003,81.854,88.786,80.357,88.786z M71.711,95.211c-2.047,0-3.713-1.666-3.713-3.713s1.666-3.712,3.713-3.712
	c2.046,0,3.711,1.665,3.711,3.712S73.757,95.211,71.711,95.211z M71.711,88.786c-1.496,0-2.713,1.217-2.713,2.712
	c0,1.496,1.217,2.713,2.713,2.713c1.495,0,2.711-1.217,2.711-2.713C74.422,90.003,73.206,88.786,71.711,88.786z M63.063,95.211
	c-2.047,0-3.713-1.666-3.713-3.713s1.666-3.712,3.713-3.712c2.046,0,3.711,1.665,3.711,3.712S65.108,95.211,63.063,95.211z
	 M63.063,88.786c-1.496,0-2.713,1.217-2.713,2.712c0,1.496,1.217,2.713,2.713,2.713c1.495,0,2.711-1.217,2.711-2.713
	C65.773,90.003,64.558,88.786,63.063,88.786z M54.289,95.211c-2.046,0-3.711-1.666-3.711-3.713s1.665-3.712,3.711-3.712
	c2.047,0,3.713,1.665,3.713,3.712S56.336,95.211,54.289,95.211z M54.289,88.786c-1.495,0-2.711,1.217-2.711,2.712
	c0,1.496,1.216,2.713,2.711,2.713c1.496,0,2.713-1.217,2.713-2.713C57.002,90.003,55.785,88.786,54.289,88.786z M45.641,95.211
	c-2.046,0-3.711-1.666-3.711-3.713s1.665-3.712,3.711-3.712c2.047,0,3.713,1.665,3.713,3.712S47.688,95.211,45.641,95.211z
	 M45.641,88.786c-1.495,0-2.711,1.217-2.711,2.712c0,1.496,1.216,2.713,2.711,2.713c1.496,0,2.713-1.217,2.713-2.713
	C48.354,90.003,47.137,88.786,45.641,88.786z M80.357,86.81c-2.047,0-3.713-1.665-3.713-3.712s1.666-3.713,3.713-3.713
	s3.713,1.666,3.713,3.713S82.404,86.81,80.357,86.81z M80.357,80.385c-1.496,0-2.713,1.217-2.713,2.713
	c0,1.495,1.217,2.712,2.713,2.712s2.713-1.217,2.713-2.712C83.07,81.602,81.854,80.385,80.357,80.385z M71.711,86.81
	c-2.047,0-3.713-1.665-3.713-3.712s1.666-3.713,3.713-3.713c2.046,0,3.711,1.666,3.711,3.713S73.757,86.81,71.711,86.81z
	 M71.711,80.385c-1.496,0-2.713,1.217-2.713,2.713c0,1.495,1.217,2.712,2.713,2.712c1.495,0,2.711-1.217,2.711-2.712
	C74.422,81.602,73.206,80.385,71.711,80.385z M63.063,86.81c-2.047,0-3.713-1.665-3.713-3.712s1.666-3.713,3.713-3.713
	c2.046,0,3.711,1.666,3.711,3.713S65.108,86.81,63.063,86.81z M63.063,80.385c-1.496,0-2.713,1.217-2.713,2.713
	c0,1.495,1.217,2.712,2.713,2.712c1.495,0,2.711-1.217,2.711-2.712C65.773,81.602,64.558,80.385,63.063,80.385z M54.289,86.81
	c-2.046,0-3.711-1.665-3.711-3.712s1.665-3.713,3.711-3.713c2.047,0,3.713,1.666,3.713,3.713S56.336,86.81,54.289,86.81z
	 M54.289,80.385c-1.495,0-2.711,1.217-2.711,2.713c0,1.495,1.216,2.712,2.711,2.712c1.496,0,2.713-1.217,2.713-2.712
	C57.002,81.602,55.785,80.385,54.289,80.385z M45.641,86.81c-2.046,0-3.711-1.665-3.711-3.712s1.665-3.713,3.711-3.713
	c2.047,0,3.713,1.666,3.713,3.713S47.688,86.81,45.641,86.81z M45.641,80.385c-1.495,0-2.711,1.217-2.711,2.713
	c0,1.495,1.216,2.712,2.711,2.712c1.496,0,2.713-1.217,2.713-2.712C48.354,81.602,47.137,80.385,45.641,80.385z M80.357,78.367
	c-2.047,0-3.713-1.666-3.713-3.713s1.666-3.712,3.713-3.712s3.713,1.665,3.713,3.712S82.404,78.367,80.357,78.367z M80.357,71.942
	c-1.496,0-2.713,1.217-2.713,2.712c0,1.496,1.217,2.713,2.713,2.713s2.713-1.217,2.713-2.713
	C83.07,73.159,81.854,71.942,80.357,71.942z M71.711,78.367c-2.047,0-3.713-1.666-3.713-3.713s1.666-3.712,3.713-3.712
	c2.046,0,3.711,1.665,3.711,3.712S73.757,78.367,71.711,78.367z M71.711,71.942c-1.496,0-2.713,1.217-2.713,2.712
	c0,1.496,1.217,2.713,2.713,2.713c1.495,0,2.711-1.217,2.711-2.713C74.422,73.159,73.206,71.942,71.711,71.942z M63.063,78.367
	c-2.047,0-3.713-1.666-3.713-3.713s1.666-3.712,3.713-3.712c2.046,0,3.711,1.665,3.711,3.712S65.108,78.367,63.063,78.367z
	 M63.063,71.942c-1.496,0-2.713,1.217-2.713,2.712c0,1.496,1.217,2.713,2.713,2.713c1.495,0,2.711-1.217,2.711-2.713
	C65.773,73.159,64.558,71.942,63.063,71.942z M54.289,78.367c-2.046,0-3.711-1.666-3.711-3.713s1.665-3.712,3.711-3.712
	c2.047,0,3.713,1.665,3.713,3.712S56.336,78.367,54.289,78.367z M54.289,71.942c-1.495,0-2.711,1.217-2.711,2.712
	c0,1.496,1.216,2.713,2.711,2.713c1.496,0,2.713-1.217,2.713-2.713C57.002,73.159,55.785,71.942,54.289,71.942z M45.641,78.367
	c-2.046,0-3.711-1.666-3.711-3.713s1.665-3.712,3.711-3.712c2.047,0,3.713,1.665,3.713,3.712S47.688,78.367,45.641,78.367z
	 M45.641,71.942c-1.495,0-2.711,1.217-2.711,2.712c0,1.496,1.216,2.713,2.711,2.713c1.496,0,2.713-1.217,2.713-2.713
	C48.354,73.159,47.137,71.942,45.641,71.942z M80.357,69.39c-2.047,0-3.713-1.665-3.713-3.712s1.666-3.713,3.713-3.713
	s3.713,1.666,3.713,3.713S82.404,69.39,80.357,69.39z M80.357,62.965c-1.496,0-2.713,1.217-2.713,2.713
	c0,1.495,1.217,2.712,2.713,2.712s2.713-1.217,2.713-2.712C83.07,64.182,81.854,62.965,80.357,62.965z M71.711,69.39
	c-2.047,0-3.713-1.665-3.713-3.712s1.666-3.713,3.713-3.713c2.046,0,3.711,1.666,3.711,3.713S73.757,69.39,71.711,69.39z
	 M71.711,62.965c-1.496,0-2.713,1.217-2.713,2.713c0,1.495,1.217,2.712,2.713,2.712c1.495,0,2.711-1.217,2.711-2.712
	C74.422,64.182,73.206,62.965,71.711,62.965z M63.063,69.39c-2.047,0-3.713-1.665-3.713-3.712s1.666-3.713,3.713-3.713
	c2.046,0,3.711,1.666,3.711,3.713S65.108,69.39,63.063,69.39z M63.063,62.965c-1.496,0-2.713,1.217-2.713,2.713
	c0,1.495,1.217,2.712,2.713,2.712c1.495,0,2.711-1.217,2.711-2.712C65.773,64.182,64.558,62.965,63.063,62.965z M54.289,69.39
	c-2.046,0-3.711-1.665-3.711-3.712s1.665-3.713,3.711-3.713c2.047,0,3.713,1.666,3.713,3.713S56.336,69.39,54.289,69.39z
	 M54.289,62.965c-1.495,0-2.711,1.217-2.711,2.713c0,1.495,1.216,2.712,2.711,2.712c1.496,0,2.713-1.217,2.713-2.712
	C57.002,64.182,55.785,62.965,54.289,62.965z M45.641,69.39c-2.046,0-3.711-1.665-3.711-3.712s1.665-3.713,3.711-3.713
	c2.047,0,3.713,1.666,3.713,3.713S47.688,69.39,45.641,69.39z M45.641,62.965c-1.495,0-2.711,1.217-2.711,2.713
	c0,1.495,1.216,2.712,2.711,2.712c1.496,0,2.713-1.217,2.713-2.712C48.354,64.182,47.137,62.965,45.641,62.965z M80.357,60.988
	c-2.047,0-3.713-1.664-3.713-3.711s1.666-3.713,3.713-3.713s3.713,1.666,3.713,3.713S82.404,60.988,80.357,60.988z M80.357,54.564
	c-1.496,0-2.713,1.217-2.713,2.713c0,1.494,1.217,2.711,2.713,2.711s2.713-1.217,2.713-2.711
	C83.07,55.781,81.854,54.564,80.357,54.564z M71.711,60.988c-2.047,0-3.713-1.664-3.713-3.711s1.666-3.713,3.713-3.713
	c2.046,0,3.711,1.666,3.711,3.713S73.757,60.988,71.711,60.988z M71.711,54.564c-1.496,0-2.713,1.217-2.713,2.713
	c0,1.494,1.217,2.711,2.713,2.711c1.495,0,2.711-1.217,2.711-2.711C74.422,55.781,73.206,54.564,71.711,54.564z M63.063,60.988
	c-2.047,0-3.713-1.664-3.713-3.711s1.666-3.713,3.713-3.713c2.046,0,3.711,1.666,3.711,3.713S65.108,60.988,63.063,60.988z
	 M63.063,54.564c-1.496,0-2.713,1.217-2.713,2.713c0,1.494,1.217,2.711,2.713,2.711c1.495,0,2.711-1.217,2.711-2.711
	C65.773,55.781,64.558,54.564,63.063,54.564z M54.289,60.988c-2.046,0-3.711-1.664-3.711-3.711s1.665-3.713,3.711-3.713
	c2.047,0,3.713,1.666,3.713,3.713S56.336,60.988,54.289,60.988z M54.289,54.564c-1.495,0-2.711,1.217-2.711,2.713
	c0,1.494,1.216,2.711,2.711,2.711c1.496,0,2.713-1.217,2.713-2.711C57.002,55.781,55.785,54.564,54.289,54.564z M45.641,60.988
	c-2.046,0-3.711-1.664-3.711-3.711s1.665-3.713,3.711-3.713c2.047,0,3.713,1.666,3.713,3.713S47.688,60.988,45.641,60.988z
	 M45.641,54.564c-1.495,0-2.711,1.217-2.711,2.713c0,1.494,1.216,2.711,2.711,2.711c1.496,0,2.713-1.217,2.713-2.711
	C48.354,55.781,47.137,54.564,45.641,54.564z M83.396,110.008H42.592c-2.501,0-4.535-2.034-4.535-4.535V20.275
	c0-2.5,2.034-4.535,4.535-4.535h40.805c2.501,0,4.535,2.035,4.535,4.535v85.197C87.932,107.974,85.897,110.008,83.396,110.008z
	 M39.057,104.5v0.973c0,1.949,1.586,3.535,3.535,3.535h40.805c1.949,0,3.535-1.586,3.535-3.535V20.275
	c0-1.949-1.586-3.535-3.535-3.535H42.592c-1.949,0-3.535,1.586-3.535,3.535V104.5z M61.334,40.294c-1.087,0-1.78-1.003-2.239-1.667
	c-1.161-1.675-1.818-4.457-0.749-6.313c0.59-1.025,1.663-1.672,2.799-1.689h0.035c0.474,0,0.91,0.162,1.269,0.303
	c-0.067-0.813,0.33-1.592,0.738-2.063c0.503-0.591,1.326-1.011,2.045-1.041l0.466-0.02l0.052,0.465
	c0.083,0.756-0.175,1.559-0.707,2.205c-0.033,0.04-0.068,0.08-0.104,0.118c0.118-0.005,0.234-0.003,0.352,0.009
	c0.455,0.018,1.667,0.189,2.461,1.352l0.285,0.418l-0.421,0.28c-0.258,0.161-1.025,0.725-1.016,1.763
	c0.012,1.336,1.102,1.812,1.226,1.861l0.439,0.177l-0.15,0.45c-0.089,0.28-0.348,1.008-0.855,1.752
	c-0.491,0.715-1.102,1.605-2.159,1.626h-0.003c-0.503,0-0.816-0.136-1.094-0.256c-0.258-0.111-0.462-0.2-0.808-0.2
	c-0.368,0-0.595,0.098-0.857,0.209c-0.269,0.114-0.572,0.244-1.002,0.261C61.336,40.294,61.335,40.294,61.334,40.294z M61.18,31.125
	l-0.019,0.5c-0.787,0.012-1.533,0.467-1.948,1.188c-0.918,1.594-0.141,4.026,0.704,5.246c0.433,0.625,0.895,1.236,1.359,1.236
	c0.266-0.01,0.444-0.086,0.67-0.182c0.302-0.129,0.678-0.289,1.249-0.289c0.553,0,0.915,0.156,1.205,0.283
	c0.233,0.1,0.401,0.174,0.655,0.174c0.529-0.01,0.903-0.5,1.378-1.192c0.28-0.41,0.471-0.813,0.591-1.11
	c-0.549-0.348-1.412-1.121-1.425-2.555c-0.011-1.111,0.562-1.852,1.017-2.265c-0.509-0.468-1.122-0.55-1.396-0.562
	c-0.073-0.006-0.117-0.008-0.161-0.008c-0.386,0-0.788,0.158-1.143,0.299c-0.322,0.127-0.6,0.236-0.871,0.236
	c-0.292,0-0.585-0.117-0.896-0.24c-0.321-0.127-0.655-0.26-0.969-0.26V31.125z M64.713,28.966c-0.291,0.126-0.574,0.324-0.768,0.552
	c-0.184,0.211-0.375,0.527-0.46,0.869c0.302-0.103,0.576-0.297,0.786-0.55C64.487,29.576,64.639,29.271,64.713,28.966z
	 M49.26,24.082h-5.326c-1.588,0-2.88-1.292-2.88-2.881v-0.073c0-1.589,1.292-2.88,2.88-2.88h5.326c1.588,0,2.88,1.291,2.88,2.88
	v0.073C52.14,22.79,50.848,24.082,49.26,24.082z M43.934,18.748c-1.313,0-2.38,1.067-2.38,2.38v0.073
	c0,1.313,1.067,2.381,2.38,2.381h5.326c1.313,0,2.38-1.068,2.38-2.381v-0.073c0-1.313-1.067-2.38-2.38-2.38H43.934z M44.411,23.135
	c-1.086,0-1.969-0.884-1.969-1.971c0-1.086,0.883-1.97,1.969-1.97c1.087,0,1.971,0.884,1.971,1.97
	C46.382,22.251,45.498,23.135,44.411,23.135z M44.411,19.694c-0.81,0-1.469,0.659-1.469,1.47s0.659,1.471,1.469,1.471
	c0.811,0,1.471-0.66,1.471-1.471S45.222,19.694,44.411,19.694z M49.474,22.583c-0.782,0-1.418-0.636-1.418-1.419
	c0-0.781,0.636-1.418,1.418-1.418c0.783,0,1.42,0.637,1.42,1.418C50.894,21.947,50.257,22.583,49.474,22.583z M49.474,20.246
	c-0.506,0-0.918,0.412-0.918,0.918c0,0.507,0.412,0.919,0.918,0.919c0.507,0,0.92-0.412,0.92-0.919
	C50.394,20.658,49.98,20.246,49.474,20.246z"/>
</svg>
