<?xml version="1.0" encoding="utf-8"?>
<!-- Generator: Adobe Illustrator 16.0.0, SVG Export Plug-In . SVG Version: 6.00 Build 0)  -->
<!DOCTYPE svg PUBLIC "-//W3C//DTD SVG 1.1//EN" "http://www.w3.org/Graphics/SVG/1.1/DTD/svg11.dtd">
<svg version="1.1" id="Layer_1" xmlns="http://www.w3.org/2000/svg" xmlns:xlink="http://www.w3.org/1999/xlink" x="0px" y="0px"
	 width="126px" height="126px" viewBox="0 0 126 126" enable-background="new 0 0 126 126" xml:space="preserve">
<path d="M83.402,110.176H42.598c-2.501,0-4.536-2.035-4.536-4.535V20.443c0-2.501,2.035-4.535,4.536-4.535h40.804
	c2.501,0,4.536,2.034,4.536,4.535v85.197C87.938,108.141,85.903,110.176,83.402,110.176z M39.063,104.666v0.975
	c0,1.949,1.586,3.535,3.536,3.535h40.804c1.95,0,3.536-1.586,3.536-3.535l0.013-1.975H39.08L39.063,104.666z M39.08,102.666h47.87
	V24.291H39.08V102.666z M39.08,23.291h47.87l-0.013-2.848c0-1.949-1.586-3.535-3.536-3.535H42.598c-1.95,0-3.536,1.586-3.536,3.535
	L39.08,23.291z M44.64,22.383c-1.224,0-2.22-0.996-2.22-2.221s0.996-2.221,2.22-2.221c1.225,0,2.221,0.996,2.221,2.221
	S45.864,22.383,44.64,22.383z M44.64,18.941c-0.672,0-1.22,0.548-1.22,1.221s0.547,1.221,1.22,1.221
	c0.673,0,1.221-0.548,1.221-1.221S45.313,18.941,44.64,18.941z M49.702,21.83c-0.92,0-1.668-0.748-1.668-1.668
	s0.748-1.668,1.668-1.668c0.92,0,1.669,0.748,1.669,1.668S50.623,21.83,49.702,21.83z M49.702,19.494
	c-0.368,0-0.668,0.299-0.668,0.668s0.3,0.668,0.668,0.668c0.369,0,0.669-0.299,0.669-0.668S50.071,19.494,49.702,19.494z
	 M63.076,31.64L63.076,31.64c-0.051,0-0.103-0.002-0.154-0.006l-0.404-0.031l-0.053-0.401c-0.113-0.849,0.302-1.676,0.727-2.168
	c0.505-0.592,1.329-1.012,2.047-1.041l0.467-0.02l0.051,0.465c0.082,0.754-0.176,1.559-0.708,2.203
	C64.538,31.258,63.782,31.64,63.076,31.64z M64.719,29.133c-0.291,0.127-0.575,0.324-0.769,0.552
	c-0.184,0.214-0.377,0.533-0.461,0.88c0.288-0.102,0.572-0.3,0.788-0.561C64.493,29.742,64.644,29.439,64.719,29.133z
	 M61.283,40.463c-1.031-0.001-1.724-1.005-2.183-1.669c-1.16-1.675-1.817-4.457-0.749-6.313c0.59-1.023,1.662-1.671,2.799-1.688
	h0.001c0.54,0,1.001,0.183,1.372,0.33c0.2,0.078,0.427,0.168,0.527,0.168c0.081,0,0.325-0.096,0.504-0.166
	c0.472-0.186,1.085-0.424,1.743-0.357c0.455,0.019,1.667,0.191,2.46,1.353l0.287,0.419l-0.424,0.28
	c-0.256,0.161-1.024,0.722-1.014,1.763c0.012,1.326,1.102,1.811,1.226,1.861l0.436,0.178l-0.149,0.447
	c-0.088,0.281-0.347,1.009-0.855,1.752c-0.491,0.717-1.101,1.607-2.159,1.627c0,0-0.001,0-0.002,0c-0.502,0-0.816-0.136-1.093-0.256
	c-0.258-0.111-0.462-0.199-0.809-0.199c-0.368,0-0.595,0.096-0.857,0.208c-0.268,0.114-0.572,0.243-1.001,0.261L61.283,40.463z
	 M61.186,31.793c-0.806,0.012-1.552,0.467-1.967,1.188c-0.917,1.592-0.14,4.025,0.705,5.244c0.432,0.627,0.893,1.237,1.36,1.238v0.5
	l0.021-0.501c0.244-0.01,0.422-0.085,0.647-0.182c0.302-0.128,0.677-0.288,1.25-0.288c0.553,0,0.915,0.156,1.206,0.281
	c0.233,0.102,0.401,0.174,0.655,0.174c0.528-0.01,0.903-0.5,1.376-1.191c0.281-0.41,0.472-0.814,0.591-1.111
	c-0.541-0.344-1.411-1.121-1.424-2.554c-0.011-1.112,0.561-1.853,1.017-2.265c-0.509-0.468-1.122-0.549-1.396-0.561
	c-0.073-0.007-0.117-0.009-0.161-0.009c-0.386,0-0.789,0.159-1.145,0.298c-0.322,0.127-0.599,0.236-0.87,0.236
	c-0.292,0-0.585-0.115-0.896-0.238C61.833,31.924,61.5,31.793,61.186,31.793z"/>
</svg>
