<?xml version="1.0" encoding="utf-8"?>
<!-- Generator: Adobe Illustrator 16.0.0, SVG Export Plug-In . SVG Version: 6.00 Build 0)  -->
<!DOCTYPE svg PUBLIC "-//W3C//DTD SVG 1.1//EN" "http://www.w3.org/Graphics/SVG/1.1/DTD/svg11.dtd">
<svg version="1.1" id="Layer_1" xmlns="http://www.w3.org/2000/svg" xmlns:xlink="http://www.w3.org/1999/xlink" x="0px" y="0px"
	 width="126px" height="126px" viewBox="0 0 126 126" enable-background="new 0 0 126 126" xml:space="preserve">
<path d="M83.396,110.176H42.592c-2.501,0-4.535-2.035-4.535-4.535V20.443c0-2.501,2.034-4.535,4.535-4.535h40.805
	c2.501,0,4.535,2.034,4.535,4.535v85.197C87.932,108.141,85.897,110.176,83.396,110.176z M39.057,104.666v0.975
	c0,1.949,1.586,3.535,3.535,3.535h40.805c1.949,0,3.535-1.586,3.535-3.535V20.443c0-1.949-1.586-3.535-3.535-3.535H42.592
	c-1.949,0-3.535,1.586-3.535,3.535V104.666z M61.334,40.461c-1.087,0-1.78-1.003-2.239-1.667c-1.161-1.675-1.818-4.457-0.749-6.313
	c0.59-1.023,1.663-1.671,2.799-1.688h0.035c0.474,0,0.91,0.16,1.269,0.302c-0.067-0.813,0.33-1.592,0.738-2.062
	c0.503-0.592,1.326-1.012,2.045-1.041l0.466-0.02l0.052,0.464c0.083,0.755-0.175,1.56-0.707,2.205
	c-0.033,0.04-0.068,0.079-0.104,0.118c0.117-0.006,0.234-0.003,0.352,0.008c0.455,0.019,1.667,0.191,2.461,1.353l0.285,0.417
	l-0.421,0.281c-0.258,0.162-1.025,0.725-1.016,1.764c0.012,1.334,1.102,1.811,1.226,1.86l0.439,0.177l-0.15,0.449
	c-0.089,0.281-0.348,1.009-0.855,1.752c-0.491,0.717-1.102,1.607-2.159,1.627h-0.003c-0.503,0-0.816-0.136-1.094-0.256
	c-0.258-0.111-0.462-0.199-0.808-0.199c-0.368,0-0.595,0.096-0.857,0.208c-0.269,0.114-0.572,0.243-1.002,0.261
	C61.336,40.461,61.335,40.461,61.334,40.461z M61.18,31.293l-0.019,0.5c-0.787,0.012-1.533,0.467-1.948,1.188
	c-0.918,1.592-0.141,4.025,0.704,5.244c0.433,0.627,0.895,1.238,1.359,1.238c0.266-0.011,0.444-0.087,0.67-0.183
	c0.302-0.128,0.678-0.288,1.249-0.288c0.553,0,0.915,0.156,1.205,0.281c0.233,0.102,0.401,0.174,0.655,0.174
	c0.529-0.01,0.903-0.5,1.378-1.191c0.28-0.41,0.471-0.813,0.591-1.111c-0.549-0.347-1.412-1.12-1.425-2.554
	c-0.011-1.11,0.562-1.853,1.017-2.265c-0.509-0.468-1.122-0.549-1.396-0.561c-0.073-0.007-0.117-0.009-0.161-0.009
	c-0.386,0-0.788,0.158-1.143,0.298c-0.322,0.127-0.6,0.236-0.871,0.236c-0.292,0-0.585-0.115-0.896-0.238
	c-0.321-0.129-0.655-0.26-0.969-0.26V31.293z M64.713,29.133c-0.291,0.126-0.574,0.324-0.768,0.552
	c-0.184,0.211-0.375,0.527-0.46,0.87c0.302-0.104,0.576-0.298,0.786-0.551C64.487,29.742,64.639,29.439,64.713,29.133z
	 M49.26,24.249h-5.326c-1.588,0-2.88-1.292-2.88-2.88v-0.074c0-1.588,1.292-2.881,2.88-2.881h5.326c1.588,0,2.88,1.293,2.88,2.881
	v0.074C52.14,22.957,50.848,24.249,49.26,24.249z M43.934,18.914c-1.313,0-2.38,1.068-2.38,2.381v0.074
	c0,1.313,1.067,2.38,2.38,2.38h5.326c1.313,0,2.38-1.067,2.38-2.38v-0.074c0-1.313-1.067-2.381-2.38-2.381H43.934z M44.411,23.302
	c-1.086,0-1.969-0.884-1.969-1.97c0-1.087,0.883-1.971,1.969-1.971c1.087,0,1.971,0.884,1.971,1.971
	C46.382,22.418,45.498,23.302,44.411,23.302z M44.411,19.861c-0.81,0-1.469,0.66-1.469,1.471s0.659,1.47,1.469,1.47
	c0.811,0,1.471-0.659,1.471-1.47S45.222,19.861,44.411,19.861z M49.474,22.75c-0.782,0-1.418-0.637-1.418-1.418
	c0-0.783,0.636-1.419,1.418-1.419c0.783,0,1.42,0.636,1.42,1.419C50.894,22.113,50.257,22.75,49.474,22.75z M49.474,20.413
	c-0.506,0-0.918,0.412-0.918,0.919c0,0.506,0.412,0.918,0.918,0.918c0.507,0,0.92-0.412,0.92-0.918
	C50.394,20.825,49.98,20.413,49.474,20.413z"/>
</svg>
