<?xml version="1.0" encoding="utf-8"?>
<!-- Generator: Adobe Illustrator 16.0.0, SVG Export Plug-In . SVG Version: 6.00 Build 0)  -->
<!DOCTYPE svg PUBLIC "-//W3C//DTD SVG 1.1//EN" "http://www.w3.org/Graphics/SVG/1.1/DTD/svg11.dtd">
<svg version="1.1" id="Layer_1" xmlns="http://www.w3.org/2000/svg" xmlns:xlink="http://www.w3.org/1999/xlink" x="0px" y="0px"
	 width="126px" height="126px" viewBox="0 0 126 126" enable-background="new 0 0 126 126" xml:space="preserve">
<path d="M75.833,108.732l-35-0.024c-2.481,0-4.5-2.019-4.5-4.5V21.875c0-2.481,2.019-4.5,4.5-4.5h44.333c2.481,0,4.5,2.019,4.5,4.5
	v82.333c0,2.481-2.019,4.5-4.5,4.5L75.833,108.732z M74.333,107.732l10.833-0.024c1.93,0,3.5-1.57,3.5-3.5V21.875
	c0-1.93-1.57-3.5-3.5-3.5H40.833c-1.93,0-3.5,1.57-3.5,3.5v82.333c0,1.93,1.57,3.5,3.5,3.5l10.833,0.024v-6.523h22.666V107.732z
	 M52.667,107.482h20.666v-5.273H52.667V107.482z M61.458,53.457c-1.043,0-1.703-0.955-2.14-1.586
	c-1.101-1.59-1.723-4.23-0.708-5.992c0.561-0.976,1.583-1.592,2.667-1.609h0.035c0.434,0,0.832,0.141,1.164,0.271
	c-0.045-0.758,0.327-1.481,0.707-1.922c0.483-0.566,1.269-0.966,1.954-0.994l0.466-0.02l0.051,0.465
	c0.079,0.721-0.167,1.488-0.675,2.104c-0.018,0.021-0.036,0.043-0.054,0.063c0.091,0.002,0.182,0.003,0.272,0.012
	c0.43,0.016,1.584,0.179,2.343,1.287l0.287,0.42l-0.424,0.28c-0.239,0.149-0.954,0.673-0.945,1.642
	c0.011,1.232,1.025,1.684,1.141,1.732l0.438,0.18l-0.153,0.449c-0.083,0.266-0.33,0.957-0.809,1.657
	c-0.467,0.683-1.049,1.53-2.062,1.549c-0.001,0-0.001,0-0.002,0c-0.48,0-0.78-0.13-1.043-0.244
	c-0.241-0.104-0.431-0.187-0.752-0.187c-0.342,0-0.544,0.086-0.799,0.195s-0.545,0.232-0.955,0.248
	C61.459,53.457,61.458,53.457,61.458,53.457z M61.312,44.77l-0.018,0.5c-0.735,0.012-1.431,0.436-1.817,1.107
	c-0.86,1.494-0.129,3.779,0.664,4.925c0.404,0.585,0.835,1.157,1.262,1.157c0.244-0.01,0.41-0.08,0.62-0.17
	c0.287-0.123,0.645-0.275,1.191-0.275c0.528,0,0.873,0.149,1.149,0.27c0.217,0.094,0.374,0.162,0.606,0.162
	c0.486-0.01,0.835-0.468,1.279-1.115c0.256-0.374,0.433-0.744,0.546-1.022c-0.515-0.334-1.326-1.073-1.338-2.422
	c-0.01-1.042,0.516-1.743,0.946-2.14c-0.47-0.418-1.026-0.491-1.278-0.502c-0.072-0.006-0.113-0.008-0.153-0.008
	c-0.359,0-0.736,0.148-1.069,0.279c-0.635,0.252-1.116,0.224-1.687-0.002c-0.302-0.12-0.614-0.244-0.905-0.244V44.77z
	 M64.605,42.779c-0.252,0.117-0.495,0.292-0.664,0.49c-0.161,0.187-0.329,0.461-0.414,0.76c0.26-0.1,0.497-0.271,0.68-0.493
	C64.396,43.308,64.532,43.045,64.605,42.779z"/>
</svg>
