<?xml version="1.0" encoding="utf-8"?>
<!-- Generator: Adobe Illustrator 16.0.0, SVG Export Plug-In . SVG Version: 6.00 Build 0)  -->
<!DOCTYPE svg PUBLIC "-//W3C//DTD SVG 1.1//EN" "http://www.w3.org/Graphics/SVG/1.1/DTD/svg11.dtd">
<svg version="1.1" id="Layer_1" xmlns="http://www.w3.org/2000/svg" xmlns:xlink="http://www.w3.org/1999/xlink" x="0px" y="0px"
	 width="126px" height="126px" viewBox="0 0 126 126" enable-background="new 0 0 126 126" xml:space="preserve">
<path d="M83.396,110.176H42.592c-2.501,0-4.535-2.035-4.535-4.535V20.443c0-2.501,2.034-4.535,4.535-4.535h40.805
	c2.501,0,4.535,2.034,4.535,4.535v85.197C87.932,108.141,85.897,110.176,83.396,110.176z M39.057,104.666v0.975
	c0,1.949,1.586,3.535,3.535,3.535h40.805c1.949,0,3.535-1.586,3.535-3.535V20.443c0-1.949-1.586-3.535-3.535-3.535H42.592
	c-1.949,0-3.535,1.586-3.535,3.535V104.666z M61.334,40.461c-1.087,0-1.78-1.003-2.239-1.667c-1.161-1.675-1.818-4.457-0.749-6.313
	c0.59-1.023,1.663-1.671,2.799-1.688h0.035c0.474,0,0.91,0.16,1.269,0.302c-0.067-0.813,0.33-1.592,0.738-2.062
	c0.503-0.592,1.326-1.012,2.045-1.041l0.466-0.02l0.052,0.464c0.083,0.755-0.175,1.56-0.707,2.205
	c-0.033,0.04-0.068,0.079-0.104,0.118c0.118-0.006,0.234-0.003,0.352,0.008c0.455,0.019,1.667,0.191,2.461,1.353l0.285,0.417
	l-0.421,0.281c-0.258,0.162-1.025,0.725-1.016,1.764c0.012,1.334,1.102,1.811,1.226,1.86l0.439,0.177l-0.15,0.449
	c-0.089,0.281-0.348,1.009-0.855,1.752c-0.491,0.717-1.102,1.607-2.159,1.627c-0.001,0-0.002,0-0.003,0
	c-0.503,0-0.816-0.136-1.094-0.256c-0.258-0.111-0.462-0.199-0.808-0.199c-0.368,0-0.595,0.096-0.857,0.208
	c-0.269,0.114-0.572,0.243-1.002,0.261C61.336,40.461,61.335,40.461,61.334,40.461z M61.18,31.293l-0.019,0.5
	c-0.787,0.012-1.533,0.467-1.948,1.188c-0.918,1.592-0.141,4.025,0.704,5.244c0.433,0.627,0.895,1.238,1.359,1.238
	c0.266-0.011,0.444-0.087,0.67-0.183c0.302-0.128,0.678-0.288,1.249-0.288c0.553,0,0.915,0.156,1.205,0.281
	c0.233,0.102,0.401,0.174,0.655,0.174c0.529-0.01,0.903-0.5,1.378-1.191c0.28-0.41,0.471-0.813,0.591-1.111
	c-0.549-0.347-1.412-1.12-1.425-2.554c-0.011-1.11,0.562-1.853,1.017-2.265c-0.509-0.468-1.122-0.549-1.396-0.561
	c-0.073-0.007-0.117-0.009-0.161-0.009c-0.386,0-0.788,0.158-1.143,0.298c-0.322,0.127-0.6,0.236-0.871,0.236
	c-0.292,0-0.585-0.115-0.896-0.238c-0.321-0.129-0.655-0.26-0.969-0.26V31.293z M64.713,29.133
	c-0.291,0.126-0.574,0.324-0.768,0.552c-0.184,0.211-0.375,0.527-0.46,0.87c0.302-0.104,0.576-0.298,0.786-0.551
	C64.487,29.742,64.639,29.439,64.713,29.133z M44.633,22.383c-1.224,0-2.219-0.996-2.219-2.221s0.995-2.221,2.219-2.221
	c1.225,0,2.221,0.996,2.221,2.221S45.857,22.383,44.633,22.383z M44.633,18.941c-0.672,0-1.219,0.548-1.219,1.221
	s0.547,1.221,1.219,1.221c0.673,0,1.221-0.548,1.221-1.221S45.306,18.941,44.633,18.941z M49.695,21.83
	c-0.92,0-1.668-0.748-1.668-1.668s0.748-1.668,1.668-1.668c0.921,0,1.67,0.748,1.67,1.668S50.616,21.83,49.695,21.83z
	 M49.695,19.494c-0.368,0-0.668,0.299-0.668,0.668s0.3,0.668,0.668,0.668c0.369,0,0.67-0.299,0.67-0.668
	S50.064,19.494,49.695,19.494z"/>
</svg>
