<?xml version="1.0" encoding="utf-8"?>
<!-- Generator: Adobe Illustrator 16.0.0, SVG Export Plug-In . SVG Version: 6.00 Build 0)  -->
<!DOCTYPE svg PUBLIC "-//W3C//DTD SVG 1.1//EN" "http://www.w3.org/Graphics/SVG/1.1/DTD/svg11.dtd">
<svg version="1.1" id="Layer_1" xmlns="http://www.w3.org/2000/svg" xmlns:xlink="http://www.w3.org/1999/xlink" x="0px" y="0px"
	 width="126px" height="126px" viewBox="0 0 126 126" enable-background="new 0 0 126 126" xml:space="preserve">
<path d="M87.25,113.375h-48.5c-2.481,0-4.5-2.019-4.5-4.5v-91.75c0-2.481,2.019-4.5,4.5-4.5h48.5c2.481,0,4.5,2.019,4.5,4.5v91.75
	C91.75,111.356,89.731,113.375,87.25,113.375z M38.75,13.625c-1.93,0-3.5,1.57-3.5,3.5v91.75c0,1.93,1.57,3.5,3.5,3.5h48.5
	c1.93,0,3.5-1.57,3.5-3.5v-91.75c0-1.93-1.57-3.5-3.5-3.5H38.75z M62.67,106.529c-1.547,0-2.805-1.258-2.805-2.805
	s1.258-2.805,2.805-2.805s2.805,1.258,2.805,2.805S64.217,106.529,62.67,106.529z M62.67,101.92c-0.995,0-1.805,0.81-1.805,1.805
	s0.81,1.805,1.805,1.805s1.805-0.81,1.805-1.805S63.665,101.92,62.67,101.92z M87.169,97.541H38.831V28.459h48.338V97.541z
	 M39.831,96.541h46.338V29.459H39.831V96.541z M68.098,22.66H57.902c-0.52,0-0.941-0.422-0.941-0.941s0.422-0.941,0.941-0.941
	h10.195c0.52,0,0.941,0.422,0.941,0.941S68.617,22.66,68.098,22.66z M57.902,21.277c-0.243,0-0.441,0.198-0.441,0.441
	s0.198,0.441,0.441,0.441h10.195c0.243,0,0.441-0.198,0.441-0.441s-0.198-0.441-0.441-0.441H57.902z"/>
</svg>
