<?xml version="1.0" encoding="utf-8"?>
<!-- Generator: Adobe Illustrator 16.0.0, SVG Export Plug-In . SVG Version: 6.00 Build 0)  -->
<!DOCTYPE svg PUBLIC "-//W3C//DTD SVG 1.1//EN" "http://www.w3.org/Graphics/SVG/1.1/DTD/svg11.dtd">
<svg version="1.1" id="Layer_1" xmlns="http://www.w3.org/2000/svg" xmlns:xlink="http://www.w3.org/1999/xlink" x="0px" y="0px"
	 width="126px" height="126px" viewBox="0 0 126 126" enable-background="new 0 0 126 126" xml:space="preserve">
<g>
	<path d="M87.432,20.917v-0.516c0-2.228-1.807-4.035-4.035-4.035H42.592c-2.229,0-4.035,1.807-4.035,4.035v1.474h0.018v82.25h-0.018
		v1.474c0,2.228,1.807,4.035,4.035,4.035h40.805c2.229,0,4.035-1.807,4.035-4.035v-0.974h0.012V20.917H87.432z M63.564,29.319
		c0.412-0.484,1.111-0.845,1.688-0.869c0.074,0.673-0.195,1.347-0.596,1.832c-0.402,0.485-1.059,0.862-1.701,0.812
		C62.867,30.435,63.191,29.749,63.564,29.319z M45.641,103.646c-1.773,0-3.211-1.438-3.211-3.212c0-1.774,1.438-3.212,3.211-3.212
		c1.775,0,3.213,1.438,3.213,3.212C48.854,102.208,47.416,103.646,45.641,103.646z M45.641,94.669c-1.773,0-3.211-1.438-3.211-3.212
		c0-1.774,1.438-3.212,3.211-3.212c1.775,0,3.213,1.438,3.213,3.212C48.854,93.231,47.416,94.669,45.641,94.669z M45.641,86.268
		c-1.773,0-3.211-1.438-3.211-3.212s1.438-3.212,3.211-3.212c1.775,0,3.213,1.438,3.213,3.212S47.416,86.268,45.641,86.268z
		 M45.641,77.825c-1.773,0-3.211-1.438-3.211-3.212s1.438-3.212,3.211-3.212c1.775,0,3.213,1.438,3.213,3.212
		S47.416,77.825,45.641,77.825z M45.641,68.848c-1.773,0-3.211-1.438-3.211-3.212c0-1.773,1.438-3.212,3.211-3.212
		c1.775,0,3.213,1.438,3.213,3.212C48.854,67.41,47.416,68.848,45.641,68.848z M45.641,60.447c-1.773,0-3.211-1.438-3.211-3.212
		c0-1.774,1.438-3.212,3.211-3.212c1.775,0,3.213,1.438,3.213,3.212C48.854,59.009,47.416,60.447,45.641,60.447z M44.217,22.858
		c-1.452,0-2.63-1.178-2.63-2.63v-0.074c0-1.453,1.178-2.63,2.63-2.63h5.326c1.452,0,2.63,1.178,2.63,2.63v0.074
		c0,1.453-1.178,2.63-2.63,2.63H44.217z M54.289,103.646c-1.773,0-3.211-1.438-3.211-3.212c0-1.774,1.438-3.212,3.211-3.212
		c1.775,0,3.213,1.438,3.213,3.212C57.502,102.208,56.064,103.646,54.289,103.646z M54.289,94.669c-1.773,0-3.211-1.438-3.211-3.212
		c0-1.774,1.438-3.212,3.211-3.212c1.775,0,3.213,1.438,3.213,3.212C57.502,93.231,56.064,94.669,54.289,94.669z M54.289,86.268
		c-1.773,0-3.211-1.438-3.211-3.212s1.438-3.212,3.211-3.212c1.775,0,3.213,1.438,3.213,3.212S56.064,86.268,54.289,86.268z
		 M54.289,77.825c-1.773,0-3.211-1.438-3.211-3.212s1.438-3.212,3.211-3.212c1.775,0,3.213,1.438,3.213,3.212
		S56.064,77.825,54.289,77.825z M54.289,68.848c-1.773,0-3.211-1.438-3.211-3.212c0-1.773,1.438-3.212,3.211-3.212
		c1.775,0,3.213,1.438,3.213,3.212C57.502,67.41,56.064,68.848,54.289,68.848z M54.289,60.447c-1.773,0-3.211-1.438-3.211-3.212
		c0-1.774,1.438-3.212,3.211-3.212c1.775,0,3.213,1.438,3.213,3.212C57.502,59.009,56.064,60.447,54.289,60.447z M63.063,103.646
		c-1.775,0-3.213-1.438-3.213-3.212c0-1.774,1.438-3.212,3.213-3.212c1.773,0,3.211,1.438,3.211,3.212
		C66.273,102.208,64.836,103.646,63.063,103.646z M63.063,94.669c-1.775,0-3.213-1.438-3.213-3.212c0-1.774,1.438-3.212,3.213-3.212
		c1.773,0,3.211,1.438,3.211,3.212C66.273,93.231,64.836,94.669,63.063,94.669z M63.063,86.268c-1.775,0-3.213-1.438-3.213-3.212
		s1.438-3.212,3.213-3.212c1.773,0,3.211,1.438,3.211,3.212S64.836,86.268,63.063,86.268z M63.063,77.825
		c-1.775,0-3.213-1.438-3.213-3.212s1.438-3.212,3.213-3.212c1.773,0,3.211,1.438,3.211,3.212S64.836,77.825,63.063,77.825z
		 M63.063,68.848c-1.775,0-3.213-1.438-3.213-3.212c0-1.773,1.438-3.212,3.213-3.212c1.773,0,3.211,1.438,3.211,3.212
		C66.273,67.41,64.836,68.848,63.063,68.848z M63.063,60.447c-1.775,0-3.213-1.438-3.213-3.212c0-1.774,1.438-3.212,3.213-3.212
		c1.773,0,3.211,1.438,3.211,3.212C66.273,59.009,64.836,60.447,63.063,60.447z M66.846,38.497
		c-0.479,0.698-0.975,1.394-1.756,1.409c-0.77,0.014-1.016-0.456-1.895-0.456c-0.877,0-1.152,0.441-1.879,0.47
		c-0.754,0.028-1.328-0.754-1.811-1.452c-0.986-1.423-1.738-4.023-0.727-5.779c0.502-0.872,1.398-1.423,2.373-1.438
		c0.74-0.013,1.439,0.499,1.893,0.499s1.303-0.616,2.195-0.526c0.375,0.016,1.424,0.151,2.098,1.137
		c-0.053,0.035-1.252,0.731-1.238,2.184c0.016,1.735,1.521,2.313,1.541,2.321C67.627,36.906,67.398,37.688,66.846,38.497z
		 M71.711,103.646c-1.775,0-3.213-1.438-3.213-3.212c0-1.774,1.438-3.212,3.213-3.212c1.771,0,3.211,1.438,3.211,3.212
		C74.922,102.208,73.482,103.646,71.711,103.646z M71.711,94.669c-1.775,0-3.213-1.438-3.213-3.212c0-1.774,1.438-3.212,3.213-3.212
		c1.771,0,3.211,1.438,3.211,3.212C74.922,93.231,73.482,94.669,71.711,94.669z M71.711,86.268c-1.775,0-3.213-1.438-3.213-3.212
		s1.438-3.212,3.213-3.212c1.771,0,3.211,1.438,3.211,3.212S73.482,86.268,71.711,86.268z M71.711,77.825
		c-1.775,0-3.213-1.438-3.213-3.212s1.438-3.212,3.213-3.212c1.771,0,3.211,1.438,3.211,3.212S73.482,77.825,71.711,77.825z
		 M71.711,68.848c-1.775,0-3.213-1.438-3.213-3.212c0-1.773,1.438-3.212,3.213-3.212c1.771,0,3.211,1.438,3.211,3.212
		C74.922,67.41,73.482,68.848,71.711,68.848z M71.711,60.447c-1.775,0-3.213-1.438-3.213-3.212c0-1.774,1.438-3.212,3.213-3.212
		c1.771,0,3.211,1.438,3.211,3.212C74.922,59.009,73.482,60.447,71.711,60.447z M80.357,103.646c-1.773,0-3.213-1.438-3.213-3.212
		c0-1.774,1.439-3.212,3.213-3.212s3.213,1.438,3.213,3.212C83.57,102.208,82.131,103.646,80.357,103.646z M80.357,94.669
		c-1.773,0-3.213-1.438-3.213-3.212c0-1.774,1.439-3.212,3.213-3.212s3.213,1.438,3.213,3.212
		C83.57,93.231,82.131,94.669,80.357,94.669z M80.357,86.268c-1.773,0-3.213-1.438-3.213-3.212s1.439-3.212,3.213-3.212
		s3.213,1.438,3.213,3.212S82.131,86.268,80.357,86.268z M80.357,77.825c-1.773,0-3.213-1.438-3.213-3.212s1.439-3.212,3.213-3.212
		s3.213,1.438,3.213,3.212S82.131,77.825,80.357,77.825z M80.357,68.848c-1.773,0-3.213-1.438-3.213-3.212
		c0-1.773,1.439-3.212,3.213-3.212s3.213,1.438,3.213,3.212C83.57,67.41,82.131,68.848,80.357,68.848z M80.357,60.447
		c-1.773,0-3.213-1.438-3.213-3.212c0-1.774,1.439-3.212,3.213-3.212s3.213,1.438,3.213,3.212
		C83.57,59.009,82.131,60.447,80.357,60.447z"/>
	<circle cx="44.633" cy="20.121" r="1.72"/>
	<circle cx="49.695" cy="20.121" r="1.168"/>
</g>
</svg>
