<?xml version="1.0" encoding="utf-8"?>
<!-- Generator: Adobe Illustrator 16.0.0, SVG Export Plug-In . SVG Version: 6.00 Build 0)  -->
<!DOCTYPE svg PUBLIC "-//W3C//DTD SVG 1.1//EN" "http://www.w3.org/Graphics/SVG/1.1/DTD/svg11.dtd">
<svg version="1.1" id="Layer_1" xmlns="http://www.w3.org/2000/svg" xmlns:xlink="http://www.w3.org/1999/xlink" x="0px" y="0px"
	 width="126px" height="126px" viewBox="0 0 126 126" enable-background="new 0 0 126 126" xml:space="preserve">
<path d="M85.167,17.833H40.833c-2.206,0-4,1.794-4,4v82.333c0,2.206,1.794,4,4,4h10.333v0.024h24.667v-0.024h9.333
	c2.206,0,4-1.794,4-4V21.833C89.167,19.628,87.372,17.833,85.167,17.833z M63.561,42.903c0.391-0.458,1.051-0.798,1.595-0.82
	c0.07,0.635-0.185,1.272-0.563,1.73c-0.378,0.457-0.999,0.814-1.607,0.767C62.903,43.958,63.211,43.31,63.561,42.903z
	 M59.042,46.087c0.474-0.824,1.322-1.344,2.242-1.358c0.699-0.013,1.36,0.471,1.787,0.471c0.428,0,1.23-0.582,2.074-0.496
	c0.354,0.014,1.344,0.142,1.981,1.073c-0.05,0.033-1.183,0.691-1.169,2.063c0.014,1.639,1.438,2.184,1.454,2.191
	c-0.013,0.038-0.228,0.777-0.75,1.541c-0.453,0.66-0.92,1.317-1.659,1.331c-0.726,0.014-0.959-0.431-1.789-0.431
	c-0.829,0-1.088,0.417-1.774,0.444c-0.712,0.026-1.255-0.713-1.71-1.372C58.798,50.201,58.087,47.745,59.042,46.087z
	 M73.833,107.441H52.167v-6.274h21.666V107.441z"/>
</svg>
