<?xml version="1.0" encoding="utf-8"?>
<!-- Generator: Adobe Illustrator 16.0.0, SVG Export Plug-In . SVG Version: 6.00 Build 0)  -->
<!DOCTYPE svg PUBLIC "-//W3C//DTD SVG 1.1//EN" "http://www.w3.org/Graphics/SVG/1.1/DTD/svg11.dtd">
<svg version="1.1" id="Layer_1" xmlns="http://www.w3.org/2000/svg" xmlns:xlink="http://www.w3.org/1999/xlink" x="0px" y="0px"
	 width="126px" height="126px" viewBox="0 0 126 126" enable-background="new 0 0 126 126" xml:space="preserve">
<path d="M82.375,16.801h-38.75c-1.104,0-2,0.896-2,2v89.25c0,1.104,0.896,2,2,2h38.75c1.104,0,2-0.896,2-2v-89.25
	C84.375,17.696,83.479,16.801,82.375,16.801z M63,100.092c-8.284,0-15-6.716-15-15s6.716-15,15-15s15,6.716,15,15
	S71.284,100.092,63,100.092z M80.25,62.051h-34.5v-40.75h34.5V62.051z M70.5,84.926c0,4.142-3.357,7.5-7.5,7.5s-7.5-3.358-7.5-7.5
	s3.357-7.5,7.5-7.5S70.5,80.784,70.5,84.926z"/>
</svg>
