<?xml version="1.0" encoding="utf-8"?>
<!-- Generator: Adobe Illustrator 16.0.0, SVG Export Plug-In . SVG Version: 6.00 Build 0)  -->
<!DOCTYPE svg PUBLIC "-//W3C//DTD SVG 1.1//EN" "http://www.w3.org/Graphics/SVG/1.1/DTD/svg11.dtd">
<svg version="1.1" id="Layer_1" xmlns="http://www.w3.org/2000/svg" xmlns:xlink="http://www.w3.org/1999/xlink" x="0px" y="0px"
	 width="126px" height="126px" viewBox="0 0 126 126" enable-background="new 0 0 126 126" xml:space="preserve">
<path d="M89.833,108.875H36.167c-1.93,0-3.5-1.57-3.5-3.5V20.709c0-1.93,1.57-3.5,3.5-3.5h53.666c1.93,0,3.5,1.57,3.5,3.5v84.666
	C93.333,107.305,91.763,108.875,89.833,108.875z M36.167,18.209c-1.378,0-2.5,1.121-2.5,2.5v84.666c0,1.378,1.122,2.5,2.5,2.5
	h53.666c1.378,0,2.5-1.122,2.5-2.5V20.709c0-1.379-1.122-2.5-2.5-2.5H36.167z M60.881,56.79c-1.324,0-2.194-1.259-2.771-2.093
	c-1.476-2.129-2.314-5.66-0.962-8.008c0.736-1.279,2.075-2.088,3.495-2.109h0.045c0.625,0,1.208,0.23,1.676,0.416
	c0.045,0.019,0.09,0.036,0.135,0.054l-0.014-0.108c-0.138-1.047,0.377-2.075,0.905-2.688c0.621-0.727,1.667-1.26,2.542-1.296
	l0.467-0.02l0.051,0.465c0.103,0.938-0.219,1.938-0.883,2.741c-0.132,0.16-0.277,0.307-0.433,0.439
	c0.273-0.047,0.564-0.066,0.854-0.036c0.574,0.022,2.085,0.237,3.075,1.685l0.289,0.422l-0.428,0.279
	c-0.341,0.213-1.388,0.975-1.374,2.401c0.015,1.804,1.506,2.471,1.676,2.541l0.434,0.179l-0.146,0.446
	c-0.113,0.36-0.441,1.284-1.088,2.231c-0.615,0.898-1.381,2.016-2.674,2.039c-0.001,0-0.001,0-0.002,0
	c-0.617,0-1.008-0.169-1.353-0.318c-0.335-0.145-0.625-0.271-1.102-0.271c-0.507,0-0.813,0.13-1.168,0.282
	c-0.335,0.143-0.715,0.305-1.242,0.325C60.882,56.79,60.882,56.79,60.881,56.79z M60.688,45.08l-0.028,0.5
	c-1.07,0.016-2.083,0.633-2.645,1.609c-1.218,2.114-0.197,5.33,0.917,6.939c0.582,0.842,1.206,1.662,1.879,1.662
	c0.375-0.014,0.617-0.117,0.921-0.246c0.398-0.17,0.849-0.362,1.56-0.362c0.684,0,1.117,0.188,1.5,0.353
	c0.306,0.133,0.547,0.237,0.904,0.237c0.757-0.015,1.265-0.675,1.902-1.605c0.408-0.597,0.672-1.182,0.825-1.581
	c-0.657-0.392-1.859-1.365-1.875-3.242c-0.015-1.483,0.801-2.435,1.382-2.922c-0.712-0.738-1.621-0.86-2.014-0.877
	c-0.092-0.008-0.154-0.012-0.216-0.012c-0.527,0-1.061,0.211-1.532,0.396c-0.402,0.158-0.749,0.295-1.072,0.295
	c-0.349,0-0.715-0.145-1.102-0.299c-0.409-0.162-0.873-0.346-1.307-0.346V45.08z M65.447,42.057
	c-0.479,0.154-0.973,0.469-1.298,0.85c-0.291,0.336-0.598,0.873-0.67,1.437c0.476-0.104,0.965-0.409,1.317-0.835
	C65.151,43.077,65.379,42.563,65.447,42.057z"/>
</svg>
