<?xml version="1.0" encoding="utf-8"?>
<!-- Generator: Adobe Illustrator 16.0.0, SVG Export Plug-In . SVG Version: 6.00 Build 0)  -->
<!DOCTYPE svg PUBLIC "-//W3C//DTD SVG 1.1//EN" "http://www.w3.org/Graphics/SVG/1.1/DTD/svg11.dtd">
<svg version="1.1" id="Layer_1" xmlns="http://www.w3.org/2000/svg" xmlns:xlink="http://www.w3.org/1999/xlink" x="0px" y="0px"
	 width="126px" height="126px" viewBox="0 0 126 126" enable-background="new 0 0 126 126" xml:space="preserve">
<path d="M120.184,94.482h-6.816c0.59-0.827,0.946-1.833,0.946-2.925V32.875c0-2.79-2.27-5.059-5.06-5.059H16.68
	c-2.789,0-5.059,2.27-5.059,5.059v58.682c0,1.115,0.374,2.138,0.987,2.975H5.727c0,0-0.309,0.314,0.506,1.128
	c2.311,2.311,7.502,2.511,7.502,2.511v-0.006c0,0,97.234,0.024,97.342,0.017c5.42,0,7.17-1.625,8.602-2.573
	C120.742,94.545,120.184,94.482,120.184,94.482z M69.468,95.717H56.441v-0.885h13.026V95.717z M110.58,90.394H15.205V31.227h95.375
	V90.394z"/>
</svg>
