<?xml version="1.0" encoding="utf-8"?>
<!-- Generator: Adobe Illustrator 16.0.0, SVG Export Plug-In . SVG Version: 6.00 Build 0)  -->
<!DOCTYPE svg PUBLIC "-//W3C//DTD SVG 1.1//EN" "http://www.w3.org/Graphics/SVG/1.1/DTD/svg11.dtd">
<svg version="1.1" id="Layer_1" xmlns="http://www.w3.org/2000/svg" xmlns:xlink="http://www.w3.org/1999/xlink" x="0px" y="0px"
	 width="126px" height="126px" viewBox="0 0 126 126" enable-background="new 0 0 126 126" xml:space="preserve">
<g>
	<path d="M121.671,94.894l-0.128-0.309h-0.334c-0.145,0-0.235,0.046-0.342,0.136h-7.161c0.366-0.745,0.556-1.558,0.556-2.391v-58
		c0-3.033-2.467-5.5-5.5-5.5h-91.5c-3.033,0-5.5,2.467-5.5,5.5v58c0,0.846,0.199,1.671,0.579,2.428h-0.278v0.014H5.133
		c-0.106-0.092-0.197-0.137-0.342-0.137H4.458L4.33,94.943c-0.087,0.211-0.116,0.281,0.141,0.57l-0.002,0.002l0.029,0.029
		c0.126,0.139,0.314,0.326,0.584,0.597l0.078,0.063c1.817,1.203,11.535,1.503,12.637,1.533l0.514,0.008v-0.014
		c34.108-0.01,90.694-0.026,90.766-0.032l0.121,0.001c2.169,0,10.036-0.482,11.643-1.546l0.078-0.063
		c0.271-0.271,0.458-0.458,0.584-0.598l0.029-0.027l-0.002-0.003C121.787,95.174,121.758,95.104,121.671,94.894z M12.762,34.33
		c0-2.481,2.019-4.5,4.5-4.5h91.5c2.481,0,4.5,2.019,4.5,4.5v58c0,0.861-0.261,1.694-0.738,2.428h-7.399H70.188h-14.5H25.719h-3.063
		h-7.531h-1.618c-0.48-0.736-0.745-1.566-0.745-2.428V34.33z M109.198,96.701l-0.126-0.001c-0.579,0.007-90.354,0.032-91.261,0.032
		h-0.196c-3.44-0.102-8.395-0.424-10.749-0.961h7.359l-0.01-0.014h-1.632V95.75h1.626l0.006,0.008h42.222V95.75h0.25v0.008h12.625
		V95.75h0.25v0.008h44.851V95.75h2.274v-0.029h2.461C116.685,96.306,111.411,96.701,109.198,96.701z"/>
	<polygon points="69.563,96.32 69.563,95.758 69.313,95.758 69.313,96.07 56.688,96.07 56.688,95.758 56.438,95.758 56.438,96.32 	
		"/>
	<path d="M109.875,32.84h-93.75v58.375h93.75V32.84z M108.875,90.215h-91.75V33.84h91.75V90.215z"/>
</g>
</svg>
