<?xml version="1.0" encoding="utf-8"?>
<!-- Generator: Adobe Illustrator 16.0.0, SVG Export Plug-In . SVG Version: 6.00 Build 0)  -->
<!DOCTYPE svg PUBLIC "-//W3C//DTD SVG 1.1//EN" "http://www.w3.org/Graphics/SVG/1.1/DTD/svg11.dtd">
<svg version="1.1" id="Layer_1" xmlns="http://www.w3.org/2000/svg" xmlns:xlink="http://www.w3.org/1999/xlink" x="0px" y="0px"
	 width="126px" height="126px" viewBox="0 0 126 126" enable-background="new 0 0 126 126" xml:space="preserve">
<path d="M121.064,95.18h-8.238c0.583-0.818,0.936-1.812,0.936-2.891v-58c0-2.757-2.243-5-5-5h-91.5c-2.757,0-5,2.243-5,5v58
	c0,1.103,0.37,2.113,0.977,2.941H4.936c0,0-0.552-0.535,0.5,0.517c1.75,1.159,12.375,0.95,12.375,0.95v-0.006
	c0,0,91.162-0.025,91.27-0.032c2.335,0.018,10.069-0.025,11.484-0.962C121.616,94.645,121.064,95.18,121.064,95.18z M69.438,94.424
	H56.563v-0.875h12.875V94.424z M109.375,90.674h-92.75V33.299h92.75V90.674z"/>
</svg>
