<?xml version="1.0" encoding="utf-8"?>
<!-- Generator: Adobe Illustrator 16.0.0, SVG Export Plug-In . SVG Version: 6.00 Build 0)  -->
<!DOCTYPE svg PUBLIC "-//W3C//DTD SVG 1.1//EN" "http://www.w3.org/Graphics/SVG/1.1/DTD/svg11.dtd">
<svg version="1.1" id="Layer_1" xmlns="http://www.w3.org/2000/svg" xmlns:xlink="http://www.w3.org/1999/xlink" x="0px" y="0px"
	 width="126px" height="126px" viewBox="0 0 126 126" enable-background="new 0 0 126 126" xml:space="preserve">
<path d="M119.348,100.411H6.652c-1.017,0-1.844-0.827-1.844-1.845v-3.3h48.259l0.107,0.356c0.179,0.596,0.713,0.996,1.328,0.996
	h16.995c0.615,0,1.149-0.4,1.328-0.996l0.107-0.356h48.259v3.3C121.191,99.584,120.364,100.411,119.348,100.411z M5.809,96.267v2.3
	c0,0.466,0.378,0.845,0.844,0.845h112.695c0.465,0,0.844-0.379,0.844-0.845v-2.3H73.646c-0.394,0.822-1.217,1.353-2.148,1.353
	H54.502c-0.932,0-1.754-0.53-2.148-1.353H5.809z M109.667,93.589H16.333c-2.206,0-4-1.794-4-4v-60c0-2.206,1.794-4,4-4h93.333
	c2.206,0,4,1.794,4,4v60C113.667,91.795,111.872,93.589,109.667,93.589z M16.333,26.589c-1.654,0-3,1.346-3,3v60
	c0,1.654,1.346,3,3,3h93.333c1.654,0,3-1.346,3-3v-60c0-1.654-1.346-3-3-3H16.333z M109.667,90.589H16.333c-0.551,0-1-0.448-1-1v-60
	c0-0.552,0.449-1,1-1h93.333c0.551,0,1,0.448,1,1v60C110.667,90.141,110.218,90.589,109.667,90.589z M16.334,29.589l0,60h93.333v-60
	H16.334L16.334,29.589z"/>
</svg>
