<?xml version="1.0" encoding="utf-8"?>
<!-- Generator: Adobe Illustrator 16.0.0, SVG Export Plug-In . SVG Version: 6.00 Build 0)  -->
<!DOCTYPE svg PUBLIC "-//W3C//DTD SVG 1.1//EN" "http://www.w3.org/Graphics/SVG/1.1/DTD/svg11.dtd">
<svg version="1.1" id="Layer_1" xmlns="http://www.w3.org/2000/svg" xmlns:xlink="http://www.w3.org/1999/xlink" x="0px" y="0px"
	 width="126px" height="126px" viewBox="0 0 126 126" enable-background="new 0 0 126 126" xml:space="preserve">
<path d="M98.413,97.51H27.586c-3.145,0-5.704-2.559-5.704-5.703v-57.53c0-3.145,2.559-5.703,5.704-5.703h70.827
	c3.145,0,5.704,2.559,5.704,5.703v57.53C104.117,94.951,101.558,97.51,98.413,97.51z M27.586,29.573
	c-2.594,0-4.704,2.11-4.704,4.703v57.53c0,2.594,2.11,4.703,4.704,4.703h70.827c2.594,0,4.704-2.109,4.704-4.703v-57.53
	c0-2.593-2.11-4.703-4.704-4.703H27.586z M63,92.59c-16.293,0-29.548-13.256-29.548-29.549S46.707,33.494,63,33.494
	s29.548,13.254,29.548,29.547S79.293,92.59,63,92.59z M63,34.494c-15.741,0-28.548,12.807-28.548,28.547
	C34.452,78.783,47.259,91.59,63,91.59s28.548-12.807,28.548-28.549C91.548,47.301,78.741,34.494,63,34.494z M63,83.982
	c-11.547,0-20.941-9.394-20.941-20.941C42.059,51.494,51.453,42.1,63,42.1s20.941,9.395,20.941,20.941
	C83.941,74.589,74.547,83.982,63,83.982z M63,43.1c-10.996,0-19.941,8.946-19.941,19.941c0,10.996,8.946,19.941,19.941,19.941
	s19.941-8.945,19.941-19.941C82.941,52.046,73.996,43.1,63,43.1z M53.389,68.779V57.305l7.701,5.736L53.389,68.779z M54.389,59.297
	v7.49l5.027-3.746L54.389,59.297z M72.611,68.352h-3.536V57.732h3.536V68.352z M70.075,67.352h1.536v-8.619h-1.536V67.352z
	 M67.539,68.352h-3.536V57.732h3.536V68.352z M65.003,67.352h1.536v-8.619h-1.536V67.352z"/>
</svg>
