<?xml version="1.0" encoding="utf-8"?>
<!-- Generator: Adobe Illustrator 16.0.0, SVG Export Plug-In . SVG Version: 6.00 Build 0)  -->
<!DOCTYPE svg PUBLIC "-//W3C//DTD SVG 1.1//EN" "http://www.w3.org/Graphics/SVG/1.1/DTD/svg11.dtd">
<svg version="1.1" id="Layer_1" xmlns="http://www.w3.org/2000/svg" xmlns:xlink="http://www.w3.org/1999/xlink" x="0px" y="0px"
	 width="126px" height="126px" viewBox="0 0 126 126" enable-background="new 0 0 126 126" xml:space="preserve">
<path d="M83.39,17.98H42.61c-1.527,0-2.765,1.237-2.765,2.765v85.361c0,1.527,1.238,2.765,2.765,2.765h40.78
	c1.527,0,2.765-1.237,2.765-2.765V20.745C86.155,19.218,84.917,17.98,83.39,17.98z M57.902,22.3h10.195
	c0.382,0,0.691,0.31,0.691,0.691s-0.309,0.691-0.691,0.691H57.902c-0.382,0-0.691-0.31-0.691-0.691S57.521,22.3,57.902,22.3z
	 M63,105.358c-1.273,0-2.305-1.032-2.305-2.305s1.032-2.305,2.305-2.305s2.304,1.032,2.304,2.305S64.273,105.358,63,105.358z
	 M82.008,97.467H43.992V29.385h38.016V97.467z"/>
</svg>
