<?xml version="1.0" encoding="utf-8"?>
<!-- Generator: Adobe Illustrator 16.0.0, SVG Export Plug-In . SVG Version: 6.00 Build 0)  -->
<!DOCTYPE svg PUBLIC "-//W3C//DTD SVG 1.1//EN" "http://www.w3.org/Graphics/SVG/1.1/DTD/svg11.dtd">
<svg version="1.1" id="Layer_1" xmlns="http://www.w3.org/2000/svg" xmlns:xlink="http://www.w3.org/1999/xlink" x="0px" y="0px"
	 width="126px" height="126px" viewBox="0 0 126 126" enable-background="new 0 0 126 126" xml:space="preserve">
<path d="M86.33,111.91H39.67c-3.492,0-6.333-2.841-6.333-6.333V20.423c0-3.492,2.841-6.333,6.333-6.333h46.66
	c3.492,0,6.333,2.841,6.333,6.333v85.154C92.663,109.069,89.822,111.91,86.33,111.91z M39.67,15.09c-2.94,0-5.333,2.393-5.333,5.333
	v85.154c0,2.94,2.392,5.333,5.333,5.333h46.66c2.94,0,5.333-2.393,5.333-5.333V20.423c0-2.94-2.392-5.333-5.333-5.333H39.67z
	 M63,108.63c-1.24,0-2.25-1.01-2.25-2.25s1.009-2.25,2.25-2.25s2.25,1.01,2.25,2.25S64.24,108.63,63,108.63z M63,105.13
	c-0.689,0-1.25,0.561-1.25,1.25s0.561,1.25,1.25,1.25s1.25-0.561,1.25-1.25S63.689,105.13,63,105.13z M87.997,103.308H38.003V22.692
	h49.994V103.308z M39.003,102.308h47.994V23.692H39.003V102.308z M68.994,20.126h-9.04c-0.54,0-0.979-0.439-0.979-0.979
	s0.439-0.979,0.979-0.979h9.04c0.54,0,0.979,0.439,0.979,0.979S69.534,20.126,68.994,20.126z M59.954,18.667
	c-0.264,0-0.479,0.215-0.479,0.479s0.215,0.479,0.479,0.479h9.04c0.264,0,0.479-0.215,0.479-0.479s-0.215-0.479-0.479-0.479H59.954z
	 M57.151,20.153c-0.62,0-1.125-0.505-1.125-1.125s0.505-1.125,1.125-1.125s1.125,0.505,1.125,1.125S57.771,20.153,57.151,20.153z
	 M57.151,18.403c-0.345,0-0.625,0.28-0.625,0.625s0.28,0.625,0.625,0.625s0.625-0.28,0.625-0.625S57.496,18.403,57.151,18.403z"/>
</svg>
