<?xml version="1.0" encoding="utf-8"?>
<!-- Generator: Adobe Illustrator 16.0.0, SVG Export Plug-In . SVG Version: 6.00 Build 0)  -->
<!DOCTYPE svg PUBLIC "-//W3C//DTD SVG 1.1//EN" "http://www.w3.org/Graphics/SVG/1.1/DTD/svg11.dtd">
<svg version="1.1" id="Layer_1" xmlns="http://www.w3.org/2000/svg" xmlns:xlink="http://www.w3.org/1999/xlink" x="0px" y="0px"
	 width="126px" height="126px" viewBox="0 0 126 126" enable-background="new 0 0 126 126" xml:space="preserve">
<path d="M86.33,15.016H39.67c-3.216,0-5.833,2.616-5.833,5.833v85.155c0,3.216,2.616,5.833,5.833,5.833h46.66
	c3.216,0,5.833-2.616,5.833-5.833V20.848C92.163,17.632,89.546,15.016,86.33,15.016z M59.954,18.952h9.04
	c0.404,0,0.729,0.327,0.729,0.729c0,0.403-0.326,0.729-0.729,0.729h-9.04c-0.402,0-0.729-0.326-0.729-0.729
	C59.225,19.279,59.552,18.952,59.954,18.952z M57.151,18.689c0.483,0,0.875,0.392,0.875,0.875c0,0.483-0.392,0.875-0.875,0.875
	s-0.875-0.392-0.875-0.875C56.276,19.081,56.668,18.689,57.151,18.689z M63,108.556c-0.967,0-1.75-0.783-1.75-1.75
	s0.783-1.75,1.75-1.75c0.966,0,1.75,0.783,1.75,1.75S63.966,108.556,63,108.556z M87.497,103.233H38.503V23.619h48.994V103.233z"/>
</svg>
