<?xml version="1.0" encoding="utf-8"?>
<!-- Generator: Adobe Illustrator 16.0.0, SVG Export Plug-In . SVG Version: 6.00 Build 0)  -->
<!DOCTYPE svg PUBLIC "-//W3C//DTD SVG 1.1//EN" "http://www.w3.org/Graphics/SVG/1.1/DTD/svg11.dtd">
<svg version="1.1" id="Layer_1" xmlns="http://www.w3.org/2000/svg" xmlns:xlink="http://www.w3.org/1999/xlink" x="0px" y="0px"
	 width="126px" height="126px" viewBox="0 0 126 126" enable-background="new 0 0 126 126" xml:space="preserve">
<path d="M82.822,15.238H43.177c-3.561,0-6.446,2.887-6.446,6.446v83.482c0,3.561,2.886,6.447,6.446,6.447h39.646
	c3.562,0,6.447-2.886,6.447-6.447V21.685C89.27,18.125,86.384,15.238,82.822,15.238z M56.438,19.051h13.125
	c0.311,0,0.563,0.252,0.563,0.563s-0.252,0.563-0.563,0.563H56.438c-0.311,0-0.563-0.252-0.563-0.563S56.127,19.051,56.438,19.051z
	 M67.5,108.342h-9c-1.428,0-2.584-1.156-2.584-2.583s1.156-2.583,2.584-2.583h9c1.428,0,2.584,1.156,2.584,2.583
	S68.928,108.342,67.5,108.342z M86.539,101.138H39.461V25.714h47.078V101.138z"/>
</svg>
