<?xml version="1.0" encoding="utf-8"?>
<!-- Generator: Adobe Illustrator 16.0.0, SVG Export Plug-In . SVG Version: 6.00 Build 0)  -->
<!DOCTYPE svg PUBLIC "-//W3C//DTD SVG 1.1//EN" "http://www.w3.org/Graphics/SVG/1.1/DTD/svg11.dtd">
<svg version="1.1" id="Layer_1" xmlns="http://www.w3.org/2000/svg" xmlns:xlink="http://www.w3.org/1999/xlink" x="0px" y="0px"
	 width="126px" height="126px" viewBox="0 0 126 126" enable-background="new 0 0 126 126" xml:space="preserve">
<path d="M81.5,116h-37c-5.79,0-10.5-4.71-10.5-10.5v-85C34,14.71,38.71,10,44.5,10h37C87.29,10,92,14.71,92,20.5v85
	C92,111.29,87.29,116,81.5,116z M44.5,11c-5.238,0-9.5,4.262-9.5,9.5v85c0,5.238,4.262,9.5,9.5,9.5h37c5.238,0,9.5-4.262,9.5-9.5
	v-85c0-5.238-4.262-9.5-9.5-9.5H44.5z M63,113.167c-2.79,0-5.068-2.19-5.187-4.987c0.026-2.862,2.353-5.169,5.187-5.169
	s5.161,2.307,5.187,5.143C68.068,110.977,65.79,113.167,63,113.167z M63,104.011c-2.288,0-4.166,1.862-4.187,4.152
	c0.096,2.233,1.935,4.004,4.187,4.004s4.091-1.771,4.188-4.03C67.166,105.873,65.288,104.011,63,104.011z M79.988,108.66H68.197
	l-0.018-0.481c-0.13-3.551-2.761-4.815-5.18-4.815s-5.049,1.265-5.18,4.815l-0.018,0.481H46.012c-5.339,0-9.683-4.984-9.683-11.11
	v-7.357l0.982,3.594c1.016,3.718,3.945,6.216,7.288,6.216h36.802c3.343,0,6.272-2.498,7.288-6.216l0.982-3.594v7.357
	C89.671,103.676,85.328,108.66,79.988,108.66z M69.146,107.66h10.842c4.788,0,8.683-4.535,8.683-10.11v-1.086
	c-1.561,2.789-4.265,4.538-7.271,4.538H44.599c-3.006,0-5.709-1.749-7.271-4.538v1.086c0,5.575,3.895,10.11,8.683,10.11h10.842
	c0.324-3.234,2.69-5.297,6.146-5.297S68.822,104.426,69.146,107.66z M81.849,100.832H44.151c-4.313,0-7.822-3.476-7.822-7.748
	V27.168h53.343v65.916C89.671,97.356,86.162,100.832,81.849,100.832z M37.329,28.168v64.916c0,3.721,3.061,6.748,6.822,6.748h37.698
	c3.762,0,6.822-3.027,6.822-6.748V28.168H37.329z M89.671,28.168H36.329v-0.945c0-5.339,4.344-9.683,9.683-9.683h33.977
	c5.339,0,9.683,4.344,9.683,9.683V28.168z M37.329,27.168h51.343c-0.029-4.763-3.914-8.628-8.683-8.628H46.012
	C41.242,18.54,37.358,22.405,37.329,27.168z M58.917,22.334c-1.103,0-2-0.897-2-2s0.897-2,2-2s2,0.897,2,2
	S60.02,22.334,58.917,22.334z M58.917,19.334c-0.551,0-1,0.448-1,1s0.449,1,1,1s1-0.448,1-1S59.468,19.334,58.917,19.334z
	 M63.083,22.334c-1.103,0-2-0.897-2-2s0.897-2,2-2s2,0.897,2,2S64.187,22.334,63.083,22.334z M63.083,19.334c-0.551,0-1,0.448-1,1
	s0.449,1,1,1s1-0.448,1-1S63.635,19.334,63.083,19.334z M67.083,22.334c-1.103,0-2-0.897-2-2s0.897-2,2-2s2,0.897,2,2
	S68.187,22.334,67.083,22.334z M67.083,19.334c-0.551,0-1,0.448-1,1s0.449,1,1,1s1-0.448,1-1S67.635,19.334,67.083,19.334z"/>
</svg>
