<?xml version="1.0" encoding="utf-8"?>
<!-- Generator: Adobe Illustrator 16.0.0, SVG Export Plug-In . SVG Version: 6.00 Build 0)  -->
<!DOCTYPE svg PUBLIC "-//W3C//DTD SVG 1.1//EN" "http://www.w3.org/Graphics/SVG/1.1/DTD/svg11.dtd">
<svg version="1.1" id="Layer_1" xmlns="http://www.w3.org/2000/svg" xmlns:xlink="http://www.w3.org/1999/xlink" x="0px" y="0px"
	 width="126px" height="126px" viewBox="0 0 126 126" enable-background="new 0 0 126 126" xml:space="preserve">
<path d="M86.685,114H39.315c-2.453,0-4.449-1.996-4.449-4.45v-93.1c0-2.454,1.996-4.45,4.449-4.45h47.369
	c2.453,0,4.449,1.996,4.449,4.45v93.1C91.134,112.004,89.138,114,86.685,114z M39.315,13c-1.902,0-3.449,1.548-3.449,3.45v93.1
	c0,1.902,1.547,3.45,3.449,3.45h47.369c1.902,0,3.449-1.548,3.449-3.45v-93.1c0-1.902-1.547-3.45-3.449-3.45H39.315z M63,109.375
	c-2.411,0-4.373-1.963-4.373-4.375s1.962-4.375,4.373-4.375s4.373,1.963,4.373,4.375S65.411,109.375,63,109.375z M63,101.625
	c-1.86,0-3.373,1.514-3.373,3.375s1.513,3.375,3.373,3.375s3.373-1.514,3.373-3.375S64.86,101.625,63,101.625z M88.134,98.859
	H37.866V24.281h50.268V98.859z M38.866,97.859h48.268V25.281H38.866V97.859z"/>
</svg>
