<?xml version="1.0" encoding="utf-8"?>
<!-- Generator: Adobe Illustrator 16.0.0, SVG Export Plug-In . SVG Version: 6.00 Build 0)  -->
<!DOCTYPE svg PUBLIC "-//W3C//DTD SVG 1.1//EN" "http://www.w3.org/Graphics/SVG/1.1/DTD/svg11.dtd">
<svg version="1.1" id="Layer_1" xmlns="http://www.w3.org/2000/svg" xmlns:xlink="http://www.w3.org/1999/xlink" x="0px" y="0px"
	 width="126px" height="126px" viewBox="0 0 126 126" enable-background="new 0 0 126 126" xml:space="preserve">
<path d="M66.328,117.194h-6.558v-2.117l3.279-2.379l3.278,2.379V117.194z M60.771,116.194h4.558v-0.607l-2.278-1.652l-2.279,1.652
	V116.194z M62.995,121.932l-0.931-0.01c-3.71-0.036-7.914-0.078-11.649-0.244c-1.899-0.084-3.813-0.352-5.662-0.609l-1.359-0.188
	c-1.245-0.167-2.533-0.339-3.756-0.726c-4.121-1.298-6.246-4.106-6.314-8.349l-0.061-98.777c0.361-3.063,2.107-5.272,5.194-6.626
	c1.792-0.784,3.817-1.251,6.373-1.468l0.835-0.071c3.579-0.304,7.28-0.619,10.932-0.726c0.188-0.006,0.38-0.009,0.571-0.011
	l2.3-0.06l-1.543,0.974l0.025,0.104h10.198l-1.522-0.968l1.831-0.057l0.938,0.018c3.648,0.106,7.347,0.421,10.924,0.726l0.842,0.071
	c2.556,0.217,4.58,0.684,6.372,1.468c3.088,1.354,4.834,3.563,5.19,6.567l0.015,98.828c-0.072,4.353-2.073,7.084-6.117,8.356
	c-1.224,0.387-2.514,0.56-3.762,0.727l-0.112,0.015c-3.289,0.444-5.782,0.699-7.622,0.781c-3.833,0.171-7.732,0.21-11.504,0.248
	L62.995,121.932z M56.892,5.132c-0.088,0.002-0.176,0.004-0.264,0.007c-3.626,0.105-7.313,0.419-10.878,0.723l-0.836,0.07
	c-2.442,0.208-4.367,0.648-6.056,1.388c-2.777,1.218-4.282,3.105-4.6,5.77l0.064,98.71c0.062,3.809,1.898,6.232,5.615,7.403
	c1.141,0.359,2.385,0.526,3.588,0.688l1.365,0.188c1.826,0.255,3.715,0.519,5.568,0.602c3.718,0.164,7.913,0.206,11.614,0.243
	l0.921,0.009l0.615-0.006c3.763-0.038,7.653-0.077,11.469-0.246c1.811-0.081,4.274-0.334,7.534-0.773l0.112-0.016
	c1.205-0.161,2.452-0.328,3.594-0.688c3.631-1.144,5.353-3.498,5.418-7.412l-0.011-98.761c-0.313-2.604-1.817-4.491-4.596-5.71
	c-1.688-0.739-3.612-1.18-6.055-1.388L80.233,5.86c-3.563-0.303-7.247-0.616-10.869-0.722l-0.157-0.003
	c-0.026,0.561-0.491,1.01-1.059,1.01H57.95C57.381,6.146,56.916,5.695,56.892,5.132z M89.783,111.484H36.315V14.473h53.468V111.484z
	 M37.315,110.484h51.468V15.473H37.315V110.484z"/>
</svg>
