<?xml version="1.0" encoding="utf-8"?>
<!-- Generator: Adobe Illustrator 16.0.0, SVG Export Plug-In . SVG Version: 6.00 Build 0)  -->
<!DOCTYPE svg PUBLIC "-//W3C//DTD SVG 1.1//EN" "http://www.w3.org/Graphics/SVG/1.1/DTD/svg11.dtd">
<svg version="1.1" id="Layer_1" xmlns="http://www.w3.org/2000/svg" xmlns:xlink="http://www.w3.org/1999/xlink" x="0px" y="0px"
	 width="126px" height="126px" viewBox="0 0 126 126" enable-background="new 0 0 126 126" xml:space="preserve">
<path d="M34,13.415v4.172v90.828v4.172c19.097,3.148,39.467,3.06,58,0v-4.172V17.587v-4.172C72.903,10.267,52.533,10.355,34,13.415z
	 M82.25,15.501c0.69,0,1.25,0.56,1.25,1.25s-0.56,1.25-1.25,1.25S81,17.441,81,16.751S81.56,15.501,82.25,15.501z M57.875,16.501
	h10.25v0.75h-10.25V16.501z M52.709,105.999c-0.69-0.05-1.358-0.103-1.982-0.159l-9.458-0.389c-0.573,0-1.039-0.02-1.039-0.593
	c0-0.574,0.466-1.039,1.039-1.039h11.439V105.999z M72.623,106.038c-2.728,0.182-5.946,0.748-9.698,0.748
	c-3.693,0-6.861-0.563-9.548-0.74v-2.227h19.246V106.038z M84.73,105.451l-9.607,0.393c-0.58,0.051-1.197,0.1-1.833,0.146v-2.171
	H84.73c0.574,0,1.039,0.465,1.039,1.039C85.769,105.432,85.304,105.451,84.73,105.451z M88.5,99.251h-51v-74h51V99.251z"/>
</svg>
