<?xml version="1.0" encoding="utf-8"?>
<!-- Generator: Adobe Illustrator 16.0.0, SVG Export Plug-In . SVG Version: 6.00 Build 0)  -->
<!DOCTYPE svg PUBLIC "-//W3C//DTD SVG 1.1//EN" "http://www.w3.org/Graphics/SVG/1.1/DTD/svg11.dtd">
<svg version="1.1" id="Layer_1" xmlns="http://www.w3.org/2000/svg" xmlns:xlink="http://www.w3.org/1999/xlink" x="0px" y="0px"
	 width="126px" height="126px" viewBox="0 0 126 126" enable-background="new 0 0 126 126" xml:space="preserve">
<path d="M63.002,115.414c0,0,0,0-0.001,0c-9.901,0-19.686-0.785-29.083-2.335l-0.418-0.068V12.99l0.418-0.069
	c9.385-1.55,19.168-2.335,29.081-2.335c9.9,0,19.685,0.785,29.083,2.335l0.418,0.068V113.01l-0.418,0.069
	C82.697,114.629,72.913,115.414,63.002,115.414z M34.5,112.161c9.215,1.495,18.802,2.253,28.501,2.253
	c9.709,0,19.295-0.758,28.499-2.253V13.839c-9.215-1.495-18.802-2.253-28.501-2.253c-9.71,0-19.296,0.758-28.499,2.253V112.161z
	 M53.209,106.535l-0.536-0.038c-0.693-0.051-1.364-0.104-1.991-0.16l-9.433-0.387c-0.475,0.017-1.519,0-1.519-1.093
	c0-0.849,0.69-1.539,1.539-1.539h11.939V106.535z M41.27,104.318c-0.297,0-0.539,0.242-0.539,0.539
	c0.063,0.093,0.396,0.093,0.539,0.093l9.478,0.389c0.477,0.043,0.963,0.083,1.461,0.121v-1.142H41.27z M62.925,107.285
	c-2.432,0-4.653-0.243-6.613-0.457c-1.049-0.114-2.038-0.223-2.968-0.284l-0.467-0.031v-3.194h20.246v3.187l-0.467,0.031
	c-0.939,0.063-1.937,0.171-2.995,0.286C67.665,107.039,65.403,107.285,62.925,107.285z M53.877,105.58
	c0.806,0.064,1.653,0.157,2.543,0.254c1.935,0.212,4.127,0.451,6.504,0.451c2.424,0,4.657-0.243,6.627-0.457
	c0.899-0.098,1.756-0.19,2.57-0.256v-1.254H53.877V105.58z M72.791,106.527v-3.209H84.73c0.849,0,1.539,0.69,1.539,1.539
	c0,1.093-1.04,1.093-1.539,1.093l-9.586,0.393c-0.559,0.049-1.179,0.098-1.816,0.146L72.791,106.527z M73.791,104.318v1.132
	c0.444-0.034,0.876-0.069,1.289-0.105l9.63-0.395c0.163,0,0.497,0,0.577-0.05c-0.018-0.34-0.259-0.582-0.557-0.582H73.791z
	 M89,99.75H37v-75h52V99.75z M38,98.75h50v-73H38V98.75z M81.563,18.551c-0.827,0-1.5-0.673-1.5-1.5s0.673-1.5,1.5-1.5
	s1.5,0.673,1.5,1.5S82.39,18.551,81.563,18.551z M81.563,16.051c-0.551,0-1,0.448-1,1s0.449,1,1,1s1-0.448,1-1
	S82.114,16.051,81.563,16.051z M67.688,17.801h-10.75v-1.25h10.75V17.801z M57.438,17.301h9.75v-0.25h-9.75V17.301z"/>
</svg>
