<?xml version="1.0" encoding="utf-8"?>
<!-- Generator: Adobe Illustrator 16.0.0, SVG Export Plug-In . SVG Version: 6.00 Build 0)  -->
<!DOCTYPE svg PUBLIC "-//W3C//DTD SVG 1.1//EN" "http://www.w3.org/Graphics/SVG/1.1/DTD/svg11.dtd">
<svg version="1.1" id="Layer_1" xmlns="http://www.w3.org/2000/svg" xmlns:xlink="http://www.w3.org/1999/xlink" x="0px" y="0px"
	 width="126px" height="126px" viewBox="0 0 126 126" enable-background="new 0 0 126 126" xml:space="preserve">
<path d="M86.685,12.926H39.315c-2.178,0-3.949,1.772-3.949,3.95v93.1c0,2.178,1.771,3.95,3.949,3.95h47.369
	c2.178,0,3.949-1.772,3.949-3.95v-93.1C90.634,14.698,88.862,12.926,86.685,12.926z M59.127,105.426c0-2.14,1.732-3.875,3.873-3.875
	c2.143,0,3.873,1.735,3.873,3.875s-1.73,3.875-3.873,3.875C60.859,109.301,59.127,107.566,59.127,105.426z M38.366,98.785V25.207
	h49.268v73.578H38.366z"/>
</svg>
