<?xml version="1.0" encoding="utf-8"?>
<!-- Generator: Adobe Illustrator 16.0.0, SVG Export Plug-In . SVG Version: 6.00 Build 0)  -->
<!DOCTYPE svg PUBLIC "-//W3C//DTD SVG 1.1//EN" "http://www.w3.org/Graphics/SVG/1.1/DTD/svg11.dtd">
<svg version="1.1" id="Layer_1" xmlns="http://www.w3.org/2000/svg" xmlns:xlink="http://www.w3.org/1999/xlink" x="0px" y="0px"
	 width="126px" height="126px" viewBox="0 0 126 126" enable-background="new 0 0 126 126" xml:space="preserve">
<path d="M83.402,110.008H42.598c-2.501,0-4.536-2.034-4.536-4.535V20.275c0-2.5,2.035-4.535,4.536-4.535h40.804
	c2.501,0,4.536,2.035,4.536,4.535v85.197C87.938,107.974,85.903,110.008,83.402,110.008z M42.598,16.74
	c-1.95,0-3.536,1.586-3.536,3.535v85.197c0,1.949,1.586,3.535,3.536,3.535h40.804c1.95,0,3.536-1.586,3.536-3.535V20.275
	c0-1.949-1.586-3.535-3.536-3.535H42.598z M63,106.364c-1.728,0-3.134-1.405-3.134-3.134s1.406-3.134,3.134-3.134
	s3.134,1.405,3.134,3.134S64.728,106.364,63,106.364z M63,101.097c-1.177,0-2.134,0.957-2.134,2.134s0.957,2.134,2.134,2.134
	s2.134-0.957,2.134-2.134S64.177,101.097,63,101.097z M84.057,98.35H41.943V27.398h42.113V98.35z M42.943,97.35h40.113V28.398
	H42.943V97.35z M66.447,22.514h-6.894c-0.507,0-0.92-0.412-0.92-0.92s0.413-0.92,0.92-0.92h6.894c0.507,0,0.92,0.412,0.92,0.92
	S66.954,22.514,66.447,22.514z"/>
</svg>
