<?xml version="1.0" encoding="utf-8"?>
<!-- Generator: Adobe Illustrator 16.0.0, SVG Export Plug-In . SVG Version: 6.00 Build 0)  -->
<!DOCTYPE svg PUBLIC "-//W3C//DTD SVG 1.1//EN" "http://www.w3.org/Graphics/SVG/1.1/DTD/svg11.dtd">
<svg version="1.1" id="Layer_1" xmlns="http://www.w3.org/2000/svg" xmlns:xlink="http://www.w3.org/1999/xlink" x="0px" y="0px"
	 width="126px" height="126px" viewBox="0 0 126 126" enable-background="new 0 0 126 126" xml:space="preserve">
<path d="M109.166,18.463H16.832c-1.93,0-3.5,1.57-3.5,3.5v59c0,0.001,0.002,0.003,0.002,0.005v9.005c0,1.14,0.924,2.063,2.063,2.063
	h36.564c-0.184,4.056-1.082,12.199-5.293,13.984c0,0-1.635,1.516,2.939,1.516h7.83h10.791h7.83c4.572,0,2.939-1.516,2.939-1.516
	c-4.211-1.786-5.109-9.928-5.293-13.984h36.938c1.141,0,2.014-0.923,2.014-2.063V81.06c0.002-0.033,0.01-0.063,0.01-0.097v-59
	C112.666,20.034,111.096,18.463,109.166,18.463z M60.582,84.963c0-1.334,1.082-2.417,2.418-2.417c1.334,0,2.416,1.082,2.416,2.417
	S64.334,87.38,63,87.38C61.664,87.38,60.582,86.298,60.582,84.963z M109.666,78.626H16.332V21.963c0-0.276,0.225-0.5,0.5-0.5h92.334
	c0.275,0,0.5,0.224,0.5,0.5V78.626z"/>
</svg>
