<?xml version="1.0" encoding="utf-8"?>
<!-- Generator: Adobe Illustrator 16.0.0, SVG Export Plug-In . SVG Version: 6.00 Build 0)  -->
<!DOCTYPE svg PUBLIC "-//W3C//DTD SVG 1.1//EN" "http://www.w3.org/Graphics/SVG/1.1/DTD/svg11.dtd">
<svg version="1.1" id="Layer_1" xmlns="http://www.w3.org/2000/svg" xmlns:xlink="http://www.w3.org/1999/xlink" x="0px" y="0px"
	 width="126px" height="126px" viewBox="0 0 126 126" enable-background="new 0 0 126 126" xml:space="preserve">
<g>
	<path d="M98.413,29.032H27.586c-2.873,0-5.204,2.33-5.204,5.203v57.53c0,2.873,2.331,5.203,5.204,5.203h70.827
		c2.874,0,5.204-2.33,5.204-5.203v-57.53C103.617,31.362,101.287,29.032,98.413,29.032z M63,92.048
		c-16.017,0-29.048-13.031-29.048-29.048S46.983,33.952,63,33.952c16.017,0,29.048,13.031,29.048,29.048S79.017,92.048,63,92.048z"
		/>
	<path d="M63,42.559c-11.271,0-20.441,9.17-20.441,20.441S51.729,83.441,63,83.441S83.441,74.271,83.441,63S74.271,42.559,63,42.559
		z M53.889,67.741v-9.482L60.253,63L53.889,67.741z M67.039,67.81h-2.536v-9.619h2.536V67.81z M72.111,67.81h-2.536v-9.619h2.536
		V67.81z"/>
</g>
</svg>
