<?xml version="1.0" encoding="utf-8"?>
<!-- Generator: Adobe Illustrator 16.0.0, SVG Export Plug-In . SVG Version: 6.00 Build 0)  -->
<!DOCTYPE svg PUBLIC "-//W3C//DTD SVG 1.1//EN" "http://www.w3.org/Graphics/SVG/1.1/DTD/svg11.dtd">
<svg version="1.1" id="Layer_1" xmlns="http://www.w3.org/2000/svg" xmlns:xlink="http://www.w3.org/1999/xlink" x="0px" y="0px"
	 width="126px" height="126px" viewBox="0 0 126 126" enable-background="new 0 0 126 126" xml:space="preserve">
<g>
	<path d="M89.833,17.667H36.167c-1.657,0-3,1.343-3,3v84.666c0,1.657,1.343,3,3,3h53.666c1.657,0,3-1.343,3-3V20.667
		C92.833,19.01,91.49,17.667,89.833,17.667z M63,99.5c-8.837,0-16-7.164-16-16s7.163-16,16-16s16,7.164,16,16S71.837,99.5,63,99.5z
		 M86.778,59.167H39.222V22.333h47.557V59.167z"/>
	<path d="M63,75c-4.687,0-8.5,3.813-8.5,8.5S58.313,92,63,92s8.5-3.813,8.5-8.5S67.687,75,63,75z M63,90c-3.584,0-6.5-2.916-6.5-6.5
		S59.416,77,63,77s6.5,2.916,6.5,6.5S66.584,90,63,90z"/>
</g>
</svg>
