<?xml version="1.0" encoding="utf-8"?>
<!-- Generator: Adobe Illustrator 16.0.0, SVG Export Plug-In . SVG Version: 6.00 Build 0)  -->
<!DOCTYPE svg PUBLIC "-//W3C//DTD SVG 1.1//EN" "http://www.w3.org/Graphics/SVG/1.1/DTD/svg11.dtd">
<svg version="1.1" id="Layer_1" xmlns="http://www.w3.org/2000/svg" xmlns:xlink="http://www.w3.org/1999/xlink" x="0px" y="0px"
	 width="126px" height="126px" viewBox="0 0 126 126" enable-background="new 0 0 126 126" xml:space="preserve">
<path d="M82.375,110.125h-38.75c-1.379,0-2.5-1.121-2.5-2.5v-89.25c0-1.379,1.121-2.5,2.5-2.5h38.75c1.379,0,2.5,1.121,2.5,2.5
	v89.25C84.875,109.004,83.754,110.125,82.375,110.125z M43.625,16.875c-0.827,0-1.5,0.673-1.5,1.5v89.25c0,0.827,0.673,1.5,1.5,1.5
	h38.75c0.827,0,1.5-0.673,1.5-1.5v-89.25c0-0.827-0.673-1.5-1.5-1.5H43.625z M63,100.167c-8.547,0-15.5-6.953-15.5-15.5
	s6.953-15.5,15.5-15.5s15.5,6.953,15.5,15.5S71.547,100.167,63,100.167z M63,70.167c-7.995,0-14.5,6.505-14.5,14.5
	s6.505,14.5,14.5,14.5s14.5-6.505,14.5-14.5S70.995,70.167,63,70.167z M63,92.5c-4.411,0-8-3.589-8-8s3.589-8,8-8s8,3.589,8,8
	S67.411,92.5,63,92.5z M63,77.5c-3.859,0-7,3.141-7,7s3.141,7,7,7s7-3.141,7-7S66.859,77.5,63,77.5z M80.75,62.125h-35.5v-41.75
	h35.5V62.125z M46.25,61.125h33.5v-39.75h-33.5V61.125z"/>
</svg>
