<?xml version="1.0" encoding="utf-8"?>
<!-- Generator: Adobe Illustrator 16.0.0, SVG Export Plug-In . SVG Version: 6.00 Build 0)  -->
<!DOCTYPE svg PUBLIC "-//W3C//DTD SVG 1.1//EN" "http://www.w3.org/Graphics/SVG/1.1/DTD/svg11.dtd">
<svg version="1.1" id="Layer_1" xmlns="http://www.w3.org/2000/svg" xmlns:xlink="http://www.w3.org/1999/xlink" x="0px" y="0px"
	 width="126px" height="126px" viewBox="0 0 126 126" enable-background="new 0 0 126 126" xml:space="preserve">
<path d="M89.833,108.875H36.167c-1.93,0-3.5-1.57-3.5-3.5V20.709c0-1.93,1.57-3.5,3.5-3.5h53.666c1.93,0,3.5,1.57,3.5,3.5v84.666
	C93.333,107.305,91.763,108.875,89.833,108.875z M36.167,18.209c-1.379,0-2.5,1.121-2.5,2.5v84.666c0,1.378,1.121,2.5,2.5,2.5
	h53.666c1.379,0,2.5-1.122,2.5-2.5V20.709c0-1.379-1.121-2.5-2.5-2.5H36.167z M63,100.041c-9.098,0-16.5-7.401-16.5-16.5
	c0-9.098,7.402-16.5,16.5-16.5s16.5,7.402,16.5,16.5C79.5,92.64,72.098,100.041,63,100.041z M63,68.041
	c-8.547,0-15.5,6.953-15.5,15.5s6.953,15.5,15.5,15.5s15.5-6.953,15.5-15.5S71.547,68.041,63,68.041z M87.278,59.708H38.722V21.875
	h48.557V59.708z M39.722,58.708h46.557V22.875H39.722V58.708z M63,92.541c-4.963,0-9-4.037-9-9c0-4.962,4.037-9,9-9s9,4.038,9,9
	C72,88.504,67.963,92.541,63,92.541z M63,75.541c-4.411,0-8,3.59-8,8c0,4.412,3.589,8,8,8s8-3.588,8-8
	C71,79.131,67.411,75.541,63,75.541z"/>
</svg>
