<?xml version="1.0" encoding="utf-8"?>
<!-- Generator: Adobe Illustrator 16.0.0, SVG Export Plug-In . SVG Version: 6.00 Build 0)  -->
<!DOCTYPE svg PUBLIC "-//W3C//DTD SVG 1.1//EN" "http://www.w3.org/Graphics/SVG/1.1/DTD/svg11.dtd">
<svg version="1.1" id="Layer_1" xmlns="http://www.w3.org/2000/svg" xmlns:xlink="http://www.w3.org/1999/xlink" x="0px" y="0px"
	 width="126px" height="126px" viewBox="0 0 126 126" enable-background="new 0 0 126 126" xml:space="preserve">
<g>
	<path d="M91.237,23.188H34.1v38.531h57.138V23.188z M90.237,60.719H35.1V24.188h55.138V60.719z"/>
	<path d="M30.314,86.161l0.206-2.824h-4.043l-0.202,2.762l1.828,2.064L30.314,86.161z M27.407,84.337h2.037l-0.099,1.352
		l-1.164,1.055l-0.879-0.992L27.407,84.337z"/>
	<path d="M97.78,79.479c0.45,0.049,0.897,0.011,1.304-0.094c-0.538,0.271-0.942,0.675-1.102,1.148
		c-0.144,0.425-0.088,0.868,0.157,1.25c0.35,0.545,1.037,0.908,1.887,0.996c0.129,0.014,0.257,0.02,0.384,0.02
		c1.282,0,2.394-0.623,2.702-1.518c0.143-0.421,0.087-0.862-0.156-1.243c-0.351-0.548-1.039-0.913-1.891-1.003
		c-0.446-0.046-0.896-0.008-1.304,0.097c0.537-0.271,0.938-0.675,1.096-1.148c0.146-0.424,0.092-0.868-0.153-1.251
		c-0.349-0.545-1.034-0.908-1.879-0.994c-1.435-0.15-2.753,0.512-3.086,1.493c-0.145,0.425-0.089,0.869,0.156,1.251
		C96.246,79.028,96.933,79.392,97.78,79.479z M100.69,80.016c0.092,0,0.184,0.005,0.272,0.014c0.633,0.067,1.01,0.327,1.15,0.548
		c0.08,0.125,0.097,0.25,0.053,0.381c-0.157,0.454-1.019,0.929-2.036,0.827c-0.633-0.065-1.009-0.323-1.148-0.542
		c-0.081-0.126-0.098-0.253-0.052-0.39C99.065,80.45,99.777,80.016,100.69,80.016z M96.687,77.553
		c0.139-0.41,0.83-0.835,1.746-0.835c0.095,0,0.191,0.005,0.289,0.015c0.628,0.064,1,0.321,1.14,0.539
		c0.081,0.126,0.097,0.252,0.049,0.393c-0.146,0.442-1.009,0.924-2.027,0.82c-0.63-0.065-1.005-0.322-1.146-0.541
		C96.656,77.817,96.64,77.689,96.687,77.553z"/>
	<path d="M25.948,90.586l-0.207,2.815h4.043l0.203-2.773l-1.964-2.054L25.948,90.586z M28.854,92.401h-2.037l0.1-1.362l1.079-1.047
		l0.962,1.005L28.854,92.401z"/>
	<path d="M99.842,91.996c-3.532,0-6.3,1.748-6.3,3.979s2.768,3.979,6.3,3.979s6.299-1.748,6.299-3.979S103.374,91.996,99.842,91.996
		z M99.842,98.955c-2.873,0-5.3-1.364-5.3-2.979s2.427-2.979,5.3-2.979c2.872,0,5.299,1.364,5.299,2.979
		S102.714,98.955,99.842,98.955z"/>
	<path d="M105.381,73.762c-0.024-1.464-1.031-2.719-2.524-3.313c1.367-0.862,2.235-2.372,2.235-4.069V19.348
		c0-2.661-2.164-4.826-4.824-4.826H24.314c-2.66,0-4.824,2.165-4.824,4.826v47.031c0,1.651,0.832,3.134,2.146,4.007
		c-1.584,0.572-2.674,1.873-2.669,3.352l-5.32,33.986c0,2.07,2.012,3.755,4.484,3.755h89.738c2.473,0,4.484-1.685,4.484-3.755
		L105.381,73.762z M20.49,66.379V19.348c0-2.109,1.716-3.826,3.824-3.826h75.953c2.108,0,3.824,1.717,3.824,3.826v47.031
		c0,1.728-1.145,3.2-2.795,3.663H23.283C21.635,69.578,20.49,68.099,20.49,66.379z M107.869,110.479H18.131
		c-1.921,0-3.484-1.235-3.49-2.678l5.32-33.986c0-1.485,1.478-2.688,3.363-2.738l0.004-0.034h77.132l0.728,0.048
		c1.791,0.118,3.193,1.314,3.193,2.725l6.972,33.957C111.32,109.269,109.771,110.479,107.869,110.479z"/>
	<path d="M25.779,86.441h-2.893l-0.282,3.852h2.938l2.312-1.835L25.779,86.441z M25.193,89.293h-1.513l0.136-1.852h1.557l0.968,0.94
		L25.193,89.293z"/>
	<path d="M95.258,85.033c0.126,0.013,0.251,0.02,0.376,0.02c1.285,0,2.398-0.624,2.709-1.52c0.144-0.422,0.088-0.864-0.157-1.246
		c-0.351-0.548-1.038-0.912-1.889-1.001c-1.41-0.137-2.756,0.534-3.085,1.498c-0.144,0.423-0.089,0.865,0.155,1.247
		C93.717,84.578,94.405,84.943,95.258,85.033z M94.159,83.106c0.138-0.403,0.852-0.839,1.765-0.839c0.091,0,0.183,0.004,0.271,0.013
		c0.631,0.066,1.007,0.325,1.148,0.546c0.08,0.126,0.098,0.252,0.053,0.382c-0.158,0.456-1.045,0.927-2.036,0.831
		c-0.634-0.067-1.01-0.326-1.15-0.547C94.13,83.367,94.113,83.241,94.159,83.106z"/>
	<path d="M93.546,81.591c1.284,0,2.396-0.624,2.706-1.52c0.144-0.422,0.088-0.864-0.156-1.246c-0.351-0.548-1.038-0.912-1.888-1
		c-1.413-0.14-2.757,0.532-3.086,1.495c-0.144,0.425-0.088,0.868,0.156,1.25c0.35,0.545,1.036,0.91,1.889,1.001
		C93.293,81.585,93.42,81.591,93.546,81.591z M92.121,80.031c-0.081-0.126-0.098-0.254-0.052-0.39
		c0.137-0.401,0.851-0.835,1.766-0.835c0.091,0,0.182,0.004,0.271,0.013c0.631,0.065,1.006,0.325,1.147,0.545
		c0.08,0.125,0.097,0.251,0.052,0.383c-0.143,0.415-0.841,0.844-1.76,0.844c-0.093,0-0.186-0.005-0.275-0.014
		C92.637,80.509,92.261,80.251,92.121,80.031z"/>
	<path d="M28.288,88.41l2.098,1.883h2.882l0.281-3.852h-2.947L28.288,88.41z M32.473,87.441l-0.135,1.852h-1.569l-0.961-0.863
		l1.161-0.988H32.473z"/>
	<path d="M38.853,75.095l-2.483,25.717h52.597l-2.345-25.717H38.853z M37.471,99.812l2.29-23.717h45.948l2.161,23.717H37.471z"/>
</g>
</svg>
