<?xml version="1.0" encoding="utf-8"?>
<!-- Generator: Adobe Illustrator 16.0.0, SVG Export Plug-In . SVG Version: 6.00 Build 0)  -->
<!DOCTYPE svg PUBLIC "-//W3C//DTD SVG 1.1//EN" "http://www.w3.org/Graphics/SVG/1.1/DTD/svg11.dtd">
<svg version="1.1" id="Layer_1" xmlns="http://www.w3.org/2000/svg" xmlns:xlink="http://www.w3.org/1999/xlink" x="0px" y="0px"
	 width="126px" height="126px" viewBox="0 0 126 126" enable-background="new 0 0 126 126" xml:space="preserve">
<path d="M16.333,96.926h93.333c1.93,0,3.5-1.57,3.5-3.5v-60c0-1.93-1.57-3.5-3.5-3.5H16.333c-1.93,0-3.5,1.57-3.5,3.5v60
	C12.833,95.355,14.404,96.926,16.333,96.926z M15.833,33.426c0-0.276,0.224-0.5,0.5-0.5h93.333c0.276,0,0.5,0.224,0.5,0.5v60
	c0,0.276-0.224,0.5-0.5,0.5H16.333c-0.276,0-0.5-0.224-0.5-0.5V33.426z M120.691,99.604v2.8c0,0.743-0.602,1.344-1.344,1.344H6.652
	c-0.742,0-1.344-0.602-1.344-1.344v-2.8h47.387c0.234,0.781,0.95,1.353,1.807,1.353h16.995c0.857,0,1.573-0.572,1.807-1.353H120.691
	z"/>
</svg>
