<?xml version="1.0" encoding="utf-8"?>
<!-- Generator: Adobe Illustrator 16.0.0, SVG Export Plug-In . SVG Version: 6.00 Build 0)  -->
<!DOCTYPE svg PUBLIC "-//W3C//DTD SVG 1.1//EN" "http://www.w3.org/Graphics/SVG/1.1/DTD/svg11.dtd">
<svg version="1.1" id="Layer_1" xmlns="http://www.w3.org/2000/svg" xmlns:xlink="http://www.w3.org/1999/xlink" x="0px" y="0px"
	 width="126px" height="126px" viewBox="0 0 126 126" enable-background="new 0 0 126 126" xml:space="preserve">
<g>
	<path d="M111.081,30.6H14.706v60.168h96.375V30.6z M110.081,89.768H15.706V31.6h94.375V89.768z"/>
	<path d="M120.792,94.299c-0.101-0.289-0.36-0.418-0.607-0.443l-5.93-0.018c0.367-0.75,0.56-1.568,0.56-2.406V32.75
		c0-3.066-2.494-5.561-5.56-5.561H16.681c-3.065,0-5.559,2.494-5.559,5.561v58.682c0,0.863,0.203,1.705,0.595,2.475H5.518
		l-0.146,0.148c-0.109,0.113-0.601,0.725,0.509,1.832c2.421,2.422,7.616,2.65,7.836,2.658l0.52,0.014v-0.02
		c6.516,0.002,74.852,0.02,92.633,0.02c4.206,0,4.216-0.002,4.209-0.002c5.043,0,7.013-1.367,8.451-2.365
		c0.147-0.102,0.288-0.199,0.427-0.291l0.077-0.063C120.706,95.164,120.934,94.703,120.792,94.299z M12.122,32.75
		c0-2.514,2.045-4.561,4.559-4.561h92.574c2.514,0,4.56,2.047,4.56,4.561v58.682c0,0.848-0.252,1.668-0.709,2.395l-0.233,0.016
		L12.831,93.816c-0.455-0.727-0.709-1.541-0.709-2.385V32.75z M69.39,95.113v0.635H56.612v-0.635H69.39z M119.359,95.096
		c-0.13,0.086-0.263,0.18-0.401,0.275c-1.33,0.922-3.151,2.186-7.889,2.186c-0.606,0.008-97.334-0.018-97.334-0.018l-0.081,0.002
		c-0.717-0.043-5.09-0.383-7.067-2.361C6.48,95.074,6.4,94.982,6.342,94.906l50.021-0.023v1.115H69.64v-1.121l49.945-0.023
		C119.525,94.922,119.451,95.002,119.359,95.096z"/>
</g>
</svg>
