<?xml version="1.0" encoding="utf-8"?>
<!-- Generator: Adobe Illustrator 16.0.0, SVG Export Plug-In . SVG Version: 6.00 Build 0)  -->
<!DOCTYPE svg PUBLIC "-//W3C//DTD SVG 1.1//EN" "http://www.w3.org/Graphics/SVG/1.1/DTD/svg11.dtd">
<svg version="1.1" id="Layer_1" xmlns="http://www.w3.org/2000/svg" xmlns:xlink="http://www.w3.org/1999/xlink" x="0px" y="0px"
	 width="126px" height="126px" viewBox="0 0 126 126" enable-background="new 0 0 126 126" xml:space="preserve">
<path d="M83.402,110.176H42.598c-2.501,0-4.536-2.035-4.536-4.535V20.443c0-2.501,2.035-4.535,4.536-4.535h40.804
	c2.501,0,4.536,2.034,4.536,4.535v85.197C87.938,108.141,85.903,110.176,83.402,110.176z M42.598,16.908
	c-1.95,0-3.536,1.586-3.536,3.535v85.197c0,1.949,1.586,3.535,3.536,3.535h40.804c1.95,0,3.536-1.586,3.536-3.535V20.443
	c0-1.949-1.586-3.535-3.536-3.535H42.598z M63,106.531c-1.728,0-3.134-1.406-3.134-3.134s1.406-3.134,3.134-3.134
	s3.134,1.406,3.134,3.134S64.728,106.531,63,106.531z M63,101.264c-1.177,0-2.134,0.957-2.134,2.134s0.957,2.134,2.134,2.134
	s2.134-0.957,2.134-2.134S64.177,101.264,63,101.264z M84.057,98.518H41.943V27.566h42.113V98.518z M42.943,97.518h40.113V28.566
	H42.943V97.518z M66.447,23.133h-6.894c-0.507,0-0.92-0.414-0.92-0.921s0.413-0.921,0.92-0.921h6.894c0.507,0,0.92,0.414,0.92,0.921
	S66.954,23.133,66.447,23.133z M79.042,21.666c-0.965,0-1.75-0.785-1.75-1.75s0.785-1.75,1.75-1.75s1.75,0.785,1.75,1.75
	S80.007,21.666,79.042,21.666z M79.042,19.166c-0.414,0-0.75,0.337-0.75,0.75c0,0.414,0.336,0.75,0.75,0.75s0.75-0.336,0.75-0.75
	C79.792,19.503,79.456,19.166,79.042,19.166z"/>
</svg>
