<?xml version="1.0" encoding="utf-8"?>
<!-- Generator: Adobe Illustrator 16.0.0, SVG Export Plug-In . SVG Version: 6.00 Build 0)  -->
<!DOCTYPE svg PUBLIC "-//W3C//DTD SVG 1.1//EN" "http://www.w3.org/Graphics/SVG/1.1/DTD/svg11.dtd">
<svg version="1.1" id="Layer_1" xmlns="http://www.w3.org/2000/svg" xmlns:xlink="http://www.w3.org/1999/xlink" x="0px" y="0px"
	 width="126px" height="126px" viewBox="0 0 126 126" enable-background="new 0 0 126 126" xml:space="preserve">
<path d="M87.808,7.42H38.192c-4.982,0-9.021,4.039-9.021,9.021v93.969c0,4.982,4.039,9.021,9.021,9.021h49.616
	c4.982,0,9.021-4.039,9.021-9.021V16.441C96.829,11.459,92.79,7.42,87.808,7.42z M56.625,11.176h12.75c0.276,0,0.5,0.224,0.5,0.5
	s-0.224,0.5-0.5,0.5h-12.75c-0.276,0-0.5-0.224-0.5-0.5S56.349,11.176,56.625,11.176z M34.543,19.426h56.914v47H34.543V19.426z
	 M92.875,69.281c0,0-2.563,2.291-5.398,2.291c-0.638,0-3.128,0-6.599,0c0,0-1.564,0-4.081,0v-2.291h4.081H92.875z M76.339,69.281
	v2.291c-3.326,0-8.123,0-13.199,0v-2.291H76.339z M62.681,69.281v2.291c-4.376,0-8.918,0-12.875,0v-2.291H62.681z M37.032,106.114
	h-4.688v-7.031h4.688V106.114z M37.032,97.714h-4.688v-7.031h4.688V97.714z M37.032,89.238h-4.688v-7.031h4.688V89.238z
	 M37.032,80.832h-4.688v-7.031h4.688V80.832z M42.653,106.114h-4.687v-7.031h4.687V106.114z M42.653,97.714h-4.687v-7.031h4.687
	V97.714z M42.653,89.238h-4.687v-7.031h4.687V89.238z M42.653,80.832h-4.687v-7.031h4.687V80.832z M48.457,106.114H43.77v-7.031
	h4.687V106.114z M48.457,97.714H43.77v-7.031h4.687V97.714z M48.457,89.238H43.77v-7.031h4.687V89.238z M48.457,80.832H43.77v-7.031
	h4.687V80.832z M49.348,71.572c-1.458,0-2.835,0-4.081,0c-3.471,0-5.96,0-6.598,0c-2.836,0-5.399-2.291-5.399-2.291h11.997h4.081
	V71.572z M54.082,106.114h-4.687v-7.031h4.687V106.114z M54.082,97.714h-4.687v-7.031h4.687V97.714z M54.082,89.238h-4.687v-7.031
	h4.687V89.238z M54.082,80.832h-4.687v-7.031h4.687V80.832z M59.704,106.114h-4.688v-7.031h4.688V106.114z M59.704,97.714h-4.688
	v-7.031h4.688V97.714z M59.704,89.238h-4.688v-7.031h4.688V89.238z M59.704,80.832h-4.688v-7.031h4.688V80.832z M65.507,106.114
	H60.82v-7.031h4.688V106.114z M65.507,97.714H60.82v-7.031h4.688V97.714z M65.507,89.238H60.82v-7.031h4.688V89.238z M65.507,80.832
	H60.82v-7.031h4.688V80.832z M71.129,106.114h-4.688v-7.031h4.688V106.114z M71.129,97.714h-4.688v-7.031h4.688V97.714z
	 M71.129,89.238h-4.688v-7.031h4.688V89.238z M71.129,80.832h-4.688v-7.031h4.688V80.832z M76.828,106.114h-4.688v-7.031h4.688
	V106.114z M76.828,97.714h-4.688v-7.031h4.688V97.714z M76.828,89.238h-4.688v-7.031h4.688V89.238z M76.828,80.832h-4.688v-7.031
	h4.688V80.832z M82.449,106.114h-4.687v-7.031h4.687V106.114z M82.449,97.714h-4.687v-7.031h4.687V97.714z M82.449,89.238h-4.687
	v-7.031h4.687V89.238z M82.449,80.832h-4.687v-7.031h4.687V80.832z M85.833,117.094c-0.736,0-1.333-0.598-1.333-1.334
	s0.597-1.334,1.333-1.334s1.333,0.598,1.333,1.334S86.57,117.094,85.833,117.094z M88.253,106.114h-4.687v-7.031h4.687V106.114z
	 M88.253,97.714h-4.687v-7.031h4.687V97.714z M88.253,89.238h-4.687v-7.031h4.687V89.238z M88.253,80.832h-4.687v-7.031h4.687
	V80.832z M93.875,106.114h-4.688v-7.031h4.688V106.114z M93.875,97.714h-4.688v-7.031h4.688V97.714z M93.875,89.238h-4.688v-7.031
	h4.688V89.238z M93.875,80.832h-4.688v-7.031h4.688V80.832z"/>
</svg>
