<?xml version="1.0" encoding="utf-8"?>
<!-- Generator: Adobe Illustrator 16.0.0, SVG Export Plug-In . SVG Version: 6.00 Build 0)  -->
<!DOCTYPE svg PUBLIC "-//W3C//DTD SVG 1.1//EN" "http://www.w3.org/Graphics/SVG/1.1/DTD/svg11.dtd">
<svg version="1.1" id="Layer_1" xmlns="http://www.w3.org/2000/svg" xmlns:xlink="http://www.w3.org/1999/xlink" x="0px" y="0px"
	 width="126px" height="126px" viewBox="0 0 126 126" enable-background="new 0 0 126 126" xml:space="preserve">
<path d="M83.39,108.945H42.61c-1.8,0-3.265-1.465-3.265-3.265V20.319c0-1.8,1.464-3.265,3.265-3.265h40.78
	c1.8,0,3.265,1.465,3.265,3.265v85.361C86.655,107.48,85.19,108.945,83.39,108.945z M42.61,18.055c-1.249,0-2.265,1.016-2.265,2.265
	v85.361c0,1.249,1.016,2.265,2.265,2.265h40.78c1.249,0,2.265-1.016,2.265-2.265V20.319c0-1.249-1.016-2.265-2.265-2.265H42.61z
	 M63,105.433c-1.546,0-2.805-1.258-2.805-2.805s1.258-2.805,2.805-2.805s2.804,1.258,2.804,2.805S64.546,105.433,63,105.433z
	 M63,100.823c-0.995,0-1.805,0.81-1.805,1.805s0.81,1.805,1.805,1.805c0.995,0,1.804-0.81,1.804-1.805S63.995,100.823,63,100.823z
	 M82.508,97.541H43.492V28.459h39.016V97.541z M44.492,96.541h37.016V29.459H44.492V96.541z M68.098,24.266H57.902
	c-0.519,0-0.941-0.422-0.941-0.941s0.422-0.941,0.941-0.941h10.195c0.519,0,0.941,0.422,0.941,0.941S68.617,24.266,68.098,24.266z
	 M57.902,22.883c-0.243,0-0.441,0.198-0.441,0.441s0.198,0.441,0.441,0.441h10.195c0.243,0,0.441-0.198,0.441-0.441
	s-0.198-0.441-0.441-0.441H57.902z"/>
</svg>
