<?xml version="1.0" encoding="utf-8"?>
<!-- Generator: Adobe Illustrator 16.0.0, SVG Export Plug-In . SVG Version: 6.00 Build 0)  -->
<!DOCTYPE svg PUBLIC "-//W3C//DTD SVG 1.1//EN" "http://www.w3.org/Graphics/SVG/1.1/DTD/svg11.dtd">
<svg version="1.1" id="Layer_1" xmlns="http://www.w3.org/2000/svg" xmlns:xlink="http://www.w3.org/1999/xlink" x="0px" y="0px"
	 width="126px" height="126px" viewBox="0 0 126 126" enable-background="new 0 0 126 126" xml:space="preserve">
<path d="M83.402,16.366H42.598c-2.228,0-4.036,1.807-4.036,4.035v85.197c0,2.228,1.808,4.035,4.036,4.035h40.804
	c2.229,0,4.036-1.807,4.036-4.035V20.401C87.438,18.173,85.631,16.366,83.402,16.366z M59.553,21.299h6.894
	c0.233,0,0.42,0.188,0.42,0.42c0,0.231-0.188,0.42-0.42,0.42h-6.894c-0.233,0-0.42-0.189-0.42-0.42
	C59.133,21.487,59.32,21.299,59.553,21.299z M63,105.99c-1.454,0-2.634-1.18-2.634-2.634s1.18-2.634,2.634-2.634
	s2.634,1.18,2.634,2.634S64.454,105.99,63,105.99z M83.557,97.976H42.443V28.024h41.113V97.976z"/>
</svg>
