<?xml version="1.0" encoding="utf-8"?>
<!-- Generator: Adobe Illustrator 16.0.0, SVG Export Plug-In . SVG Version: 6.00 Build 0)  -->
<!DOCTYPE svg PUBLIC "-//W3C//DTD SVG 1.1//EN" "http://www.w3.org/Graphics/SVG/1.1/DTD/svg11.dtd">
<svg version="1.1" id="Layer_1" xmlns="http://www.w3.org/2000/svg" xmlns:xlink="http://www.w3.org/1999/xlink" x="0px" y="0px"
	 width="126px" height="126px" viewBox="0 0 126 126" enable-background="new 0 0 126 126" xml:space="preserve">
<g>
	<polygon points="60.271,115.732 60.271,117.095 65.828,117.095 65.828,115.732 63.05,113.717 	"/>
	<path d="M92.227,13.43c-0.362-3.051-2.179-4.977-4.895-6.168c-1.979-0.866-4.088-1.247-6.214-1.428
		c-3.909-0.331-7.822-0.681-11.739-0.795c-0.313-0.01-0.624-0.01-0.935-0.018c0.155,0.099,0.264,0.266,0.264,0.465
		c0,0.309-0.251,0.56-0.56,0.56H57.95c-0.309,0-0.56-0.251-0.56-0.56c0-0.201,0.111-0.368,0.268-0.467
		c-0.349,0.01-0.699,0.008-1.047,0.02c-3.917,0.114-7.831,0.464-11.739,0.795c-2.127,0.181-4.235,0.562-6.214,1.428
		c-2.717,1.191-4.532,3.117-4.896,6.168l0.061,98.77c0.065,4.046,2.101,6.663,5.965,7.88c1.219,0.385,2.516,0.552,3.788,0.723
		c2.282,0.308,4.567,0.675,6.861,0.777c4.032,0.179,8.521,0.212,12.558,0.253c4.036-0.041,8.076-0.074,12.106-0.253
		c2.295-0.103,5.297-0.47,7.578-0.777c1.274-0.171,2.571-0.338,3.79-0.723c3.865-1.217,5.7-3.834,5.768-7.88L92.227,13.43z
		 M66.338,117.604h-6.576v-2.132l3.288-2.382l3.288,2.382V117.604z M89.283,111.385H36.815V15.373h52.468V111.385z"/>
</g>
</svg>
