<?xml version="1.0" encoding="utf-8"?>
<!-- Generator: Adobe Illustrator 16.0.0, SVG Export Plug-In . SVG Version: 6.00 Build 0)  -->
<!DOCTYPE svg PUBLIC "-//W3C//DTD SVG 1.1//EN" "http://www.w3.org/Graphics/SVG/1.1/DTD/svg11.dtd">
<svg version="1.1" id="Layer_1" xmlns="http://www.w3.org/2000/svg" xmlns:xlink="http://www.w3.org/1999/xlink" x="0px" y="0px"
	 width="126px" height="126px" viewBox="0 0 126 126" enable-background="new 0 0 126 126" xml:space="preserve">
<path d="M87.25,13.551h-48.5c-2.209,0-4,1.791-4,4v91.75c0,2.209,1.791,4,4,4h48.5c2.209,0,4-1.791,4-4v-91.75
	C91.25,15.342,89.459,13.551,87.25,13.551z M57.572,21.896h10.195c0.383,0,0.691,0.31,0.691,0.691s-0.309,0.691-0.691,0.691H57.572
	c-0.381,0-0.691-0.31-0.691-0.691S57.191,21.896,57.572,21.896z M62.67,104.955c-1.273,0-2.305-1.032-2.305-2.305
	s1.031-2.305,2.305-2.305s2.305,1.032,2.305,2.305S63.943,104.955,62.67,104.955z M86.669,97.467H39.331V29.385h47.338V97.467z"/>
</svg>
