<?xml version="1.0" encoding="utf-8"?>
<!-- Generator: Adobe Illustrator 16.0.0, SVG Export Plug-In . SVG Version: 6.00 Build 0)  -->
<!DOCTYPE svg PUBLIC "-//W3C//DTD SVG 1.1//EN" "http://www.w3.org/Graphics/SVG/1.1/DTD/svg11.dtd">
<svg version="1.1" id="Layer_1" xmlns="http://www.w3.org/2000/svg" xmlns:xlink="http://www.w3.org/1999/xlink" x="0px" y="0px"
	 width="126px" height="126px" viewBox="0 0 126 126" enable-background="new 0 0 126 126" xml:space="preserve">
<g>
	<path d="M85.167,17.833H40.833c-2.206,0-4,1.794-4,4v82.333c0,2.206,1.794,4,4,4h44.333c2.206,0,4-1.794,4-4V21.833
		C89.167,19.628,87.372,17.833,85.167,17.833z M87.167,104.167c0,1.103-0.897,2-2,2H40.833c-1.103,0-2-0.897-2-2V21.833
		c0-1.103,0.897-2,2-2h44.333c1.103,0,2,0.897,2,2V104.167z"/>
	<rect x="41.257" y="23.125" width="43.485" height="67.416"/>
	<circle cx="63" cy="97.667" r="4.625"/>
</g>
</svg>
