<?xml version="1.0" encoding="utf-8"?>
<!-- Generator: Adobe Illustrator 16.0.0, SVG Export Plug-In . SVG Version: 6.00 Build 0)  -->
<!DOCTYPE svg PUBLIC "-//W3C//DTD SVG 1.1//EN" "http://www.w3.org/Graphics/SVG/1.1/DTD/svg11.dtd">
<svg version="1.1" id="Layer_1" xmlns="http://www.w3.org/2000/svg" xmlns:xlink="http://www.w3.org/1999/xlink" x="0px" y="0px"
	 width="126px" height="126px" viewBox="0 0 126 126" enable-background="new 0 0 126 126" xml:space="preserve">
<path d="M106.595,96.938c-4.187,0-7.938-1.843-9.145-3.624c-1.806-2.666-3.349-6.858-4.491-10.214l-0.057-0.167
	c-0.95-2.785-1.899-5.57-2.828-8.363c-0.221-0.665-0.78-0.943-1.438-1.235c-4.388,3.211-10.089,3.062-14.293-0.217
	c-0.125-0.098-0.332-0.171-0.482-0.171c-1.2,0-4.27,0.004-7.307,0.009c-0.036,0.009-0.053,0.019-0.113,0.014l-3.441-0.008
	L59.56,72.97c-0.033,0.014-0.081-0.005-0.119-0.014c-3.036-0.005-6.102-0.009-7.301-0.009c-0.151,0-0.358,0.073-0.482,0.17
	c-2.163,1.688-4.685,2.579-7.293,2.579c-2.473,0-4.891-0.809-6.992-2.339c0,0-0.012-0.007-0.026-0.015
	c-0.649,0.288-1.201,0.566-1.42,1.228c-0.929,2.793-1.878,5.578-2.828,8.363l-0.057,0.167c-1.142,3.355-2.685,7.548-4.491,10.214
	c-1.207,1.781-4.958,3.624-9.145,3.624c-2.877,0-5.547-0.888-7.72-2.567C7.944,91.292,7.187,88.6,7.14,84.987
	c-0.034-2.618,0.11-5.409,0.426-8.294c0.637-5.814,1.738-11.559,2.732-16.41c1.216-5.942,2.502-11.14,3.931-15.888
	c0.597-1.985,1.477-4.56,3-6.861l0.948-1.439c0.752-1.146,1.503-2.29,2.279-3.419c0.275-0.4,0.729-0.65,1.06-0.833
	c0.074-0.042,0.169-0.095,0.19-0.12c0.022-0.401,0.282-0.727,0.498-0.895c0.242-0.188,0.54-0.356,0.886-0.498
	c3.988-1.633,8.059-1.688,12.068-0.17c0.566,0.215,0.862,0.656,0.811,1.212c-0.016,0.173,0.01,0.256,0.028,0.277
	c0.016,0.019,0.08,0.053,0.224,0.065c0.142,0.013,0.25,0.069,0.308,0.101c0.761,0.393,1.649,0.586,2.718,0.59h8.433
	c0.158-1.409,1.336-2.489,2.762-2.489h25.356c1.434,0,2.617,1.092,2.765,2.489h8.197c1.066-0.004,1.955-0.197,2.715-0.59
	c0.055-0.029,0.165-0.088,0.309-0.101c0.145-0.013,0.209-0.047,0.225-0.065c0.018-0.021,0.044-0.104,0.028-0.277
	c-0.052-0.556,0.244-0.998,0.811-1.212c4.008-1.52,8.078-1.463,12.068,0.17c0.344,0.141,0.642,0.308,0.886,0.498
	c0.215,0.167,0.475,0.492,0.495,0.857c0.023,0.063,0.118,0.115,0.188,0.154c0.336,0.186,0.79,0.436,1.064,0.836
	c0.775,1.129,1.527,2.273,2.279,3.419l0.948,1.438c1.521,2.302,2.402,4.876,2.999,6.862c1.428,4.747,2.714,9.944,3.931,15.888
	c0.994,4.852,2.095,10.595,2.732,16.41c0.316,2.887,0.459,5.677,0.425,8.294c-0.047,3.612-0.804,6.305-4.533,9.374
	C112.142,96.051,109.472,96.938,106.595,96.938z M88.664,72.314c0.068,0,0.19,0.023,0.252,0.051
	c0.814,0.358,1.732,0.764,2.107,1.889c0.928,2.791,1.876,5.574,2.826,8.357l0.057,0.167c1.122,3.296,2.633,7.408,4.373,9.976
	c1.038,1.531,4.512,3.185,8.316,3.185c2.654,0,5.112-0.815,7.109-2.358c3.435-2.828,4.112-5.207,4.157-8.606
	c0.033-2.575-0.108-5.325-0.419-8.171c-0.632-5.775-1.729-11.49-2.718-16.318c-1.211-5.914-2.49-11.083-3.91-15.801
	c-0.613-2.04-1.434-4.419-2.875-6.599l-0.95-1.441c-0.748-1.14-1.496-2.278-2.267-3.401c-0.141-0.205-0.475-0.39-0.719-0.524
	c-0.274-0.153-0.673-0.377-0.707-0.976c-0.006-0.009-0.056-0.082-0.111-0.124c-0.172-0.135-0.391-0.257-0.65-0.362
	c-3.758-1.537-7.563-1.593-11.336-0.16c-0.18,0.067-0.175,0.119-0.169,0.185c0.039,0.42-0.047,0.759-0.256,1.01
	c-0.204,0.244-0.507,0.386-0.903,0.421c-0.843,0.46-1.88,0.689-3.111,0.694h-8.155v11.834c0,0.167-0.011,0.331-0.033,0.492
	l0.004,0.181c0,1.412-1.019,2.586-2.379,2.783c-0.408,0.151-0.835,0.228-1.273,0.228H51.111c-0.545,0-1.071-0.117-1.562-0.349
	c-0.762-0.233-1.431-0.874-1.726-1.689c-0.247-0.461-0.392-1.052-0.392-1.646l0.026-11.834h-8.215
	c-1.232-0.005-2.27-0.234-3.174-0.701c-0.335-0.028-0.639-0.17-0.842-0.414c-0.208-0.251-0.294-0.59-0.256-1.01
	c0.006-0.065,0.011-0.117-0.168-0.185c-3.775-1.432-7.581-1.377-11.336,0.16c-0.261,0.106-0.479,0.228-0.649,0.36
	c-0.057,0.044-0.107,0.118-0.116,0.147c-0.031,0.577-0.43,0.801-0.694,0.948c-0.254,0.141-0.588,0.325-0.729,0.53
	c-0.771,1.123-1.519,2.262-2.267,3.401l-0.95,1.442c-1.442,2.181-2.263,4.559-2.875,6.597c-1.42,4.72-2.699,9.889-3.909,15.802
	c-0.989,4.829-2.085,10.544-2.717,16.318c-0.312,2.845-0.453,5.594-0.42,8.171c0.044,3.399,0.722,5.778,4.169,8.616
	c1.984,1.533,4.443,2.349,7.097,2.349c3.804,0,7.279-1.653,8.316-3.185c1.739-2.567,3.25-6.68,4.373-9.976l0.057-0.167
	c0.949-2.783,1.898-5.566,2.826-8.357c0.375-1.126,1.294-1.53,2.104-1.888c0.063-0.027,0.187-0.052,0.256-0.052
	c0.286,0,0.553,0.181,0.628,0.236c1.926,1.403,4.141,2.146,6.4,2.146c2.384,0,4.692-0.818,6.677-2.367
	c0.301-0.235,0.722-0.382,1.098-0.382c1.215,0,4.345,0.004,7.419,0.009c0.039,0,0.078,0.005,0.114,0.014l3.326-0.008l3.331,0.008
	c0.036-0.009,0.073-0.014,0.111-0.014c3.074-0.005,6.204-0.009,7.419-0.009c0.376,0,0.797,0.146,1.098,0.383
	c1.984,1.548,4.293,2.366,6.677,2.366c2.26,0,4.474-0.742,6.403-2.147C88.111,72.495,88.379,72.314,88.664,72.314z M50.439,30.916
	c-0.981,0-1.78,0.801-1.78,1.784v13.175c0,0.273,0.035,0.477,0.105,0.67c0.244,0.455,0.684,0.876,1.21,1.125
	c0.106,0.027,0.284,0.055,0.464,0.055h25.357c0.052,0,0.104-0.002,0.156-0.007c0.88-0.367,1.502-1.174,1.629-2.119l-0.004-12.833
	c0-1.049-0.799-1.85-1.78-1.85H50.439z M81.392,73.737c-3.864,0-7.007-3.143-7.007-7.006s3.143-7.007,7.007-7.007
	c3.863,0,7.006,3.144,7.006,7.007S85.255,73.737,81.392,73.737z M81.392,60.725c-3.312,0-6.007,2.694-6.007,6.007
	c0,3.312,2.695,6.006,6.007,6.006c3.312,0,6.006-2.694,6.006-6.006C87.397,63.419,84.703,60.725,81.392,60.725z M44.608,73.737
	c-3.863,0-7.006-3.143-7.006-7.006s3.143-7.007,7.006-7.007c3.864,0,7.007,3.144,7.007,7.007S48.472,73.737,44.608,73.737z
	 M44.608,60.725c-3.312,0-6.006,2.694-6.006,6.007c0,3.312,2.694,6.006,6.006,6.006c3.312,0,6.007-2.694,6.007-6.006
	C50.615,63.419,47.92,60.725,44.608,60.725z M58.387,69.427l-0.322-0.003l-0.373,0.002c-0.001,0-0.002,0-0.003,0
	c-0.299,0-0.433-0.091-0.509-0.167c-0.094-0.096-0.163-0.29-0.161-0.424l0.001-0.452c-0.001-0.329-0.002-0.659,0.018-0.987
	c0.05-0.859,0.733-1.508,1.588-1.508c0.543,0.005,1.07,0.007,1.596,0.007l2.193-0.003c0.08,0,0.12-0.013,0.128-0.018
	c-0.001-0.001,0.014-0.034,0.023-0.104c0.011-0.081,0.007-0.169-0.009-0.249c0,0-0.113-0.072-0.113-0.072l-1.982-0.001l-2.829,0.003
	c0,0,0,0-0.001,0c-0.139,0-0.364-0.082-0.458-0.183c-0.078-0.083-0.168-0.229-0.154-0.457c0.005-0.066,0.003-0.128,0.002-0.194
	l-0.001-0.12c0-0.276,0.224-0.5,0.5-0.5h5.406c0.844,0,1.527,0.636,1.589,1.479c0.031,0.417-0.035,0.767-0.201,1.067
	c-0.176,0.322-0.542,0.726-1.274,0.81c-0.146,0.015-0.289,0.016-0.431,0.016l-1.97,0.004c-0.509,0-1.018-0.002-1.526-0.007
	c-0.001,0-0.001,0-0.002,0c-0.057,0-0.118,0.001-0.132,0.131c-0.01,0.087-0.009,0.176-0.009,0.265c-0.001,0.357-0.002,0.714,0,1.069
	c0,0.133-0.071,0.336-0.165,0.43C58.73,69.336,58.596,69.427,58.387,69.427z M62.523,69.427c-0.137,0-0.344-0.076-0.438-0.175
	c-0.076-0.079-0.165-0.22-0.156-0.436c0.004-0.092,0.004-0.182,0-0.272c-0.005-0.138,0.064-0.334,0.161-0.432
	c0.114-0.117,0.293-0.178,0.461-0.163l1.522-0.006c0.344,0,0.689,0.002,1.033,0.008c0.147,0.007,0.184,0,0.186-0.205
	c0.004-0.45,0.003-0.901,0.002-1.353l0-0.743c0.001-0.387,0.106-0.726,0.313-1.008c0.298-0.407,0.735-0.634,1.231-0.64
	c0.509-0.006,1.019-0.007,1.528-0.007l1.522,0.001c0.276,0,0.572,0.224,0.572,0.5l0,0.103c0,0.108,0.001,0.21-0.004,0.311
	c-0.008,0.164-0.154,0.371-0.293,0.458c-0.084,0.054-0.185,0.083-0.29,0.083l0,0l-2.459-0.002c-0.066,0-0.096,0.004-0.109,0.008
	c-0.059,0.144-0.063,0.211-0.063,0.277v0.74c0.001,0.431,0.001,0.861-0.002,1.293c-0.006,0.594-0.251,1.068-0.71,1.373
	c-0.288,0.188-0.629,0.284-1.015,0.284L62.523,69.427L62.523,69.427z M97.477,61.245c-7.18,0-13.022-5.842-13.022-13.021
	c0-7.181,5.842-13.022,13.022-13.022s13.021,5.842,13.021,13.022C110.499,55.403,104.657,61.245,97.477,61.245z M96.136,36.275
	c-6,0.669-10.681,5.772-10.681,11.948c0,6.629,5.393,12.021,12.022,12.021c6.019,0,11.019-4.446,11.888-10.226
	c-0.708,1.271-2.067,2.133-3.623,2.133c-2.285,0-4.144-1.859-4.144-4.145s1.859-4.144,4.144-4.144c1.479,0,2.78,0.779,3.514,1.948
	c-1.01-4.943-5.063-8.792-10.109-9.496c1.515,0.617,2.586,2.106,2.586,3.841c0,2.285-1.859,4.144-4.144,4.144
	s-4.145-1.858-4.145-4.144C93.444,38.383,94.565,36.865,96.136,36.275z M105.742,44.864c-1.733,0-3.144,1.41-3.144,3.144
	c0,1.734,1.411,3.145,3.144,3.145s3.144-1.41,3.144-3.145C108.886,46.274,107.476,44.864,105.742,44.864z M97.589,37.013
	c-1.734,0-3.145,1.41-3.145,3.145c0,1.733,1.411,3.144,3.145,3.144c1.733,0,3.144-1.41,3.144-3.144
	C100.733,38.423,99.322,37.013,97.589,37.013z M28.523,61.245c-7.18,0-13.022-5.842-13.022-13.021
	c0-7.181,5.842-13.022,13.022-13.022c7.18,0,13.021,5.842,13.021,13.022C41.544,55.403,35.703,61.245,28.523,61.245z M28.523,36.201
	c-6.629,0-12.022,5.394-12.022,12.022s5.393,12.021,12.022,12.021c6.628,0,12.021-5.393,12.021-12.021S35.152,36.201,28.523,36.201z
	 M97.589,60.018c-2.285,0-4.145-1.859-4.145-4.145s1.859-4.144,4.145-4.144s4.144,1.858,4.144,4.144S99.874,60.018,97.589,60.018z
	 M97.589,52.729c-1.734,0-3.145,1.41-3.145,3.144c0,1.734,1.411,3.145,3.145,3.145c1.733,0,3.144-1.41,3.144-3.145
	C100.733,54.14,99.322,52.729,97.589,52.729z M30.311,59.697h-3.408c-1.116,0-2.024-0.908-2.024-2.025v-4.494
	c0-0.676,0.337-1.407,0.858-1.863l2.111-2.311c0.396-0.436,1.136-0.437,1.536,0.001l2.269,2.479c0.086,0.058,0.153,0.14,0.19,0.237
	c0.311,0.431,0.492,0.963,0.492,1.457v4.494C32.335,58.789,31.427,59.697,30.311,59.697z M28.646,49.68l-2.211,2.35
	c-0.344,0.305-0.556,0.761-0.556,1.148v4.494c0,0.565,0.459,1.025,1.024,1.025h3.408c0.565,0,1.024-0.46,1.024-1.025v-4.494
	c0-0.317-0.142-0.685-0.369-0.957c-0.01-0.012-0.019-0.023-0.028-0.036L28.646,49.68z M99.092,58.121
	c-0.128,0-0.256-0.049-0.354-0.146l-1.054-1.053l-1.054,1.053c-0.195,0.195-0.512,0.195-0.707,0l-0.341-0.341
	c-0.094-0.094-0.146-0.221-0.146-0.354s0.053-0.26,0.146-0.354l1.054-1.054l-1.054-1.054c-0.195-0.195-0.195-0.512,0-0.707
	l0.341-0.342c0.188-0.188,0.52-0.188,0.708,0l1.054,1.055l1.054-1.055c0.187-0.187,0.52-0.188,0.707,0l0.342,0.342
	c0.094,0.094,0.146,0.221,0.146,0.354s-0.053,0.26-0.146,0.354l-1.054,1.054l1.054,1.054c0.094,0.094,0.146,0.221,0.146,0.354
	s-0.053,0.261-0.147,0.354l-0.342,0.341C99.347,58.072,99.22,58.121,99.092,58.121z M89.681,52.152
	c-2.285,0-4.145-1.859-4.145-4.145s1.859-4.144,4.145-4.144s4.145,1.858,4.145,4.144S91.966,52.152,89.681,52.152z M89.681,44.864
	c-1.734,0-3.145,1.41-3.145,3.144c0,1.734,1.411,3.145,3.145,3.145s3.145-1.41,3.145-3.145
	C92.825,46.274,91.415,44.864,89.681,44.864z M37.931,51.742h-4.496c-0.674,0-1.405-0.337-1.861-0.858l-2.312-2.11
	c-0.219-0.201-0.344-0.481-0.343-0.771c0-0.067,0.007-0.135,0.021-0.2c-0.285,0.094-0.617,0.055-0.876-0.111
	c0.032,0.101,0.049,0.205,0.05,0.312c0,0.289-0.125,0.569-0.343,0.77l-2.351,2.151c-0.417,0.481-1.148,0.818-1.822,0.818h-4.496
	c-1.116,0-2.023-0.907-2.023-2.023v-3.408c0-1.117,0.908-2.025,2.023-2.025h4.496c0.523,0,1.091,0.205,1.535,0.552
	c0.028,0.017,0.054,0.036,0.079,0.059l1.501,1.374l-1.014-1.107c-0.482-0.419-0.819-1.149-0.819-1.823v-4.497
	c0-1.115,0.908-2.022,2.024-2.022h3.408c1.116,0,2.024,0.907,2.024,2.022v4.497c0,0.523-0.205,1.091-0.55,1.533
	c-0.017,0.028-0.037,0.056-0.06,0.081l-0.17,0.187l0.266-0.244c0.025-0.022,0.051-0.042,0.08-0.06
	c0.444-0.346,1.012-0.551,1.534-0.551h4.496c1.116,0,2.023,0.908,2.023,2.025v3.408C39.954,50.835,39.046,51.742,37.931,51.742z
	 M32.444,45.681l-2.508,2.296l2.35,2.209c0.305,0.344,0.762,0.557,1.148,0.557h4.496c0.564,0,1.023-0.459,1.023-1.023v-3.408
	c0-0.565-0.459-1.025-1.023-1.025h-4.496c-0.316,0-0.683,0.142-0.957,0.37C32.467,45.664,32.456,45.673,32.444,45.681z
	 M19.101,45.285c-0.564,0-1.023,0.46-1.023,1.025v3.408c0,0.564,0.459,1.023,1.023,1.023h4.496c0.387,0,0.842-0.213,1.108-0.517
	l2.39-2.19l-2.513-2.358c-0.01-0.007-0.019-0.015-0.028-0.021c-0.274-0.229-0.641-0.37-0.957-0.37H19.101z M26.903,37.819
	c-0.564,0-1.024,0.459-1.024,1.022v4.497c0,0.387,0.212,0.843,0.517,1.109l2.22,2.406c0.012,0,0.023-0.011,0.031-0.019l2.292-2.505
	c0.008-0.013,0.018-0.024,0.027-0.036c0.228-0.272,0.369-0.64,0.369-0.956v-4.497c0-0.563-0.459-1.022-1.024-1.022H26.903z
	 M105.742,50.398c-1.342,0-2.435-1.093-2.435-2.436s1.092-2.435,2.435-2.435c1.343,0,2.435,1.092,2.435,2.435
	S107.085,50.398,105.742,50.398z M105.742,46.528c-0.791,0-1.435,0.644-1.435,1.435c0,0.792,0.644,1.436,1.435,1.436
	c0.792,0,1.435-0.644,1.435-1.436C107.177,47.172,106.534,46.528,105.742,46.528z M91.213,49.997h-3.065c-0.276,0-0.5-0.224-0.5-0.5
	V46.43c0-0.276,0.224-0.5,0.5-0.5h3.065c0.276,0,0.5,0.224,0.5,0.5v3.067C91.713,49.773,91.489,49.997,91.213,49.997z
	 M88.647,48.997h2.065V46.93h-2.065V48.997z M81.798,44.026c-1.508,0-2.735-1.228-2.735-2.736v-4.6c0-1.508,1.227-2.735,2.735-2.735
	s2.735,1.228,2.735,2.735v4.6C84.533,42.799,83.306,44.026,81.798,44.026z M81.798,34.955c-0.957,0-1.735,0.778-1.735,1.735v4.6
	c0,0.957,0.778,1.736,1.735,1.736s1.735-0.779,1.735-1.736v-4.6C83.533,35.733,82.755,34.955,81.798,34.955z M44.202,44.026
	c-1.508,0-2.735-1.228-2.735-2.736v-4.6c0-1.508,1.227-2.735,2.735-2.735c1.509,0,2.736,1.228,2.736,2.735v4.6
	C46.938,42.799,45.71,44.026,44.202,44.026z M44.202,34.955c-0.957,0-1.735,0.778-1.735,1.735v4.6c0,0.957,0.778,1.736,1.735,1.736
	c0.957,0,1.736-0.779,1.736-1.736v-4.6C45.938,35.733,45.159,34.955,44.202,34.955z M99.336,41.769h-3.496
	c-0.18,0-0.345-0.097-0.434-0.252c-0.089-0.156-0.088-0.348,0.003-0.502l1.748-2.959c0.09-0.152,0.254-0.246,0.431-0.246l0,0
	c0.177,0,0.341,0.094,0.431,0.246l1.748,2.959c0.091,0.154,0.093,0.346,0.003,0.502C99.682,41.672,99.516,41.769,99.336,41.769z
	 M96.717,40.769h1.744l-0.872-1.476L96.717,40.769z"/>
</svg>
