<?xml version="1.0" encoding="utf-8"?>
<!-- Generator: Adobe Illustrator 16.0.0, SVG Export Plug-In . SVG Version: 6.00 Build 0)  -->
<!DOCTYPE svg PUBLIC "-//W3C//DTD SVG 1.1//EN" "http://www.w3.org/Graphics/SVG/1.1/DTD/svg11.dtd">
<svg version="1.1" id="Layer_1" xmlns="http://www.w3.org/2000/svg" xmlns:xlink="http://www.w3.org/1999/xlink" x="0px" y="0px"
	 width="126px" height="126px" viewBox="0 0 126 126" enable-background="new 0 0 126 126" xml:space="preserve">
<path d="M81.318,110.084H44.681c-3.981,0-7.22-3.238-7.22-7.22V23.136c0-3.981,3.239-7.22,7.22-7.22h36.638
	c3.981,0,7.221,3.238,7.221,7.22v79.729C88.539,106.846,85.3,110.084,81.318,110.084z M44.681,16.916c-3.43,0-6.22,2.79-6.22,6.22
	v79.729c0,3.43,2.79,6.22,6.22,6.22h36.638c3.43,0,6.221-2.79,6.221-6.22V23.136c0-3.43-2.791-6.22-6.221-6.22H44.681z
	 M65.346,106.674h-4.691c-1.761,0-3.193-1.432-3.193-3.192s1.433-3.192,3.193-3.192h4.691c1.761,0,3.193,1.432,3.193,3.192
	S67.106,106.674,65.346,106.674z M60.654,101.289c-1.209,0-2.193,0.983-2.193,2.192s0.984,2.192,2.193,2.192h4.691
	c1.209,0,2.193-0.983,2.193-2.192s-0.984-2.192-2.193-2.192H60.654z M85.693,99.164H40.307V26.836h45.386V99.164z M41.307,98.164
	h43.386V27.836H41.307V98.164z M67.496,22.088h-8.991c-0.461,0-0.836-0.375-0.836-0.836s0.375-0.836,0.836-0.836h8.991
	c0.461,0,0.836,0.375,0.836,0.836S67.957,22.088,67.496,22.088z M58.504,20.916c-0.186,0-0.336,0.15-0.336,0.336
	s0.151,0.336,0.336,0.336h8.991c0.186,0,0.336-0.15,0.336-0.336s-0.151-0.336-0.336-0.336H58.504z M49.858,22.439
	c-0.655,0-1.188-0.532-1.188-1.188s0.533-1.188,1.188-1.188s1.188,0.532,1.188,1.188S50.513,22.439,49.858,22.439z M49.858,20.564
	c-0.379,0-0.688,0.309-0.688,0.688s0.309,0.688,0.688,0.688s0.688-0.309,0.688-0.688S50.237,20.564,49.858,20.564z M45.608,23.002
	c-0.965,0-1.75-0.785-1.75-1.75s0.785-1.75,1.75-1.75s1.75,0.785,1.75,1.75S46.573,23.002,45.608,23.002z M45.608,20.002
	c-0.689,0-1.25,0.561-1.25,1.25s0.561,1.25,1.25,1.25s1.25-0.561,1.25-1.25S46.298,20.002,45.608,20.002z"/>
</svg>
