<?xml version="1.0" encoding="utf-8"?>
<!-- Generator: Adobe Illustrator 16.0.0, SVG Export Plug-In . SVG Version: 6.00 Build 0)  -->
<!DOCTYPE svg PUBLIC "-//W3C//DTD SVG 1.1//EN" "http://www.w3.org/Graphics/SVG/1.1/DTD/svg11.dtd">
<svg version="1.1" id="Layer_1" xmlns="http://www.w3.org/2000/svg" xmlns:xlink="http://www.w3.org/1999/xlink" x="0px" y="0px"
	 width="126px" height="126px" viewBox="0 0 126 126" enable-background="new 0 0 126 126" xml:space="preserve">
<path d="M74.664,103.406H50.098c-2.091,0-3.148-0.32-3.43-1.035c-0.253-0.646,0.296-1.182,0.359-1.24l0.145-0.094
	c3.53-1.496,4.381-8.541,4.585-12.027H9.963c-1.331,0-2.414-1.084-2.414-2.416L7.547,26.428c0-2.068,1.684-3.75,3.752-3.75h103.402
	c2.067,0,3.75,1.682,3.75,3.75l-0.008,60.166c0,1.354-1.042,2.416-2.371,2.416H73.005c0.202,3.486,1.05,10.529,4.585,12.027
	l0.145,0.094c0.063,0.059,0.612,0.594,0.359,1.24C77.813,103.086,76.755,103.406,74.664,103.406z M47.604,102.028
	c0.014,0,0.334,0.378,2.494,0.378h24.566c2.228,0,2.498-0.402,2.501-0.406c-0.007-0.008-0.038-0.05-0.067-0.087
	c-4.007-1.813-4.928-9.147-5.118-13.382l-0.024-0.521h44.117c0.769,0,1.371-0.623,1.371-1.416l0.008-60.166
	c0-1.517-1.233-2.75-2.75-2.75H11.299c-1.518,0-2.752,1.233-2.752,2.75l0.002,60.166c0,0.78,0.635,1.416,1.414,1.416h42.844
	l-0.024,0.522c-0.192,4.233-1.116,11.567-5.116,13.38C47.634,101.955,47.606,102.004,47.604,102.028L47.604,102.028z M62.535,89.996
	c-1.169,0-2.119-0.951-2.119-2.119s0.95-2.119,2.119-2.119s2.119,0.951,2.119,2.119S63.704,89.996,62.535,89.996z M62.535,86.758
	c-0.617,0-1.119,0.502-1.119,1.119s0.502,1.119,1.119,1.119s1.119-0.502,1.119-1.119S63.152,86.758,62.535,86.758z M115.201,84.581
	H10.799V26.684c0-0.529,0.431-0.961,0.959-0.961H114.24c0.53,0,0.961,0.432,0.961,0.961V84.581z M11.799,83.581h102.402V26.684
	L11.799,26.723V83.581z"/>
</svg>
