<?xml version="1.0" encoding="utf-8"?>
<!-- Generator: Adobe Illustrator 16.0.0, SVG Export Plug-In . SVG Version: 6.00 Build 0)  -->
<!DOCTYPE svg PUBLIC "-//W3C//DTD SVG 1.1//EN" "http://www.w3.org/Graphics/SVG/1.1/DTD/svg11.dtd">
<svg version="1.1" id="Layer_1" xmlns="http://www.w3.org/2000/svg" xmlns:xlink="http://www.w3.org/1999/xlink" x="0px" y="0px"
	 width="126px" height="126px" viewBox="0 0 126 126" enable-background="new 0 0 126 126" xml:space="preserve">
<path d="M96.25,9.676h-66.5c-1.656,0-3,1.343-3,3v101.5c0,1.657,1.344,3,3,3h66.5c1.656,0,3-1.343,3-3v-101.5
	C99.25,11.019,97.906,9.676,96.25,9.676z M63,113.426c-1.381,0-2.5-1.119-2.5-2.5s1.119-2.5,2.5-2.5s2.5,1.119,2.5,2.5
	S64.381,113.426,63,113.426z M95.583,106.092H30.417V16.759h65.166V106.092z"/>
</svg>
