<?xml version="1.0" encoding="utf-8"?>
<!-- Generator: Adobe Illustrator 16.0.0, SVG Export Plug-In . SVG Version: 6.00 Build 0)  -->
<!DOCTYPE svg PUBLIC "-//W3C//DTD SVG 1.1//EN" "http://www.w3.org/Graphics/SVG/1.1/DTD/svg11.dtd">
<svg version="1.1" id="Layer_1" xmlns="http://www.w3.org/2000/svg" xmlns:xlink="http://www.w3.org/1999/xlink" x="0px" y="0px"
	 width="126px" height="126px" viewBox="0 0 126 126" enable-background="new 0 0 126 126" xml:space="preserve">
<path d="M82.822,111.688H43.177c-3.83,0-6.946-3.116-6.946-6.946V21.259c0-3.83,3.116-6.946,6.946-6.946h39.646
	c3.831,0,6.947,3.116,6.947,6.946v83.482C89.77,108.571,86.653,111.688,82.822,111.688z M43.177,15.313
	c-3.278,0-5.946,2.668-5.946,5.946v83.482c0,3.278,2.668,5.946,5.946,5.946h39.646c3.279,0,5.947-2.668,5.947-5.946V21.259
	c0-3.278-2.668-5.946-5.947-5.946H43.177z M67.5,108.416h-9c-1.7,0-3.084-1.383-3.084-3.083s1.384-3.083,3.084-3.083h9
	c1.7,0,3.084,1.383,3.084,3.083S69.2,108.416,67.5,108.416z M58.5,103.25c-1.149,0-2.084,0.935-2.084,2.083s0.935,2.083,2.084,2.083
	h9c1.149,0,2.084-0.935,2.084-2.083s-0.935-2.083-2.084-2.083H58.5z M87.039,101.212H38.961V24.788h48.078V101.212z M39.961,100.212
	h46.078V25.788H39.961V100.212z M69.563,20.792H56.438c-0.448,0-0.813-0.364-0.813-0.813s0.364-0.813,0.813-0.813h13.125
	c0.448,0,0.813,0.364,0.813,0.813S70.011,20.792,69.563,20.792z M56.438,19.667c-0.172,0-0.313,0.141-0.313,0.313
	s0.141,0.313,0.313,0.313h13.125c0.172,0,0.313-0.141,0.313-0.313s-0.141-0.313-0.313-0.313H56.438z"/>
</svg>
