<?xml version="1.0" encoding="utf-8"?>
<!-- Generator: Adobe Illustrator 16.0.0, SVG Export Plug-In . SVG Version: 6.00 Build 0)  -->
<!DOCTYPE svg PUBLIC "-//W3C//DTD SVG 1.1//EN" "http://www.w3.org/Graphics/SVG/1.1/DTD/svg11.dtd">
<svg version="1.1" id="Layer_1" xmlns="http://www.w3.org/2000/svg" xmlns:xlink="http://www.w3.org/1999/xlink" x="0px" y="0px"
	 width="126px" height="126px" viewBox="0 0 126 126" enable-background="new 0 0 126 126" xml:space="preserve">
<path d="M78.631,114H47.369c-5.958,0-10.806-4.848-10.806-10.807V22.807C36.563,16.848,41.411,12,47.369,12h31.262
	c5.958,0,10.806,4.848,10.806,10.807v80.387C89.437,109.152,84.589,114,78.631,114z M47.369,13c-5.407,0-9.806,4.399-9.806,9.807
	v80.387c0,5.407,4.399,9.807,9.806,9.807h31.262c5.407,0,9.806-4.399,9.806-9.807V22.807c0-5.407-4.399-9.807-9.806-9.807H47.369z
	 M67.383,111.309h-8.766c-1.719,0-3.117-1.398-3.117-3.117v-0.5h15v0.5C70.5,109.91,69.102,111.309,67.383,111.309z M56.56,108.691
	c0.225,0.927,1.063,1.617,2.058,1.617h8.766c0.995,0,1.833-0.69,2.058-1.617H56.56z M86.055,103.229h-46.11V22.771h46.11V103.229z
	 M40.945,102.229h44.11V23.771h-44.11V102.229z M77.313,21.417c-0.896,0-1.625-0.729-1.625-1.625s0.729-1.625,1.625-1.625
	s1.625,0.729,1.625,1.625S78.208,21.417,77.313,21.417z M77.313,18.667c-0.62,0-1.125,0.505-1.125,1.125s0.505,1.125,1.125,1.125
	s1.125-0.505,1.125-1.125S77.933,18.667,77.313,18.667z M72.188,21.167c-0.551,0-1-0.448-1-1s0.449-1,1-1s1,0.448,1,1
	S72.739,21.167,72.188,21.167z M72.188,19.667c-0.276,0-0.5,0.225-0.5,0.5s0.224,0.5,0.5,0.5s0.5-0.225,0.5-0.5
	S72.463,19.667,72.188,19.667z M69.75,21.167c-0.551,0-1-0.448-1-1s0.449-1,1-1s1,0.448,1,1S70.301,21.167,69.75,21.167z
	 M69.75,19.667c-0.276,0-0.5,0.225-0.5,0.5s0.224,0.5,0.5,0.5s0.5-0.225,0.5-0.5S70.026,19.667,69.75,19.667z M68.375,18.167h-11.5
	c-0.482,0-0.875-0.393-0.875-0.875s0.393-0.875,0.875-0.875h11.5c0.482,0,0.875,0.393,0.875,0.875S68.857,18.167,68.375,18.167z
	 M56.875,16.917c-0.207,0-0.375,0.168-0.375,0.375s0.168,0.375,0.375,0.375h11.5c0.207,0,0.375-0.168,0.375-0.375
	s-0.168-0.375-0.375-0.375H56.875z"/>
</svg>
