<?xml version="1.0" encoding="utf-8"?>
<!-- Generator: Adobe Illustrator 16.0.0, SVG Export Plug-In . SVG Version: 6.00 Build 0)  -->
<!DOCTYPE svg PUBLIC "-//W3C//DTD SVG 1.1//EN" "http://www.w3.org/Graphics/SVG/1.1/DTD/svg11.dtd">
<svg version="1.1" id="Layer_1" xmlns="http://www.w3.org/2000/svg" xmlns:xlink="http://www.w3.org/1999/xlink" x="0px" y="0px"
	 width="126px" height="126px" viewBox="0 0 126 126" enable-background="new 0 0 126 126" xml:space="preserve">
<path d="M81.5,10.926h-37c-5.523,0-10,4.478-10,10v85c0,5.522,4.477,10,10,10h37c5.523,0,10-4.478,10-10v-85
	C91.5,15.403,87.023,10.926,81.5,10.926z M63,113.093c-2.532,0-4.581-2.003-4.687-4.509c0.024-2.566,2.115-4.647,4.687-4.647
	s4.663,2.081,4.687,4.647C67.581,111.09,65.532,113.093,63,113.093z M89.171,99.203c0,5.071-4.111,9.183-9.183,9.183H68.679
	c-0.128-3.026-2.623-5.449-5.679-5.449s-5.551,2.423-5.679,5.449H46.012c-5.072,0-9.183-4.111-9.183-9.183V96.06
	c1.042,3.3,4.131,5.698,7.771,5.698h36.802c3.64,0,6.728-2.398,7.771-5.698V99.203z M37.451,93.609V29.094h51.099v64.516
	c0,3.941-3.207,7.148-7.148,7.148H44.599C40.657,100.758,37.451,97.551,37.451,93.609z M89.171,28.094H36.829v-0.445
	c0-5.071,4.111-9.183,9.183-9.183h33.977c5.072,0,9.183,4.111,9.183,9.183V28.094z M60.417,20.76c0,0.828-0.671,1.5-1.5,1.5
	s-1.5-0.672-1.5-1.5s0.671-1.5,1.5-1.5S60.417,19.932,60.417,20.76z M64.583,20.76c0,0.828-0.671,1.5-1.5,1.5s-1.5-0.672-1.5-1.5
	s0.671-1.5,1.5-1.5S64.583,19.932,64.583,20.76z M68.583,20.76c0,0.828-0.671,1.5-1.5,1.5s-1.5-0.672-1.5-1.5s0.671-1.5,1.5-1.5
	S68.583,19.932,68.583,20.76z"/>
</svg>
