<?xml version="1.0" encoding="utf-8"?>
<!-- Generator: Adobe Illustrator 16.0.0, SVG Export Plug-In . SVG Version: 6.00 Build 0)  -->
<!DOCTYPE svg PUBLIC "-//W3C//DTD SVG 1.1//EN" "http://www.w3.org/Graphics/SVG/1.1/DTD/svg11.dtd">
<svg version="1.1" id="Layer_1" xmlns="http://www.w3.org/2000/svg" xmlns:xlink="http://www.w3.org/1999/xlink" x="0px" y="0px"
	 width="126px" height="126px" viewBox="0 0 126 126" enable-background="new 0 0 126 126" xml:space="preserve">
<path d="M87.808,119.506H38.192c-5.25,0-9.521-4.271-9.521-9.521V16.016c0-5.25,4.271-9.521,9.521-9.521h49.616
	c5.25,0,9.521,4.271,9.521,9.521v93.969C97.329,115.234,93.058,119.506,87.808,119.506z M38.192,7.494
	c-4.699,0-8.521,3.822-8.521,8.521v93.969c0,4.699,3.822,8.521,8.521,8.521h49.616c4.699,0,8.521-3.822,8.521-8.521V16.016
	c0-4.699-3.822-8.521-8.521-8.521H38.192z M91.957,66.5H34.043v-48h57.914V66.5z M35.043,65.5h55.914v-46H35.043V65.5z
	 M69.266,11.333h-12.75c-0.414,0-0.75-0.337-0.75-0.75s0.336-0.75,0.75-0.75h12.75c0.414,0,0.75,0.337,0.75,0.75
	S69.679,11.333,69.266,11.333z M56.516,10.333c-0.138,0-0.25,0.112-0.25,0.25s0.112,0.25,0.25,0.25h12.75
	c0.138,0,0.25-0.112,0.25-0.25s-0.112-0.25-0.25-0.25H56.516z M87.367,70.729h-10.93v-2.791H93.42l-0.488,0.437
	C92.825,68.471,90.264,70.729,87.367,70.729z M76.938,70.229h10.43c1.949,0,3.79-1.143,4.678-1.791H76.938V70.229z M76.479,70.729
	H62.78v-2.791h13.699V70.729z M63.28,70.229h12.699v-1.791H63.28V70.229z M62.821,70.729H49.447v-2.791h13.374V70.729z
	 M49.947,70.229h12.374v-1.791H49.947V70.229z M37.172,105.271h-5.188V97.74h5.188V105.271z M32.484,104.771h4.188V98.24h-4.188
	V104.771z M37.172,96.871h-5.188V89.34h5.188V96.871z M32.484,96.371h4.188V89.84h-4.188V96.371z M37.172,88.396h-5.188v-7.531
	h5.188V88.396z M32.484,87.896h4.188v-6.531h-4.188V87.896z M37.172,79.989h-5.188v-7.531h5.188V79.989z M32.484,79.489h4.188
	v-6.531h-4.188V79.489z M42.794,105.271h-5.188V97.74h5.188V105.271z M38.106,104.771h4.188V98.24h-4.188V104.771z M42.794,96.871
	h-5.188V89.34h5.188V96.871z M38.106,96.371h4.188V89.84h-4.188V96.371z M42.794,88.396h-5.188v-7.531h5.188V88.396z M38.106,87.896
	h4.188v-6.531h-4.188V87.896z M42.794,79.989h-5.188v-7.531h5.188V79.989z M38.106,79.489h4.188v-6.531h-4.188V79.489z
	 M48.597,105.271H43.41V97.74h5.187V105.271z M43.91,104.771h4.187V98.24H43.91V104.771z M48.597,96.871H43.41V89.34h5.187V96.871z
	 M43.91,96.371h4.187V89.84H43.91V96.371z M48.597,88.396H43.41v-7.531h5.187V88.396z M43.91,87.896h4.187v-6.531H43.91V87.896z
	 M48.597,79.989H43.41v-7.531h5.187V79.989z M43.91,79.489h4.187v-6.531H43.91V79.489z M49.488,70.729H38.56
	c-2.898,0-5.458-2.259-5.565-2.354l-0.488-0.437h16.982V70.729z M33.882,68.438c0.889,0.648,2.73,1.791,4.677,1.791h10.429v-1.791
	H33.882z M54.223,105.271h-5.188V97.74h5.188V105.271z M49.535,104.771h4.188V98.24h-4.188V104.771z M54.223,96.871h-5.188V89.34
	h5.188V96.871z M49.535,96.371h4.188V89.84h-4.188V96.371z M54.223,88.396h-5.188v-7.531h5.188V88.396z M49.535,87.896h4.188v-6.531
	h-4.188V87.896z M54.223,79.989h-5.188v-7.531h5.188V79.989z M49.535,79.489h4.188v-6.531h-4.188V79.489z M59.844,105.271h-5.188
	V97.74h5.188V105.271z M55.156,104.771h4.188V98.24h-4.188V104.771z M59.844,96.871h-5.188V89.34h5.188V96.871z M55.156,96.371
	h4.188V89.84h-4.188V96.371z M59.844,88.396h-5.188v-7.531h5.188V88.396z M55.156,87.896h4.188v-6.531h-4.188V87.896z
	 M59.844,79.989h-5.188v-7.531h5.188V79.989z M55.156,79.489h4.188v-6.531h-4.188V79.489z M65.647,105.271H60.46V97.74h5.188
	V105.271z M60.96,104.771h4.188V98.24H60.96V104.771z M65.647,96.871H60.46V89.34h5.188V96.871z M60.96,96.371h4.188V89.84H60.96
	V96.371z M65.647,88.396H60.46v-7.531h5.188V88.396z M60.96,87.896h4.188v-6.531H60.96V87.896z M65.647,79.989H60.46v-7.531h5.188
	V79.989z M60.96,79.489h4.188v-6.531H60.96V79.489z M71.27,105.271h-5.188V97.74h5.188V105.271z M66.582,104.771h4.188V98.24h-4.188
	V104.771z M71.27,96.871h-5.188V89.34h5.188V96.871z M66.582,96.371h4.188V89.84h-4.188V96.371z M71.27,88.396h-5.188v-7.531h5.188
	V88.396z M66.582,87.896h4.188v-6.531h-4.188V87.896z M71.27,79.989h-5.188v-7.531h5.188V79.989z M66.582,79.489h4.188v-6.531
	h-4.188V79.489z M76.969,105.271h-5.188V97.74h5.188V105.271z M72.281,104.771h4.188V98.24h-4.188V104.771z M76.969,96.871h-5.188
	V89.34h5.188V96.871z M72.281,96.371h4.188V89.84h-4.188V96.371z M76.969,88.396h-5.188v-7.531h5.188V88.396z M72.281,87.896h4.188
	v-6.531h-4.188V87.896z M76.969,79.989h-5.188v-7.531h5.188V79.989z M72.281,79.489h4.188v-6.531h-4.188V79.489z M82.59,105.271
	h-5.187V97.74h5.187V105.271z M77.903,104.771h4.187V98.24h-4.187V104.771z M82.59,96.871h-5.187V89.34h5.187V96.871z
	 M77.903,96.371h4.187V89.84h-4.187V96.371z M82.59,88.396h-5.187v-7.531h5.187V88.396z M77.903,87.896h4.187v-6.531h-4.187V87.896z
	 M82.59,79.989h-5.187v-7.531h5.187V79.989z M77.903,79.489h4.187v-6.531h-4.187V79.489z M85.724,116.251
	c-0.873,0-1.583-0.711-1.583-1.584s0.71-1.584,1.583-1.584c0.874,0,1.584,0.711,1.584,1.584S86.597,116.251,85.724,116.251z
	 M85.724,113.583c-0.597,0-1.083,0.486-1.083,1.084s0.486,1.084,1.083,1.084c0.598,0,1.084-0.486,1.084-1.084
	S86.321,113.583,85.724,113.583z M88.394,105.271h-5.188V97.74h5.188V105.271z M83.706,104.771h4.188V98.24h-4.188V104.771z
	 M88.394,96.871h-5.188V89.34h5.188V96.871z M83.706,96.371h4.188V89.84h-4.188V96.371z M88.394,88.396h-5.188v-7.531h5.188V88.396z
	 M83.706,87.896h4.188v-6.531h-4.188V87.896z M88.394,79.989h-5.188v-7.531h5.188V79.989z M83.706,79.489h4.188v-6.531h-4.188
	V79.489z M94.016,105.271h-5.188V97.74h5.188V105.271z M89.328,104.771h4.188V98.24h-4.188V104.771z M94.016,96.871h-5.188V89.34
	h5.188V96.871z M89.328,96.371h4.188V89.84h-4.188V96.371z M94.016,88.396h-5.188v-7.531h5.188V88.396z M89.328,87.896h4.188v-6.531
	h-4.188V87.896z M94.016,79.989h-5.188v-7.531h5.188V79.989z M89.328,79.489h4.188v-6.531h-4.188V79.489z"/>
</svg>
