<?xml version="1.0" encoding="utf-8"?>
<!-- Generator: Adobe Illustrator 16.0.0, SVG Export Plug-In . SVG Version: 6.00 Build 0)  -->
<!DOCTYPE svg PUBLIC "-//W3C//DTD SVG 1.1//EN" "http://www.w3.org/Graphics/SVG/1.1/DTD/svg11.dtd">
<svg version="1.1" id="Layer_1" xmlns="http://www.w3.org/2000/svg" xmlns:xlink="http://www.w3.org/1999/xlink" x="0px" y="0px"
	 width="126px" height="126px" viewBox="0 0 126 126" enable-background="new 0 0 126 126" xml:space="preserve">
<path d="M96.5,10.75h-67c-1.93,0-3.5,1.57-3.5,3.5v97.5c0,1.93,1.57,3.5,3.5,3.5h67c1.93,0,3.5-1.57,3.5-3.5v-97.5
	C100,12.32,98.43,10.75,96.5,10.75z M60.917,15.333h4.167c0.276,0,0.5,0.224,0.5,0.5s-0.224,0.5-0.5,0.5h-4.167
	c-0.276,0-0.5-0.224-0.5-0.5S60.64,15.333,60.917,15.333z M63,112.667c-1.473,0-2.667-1.194-2.667-2.667s1.194-2.667,2.667-2.667
	s2.667,1.194,2.667,2.667S64.473,112.667,63,112.667z M95.5,104.5H30.351v-84H95.5V104.5z"/>
</svg>
