<?xml version="1.0" encoding="utf-8"?>
<!-- Generator: Adobe Illustrator 16.0.0, SVG Export Plug-In . SVG Version: 6.00 Build 0)  -->
<!DOCTYPE svg PUBLIC "-//W3C//DTD SVG 1.1//EN" "http://www.w3.org/Graphics/SVG/1.1/DTD/svg11.dtd">
<svg version="1.1" id="Layer_1" xmlns="http://www.w3.org/2000/svg" xmlns:xlink="http://www.w3.org/1999/xlink" x="0px" y="0px"
	 width="126px" height="126px" viewBox="0 0 126 126" enable-background="new 0 0 126 126" xml:space="preserve">
<path d="M94.532,112.881H31.468c-3.556,0-6.45-2.894-6.45-6.449V19.568c0-3.556,2.894-6.449,6.45-6.449h63.064
	c3.556,0,6.45,2.894,6.45,6.449v86.863C100.982,109.987,98.088,112.881,94.532,112.881z M31.468,14.119
	c-3.005,0-5.45,2.444-5.45,5.449v86.863c0,3.005,2.445,5.449,5.45,5.449h63.064c3.005,0,5.45-2.444,5.45-5.449V19.568
	c0-3.005-2.445-5.449-5.45-5.449H31.468z M63,109.608c-1.259,0-2.284-1.025-2.284-2.285s1.025-2.284,2.284-2.284
	c1.26,0,2.285,1.024,2.285,2.284S64.26,109.608,63,109.608z M63,106.039c-0.708,0-1.284,0.576-1.284,1.284
	c0,0.709,0.576,1.285,1.284,1.285c0.708,0,1.285-0.576,1.285-1.285C64.285,106.615,63.708,106.039,63,106.039z M93.843,104.104
	H32.157V21.896h61.686V104.104z M33.157,103.104h59.686V22.896H33.157V103.104z M63,19.325c-0.768,0-1.393-0.625-1.393-1.393
	S62.232,16.54,63,16.54s1.393,0.625,1.393,1.393S63.768,19.325,63,19.325z M63,17.54c-0.216,0-0.393,0.176-0.393,0.393
	s0.176,0.393,0.393,0.393s0.393-0.176,0.393-0.393S63.216,17.54,63,17.54z"/>
</svg>
