<?xml version="1.0" encoding="utf-8"?>
<!-- Generator: Adobe Illustrator 16.0.0, SVG Export Plug-In . SVG Version: 6.00 Build 0)  -->
<!DOCTYPE svg PUBLIC "-//W3C//DTD SVG 1.1//EN" "http://www.w3.org/Graphics/SVG/1.1/DTD/svg11.dtd">
<svg version="1.1" id="Layer_1" xmlns="http://www.w3.org/2000/svg" xmlns:xlink="http://www.w3.org/1999/xlink" x="0px" y="0px"
	 width="126px" height="126px" viewBox="0 0 126 126" enable-background="new 0 0 126 126" xml:space="preserve">
<path d="M94.127,14.68H31.873c-3.238,0-5.873,2.635-5.873,5.873v85.746c0,3.238,2.635,5.873,5.873,5.873h62.254
	c3.238,0,5.873-2.635,5.873-5.873V20.553C100,17.314,97.365,14.68,94.127,14.68z M63,18.057c0.486,0,0.881,0.395,0.881,0.881
	S63.486,19.818,63,19.818s-0.881-0.395-0.881-0.881S62.514,18.057,63,18.057z M63,108.941c-0.973,0-1.762-0.788-1.762-1.762
	c0-0.973,0.789-1.762,1.762-1.762s1.762,0.789,1.762,1.762C64.762,108.153,63.973,108.941,63,108.941z M95.302,103.509H30.698
	V23.342h64.604V103.509z"/>
</svg>
