<?xml version="1.0" encoding="utf-8"?>
<!-- Generator: Adobe Illustrator 16.0.0, SVG Export Plug-In . SVG Version: 6.00 Build 0)  -->
<!DOCTYPE svg PUBLIC "-//W3C//DTD SVG 1.1//EN" "http://www.w3.org/Graphics/SVG/1.1/DTD/svg11.dtd">
<svg version="1.1" id="Layer_1" xmlns="http://www.w3.org/2000/svg" xmlns:xlink="http://www.w3.org/1999/xlink" x="0px" y="0px"
	 width="126px" height="126px" viewBox="0 0 126 126" enable-background="new 0 0 126 126" xml:space="preserve">
<path d="M94.127,112.246H31.873c-3.514,0-6.373-2.859-6.373-6.373V20.127c0-3.514,2.859-6.373,6.373-6.373h62.254
	c3.514,0,6.373,2.859,6.373,6.373v85.746C100.5,109.387,97.641,112.246,94.127,112.246z M31.873,14.754
	c-2.963,0-5.373,2.41-5.373,5.373v85.746c0,2.963,2.41,5.373,5.373,5.373h62.254c2.963,0,5.373-2.41,5.373-5.373V20.127
	c0-2.963-2.41-5.373-5.373-5.373H31.873z M63,109.016c-1.247,0-2.262-1.015-2.262-2.262s1.015-2.262,2.262-2.262
	s2.262,1.015,2.262,2.262S64.247,109.016,63,109.016z M63,105.492c-0.696,0-1.262,0.566-1.262,1.262s0.566,1.262,1.262,1.262
	s1.262-0.566,1.262-1.262S63.696,105.492,63,105.492z M95.802,103.583H30.198V22.417h65.604V103.583z M31.198,102.583h63.604V23.417
	H31.198V102.583z M63,19.893c-0.761,0-1.381-0.619-1.381-1.381s0.62-1.381,1.381-1.381s1.381,0.619,1.381,1.381
	S63.761,19.893,63,19.893z M63,18.131c-0.21,0-0.381,0.171-0.381,0.381S62.79,18.893,63,18.893s0.381-0.171,0.381-0.381
	S63.21,18.131,63,18.131z"/>
</svg>
