<?xml version="1.0" encoding="utf-8"?>
<!-- Generator: Adobe Illustrator 16.0.0, SVG Export Plug-In . SVG Version: 6.00 Build 0)  -->
<!DOCTYPE svg PUBLIC "-//W3C//DTD SVG 1.1//EN" "http://www.w3.org/Graphics/SVG/1.1/DTD/svg11.dtd">
<svg version="1.1" id="Layer_1" xmlns="http://www.w3.org/2000/svg" xmlns:xlink="http://www.w3.org/1999/xlink" x="0px" y="0px"
	 width="126px" height="126px" viewBox="0 0 126 126" enable-background="new 0 0 126 126" xml:space="preserve">
<path d="M94.532,14.045H31.468c-3.281,0-5.95,2.669-5.95,5.949v86.863c0,3.28,2.669,5.949,5.95,5.949h63.064
	c3.28,0,5.95-2.669,5.95-5.949V19.994C100.482,16.714,97.813,14.045,94.532,14.045z M63,17.466c0.493,0,0.893,0.4,0.893,0.893
	c0,0.492-0.4,0.893-0.893,0.893s-0.893-0.4-0.893-0.893C62.107,17.866,62.507,17.466,63,17.466z M63,109.534
	c-0.986,0-1.784-0.799-1.784-1.785s0.798-1.785,1.784-1.785s1.785,0.799,1.785,1.785S63.986,109.534,63,109.534z M93.343,104.031
	H32.657v-81.21h60.686V104.031z"/>
</svg>
