<?xml version="1.0" encoding="utf-8"?>
<!-- Generator: Adobe Illustrator 16.0.0, SVG Export Plug-In . SVG Version: 6.00 Build 0)  -->
<!DOCTYPE svg PUBLIC "-//W3C//DTD SVG 1.1//EN" "http://www.w3.org/Graphics/SVG/1.1/DTD/svg11.dtd">
<svg version="1.1" id="Layer_1" xmlns="http://www.w3.org/2000/svg" xmlns:xlink="http://www.w3.org/1999/xlink" x="0px" y="0px"
	 width="126px" height="126px" viewBox="0 0 126 126" enable-background="new 0 0 126 126" xml:space="preserve">
<path d="M117.035,104.669H8.965c-1.222,0-2.215-0.993-2.215-2.215V23.546c0-1.222,0.993-2.215,2.215-2.215h108.07
	c1.222,0,2.215,0.993,2.215,2.215v78.908C119.25,103.676,118.257,104.669,117.035,104.669z M8.965,22.331
	c-0.67,0-1.215,0.545-1.215,1.215v78.908c0,0.67,0.545,1.215,1.215,1.215h108.07c0.67,0,1.215-0.545,1.215-1.215V23.546
	c0-0.67-0.545-1.215-1.215-1.215H8.965z M112.389,96.594H13.611V28.406h98.777V96.594z M14.611,95.594h96.777V29.406H14.611V95.594z
	 M60.726,102.895l2.034-0.449v-2.025l-2.034,0.398V102.895z M60.726,100.33l2.034-0.399v-2.036l-2.034,0.448V100.33z M63.24,102.34
	l2.034-0.448v-1.966l-2.034,0.398V102.34z M63.24,97.79v2.045l2.034-0.398V97.34L63.24,97.79z"/>
</svg>
