<?xml version="1.0" encoding="utf-8"?>
<!-- Generator: Adobe Illustrator 16.0.0, SVG Export Plug-In . SVG Version: 6.00 Build 0)  -->
<!DOCTYPE svg PUBLIC "-//W3C//DTD SVG 1.1//EN" "http://www.w3.org/Graphics/SVG/1.1/DTD/svg11.dtd">
<svg version="1.1" id="Layer_1" xmlns="http://www.w3.org/2000/svg" xmlns:xlink="http://www.w3.org/1999/xlink" x="0px" y="0px"
	 width="126px" height="126px" viewBox="0 0 126 126" enable-background="new 0 0 126 126" xml:space="preserve">
<path d="M96.5,115.875h-67c-2.206,0-4-1.795-4-4v-97.5c0-2.205,1.794-4,4-4h67c2.206,0,4,1.795,4,4v97.5
	C100.5,114.08,98.706,115.875,96.5,115.875z M29.5,11.375c-1.654,0-3,1.346-3,3v97.5c0,1.654,1.346,3,3,3h67c1.654,0,3-1.346,3-3
	v-97.5c0-1.654-1.346-3-3-3H29.5z M63,113.291c-1.746,0-3.167-1.42-3.167-3.166s1.42-3.166,3.167-3.166s3.167,1.42,3.167,3.166
	S64.746,113.291,63,113.291z M63,107.959c-1.195,0-2.167,0.971-2.167,2.166s0.972,2.166,2.167,2.166s2.167-0.971,2.167-2.166
	S64.195,107.959,63,107.959z M96,105.125H29.851v-85H96V105.125z M30.851,104.125H95v-83H30.851V104.125z M65.083,16.959h-4.167
	c-0.551,0-1-0.449-1-1c0-0.553,0.449-1,1-1h4.167c0.551,0,1,0.447,1,1C66.083,16.51,65.635,16.959,65.083,16.959z"/>
</svg>
