<?xml version="1.0" encoding="utf-8"?>
<!-- Generator: Adobe Illustrator 16.0.0, SVG Export Plug-In . SVG Version: 6.00 Build 0)  -->
<!DOCTYPE svg PUBLIC "-//W3C//DTD SVG 1.1//EN" "http://www.w3.org/Graphics/SVG/1.1/DTD/svg11.dtd">
<svg version="1.1" id="Layer_1" xmlns="http://www.w3.org/2000/svg" xmlns:xlink="http://www.w3.org/1999/xlink" x="0px" y="0px"
	 width="126px" height="126px" viewBox="0 0 126 126" enable-background="new 0 0 126 126" xml:space="preserve">
<path d="M85.167,108.708H40.833c-2.481,0-4.5-2.019-4.5-4.5V21.875c0-2.481,2.019-4.5,4.5-4.5h44.333c2.481,0,4.5,2.019,4.5,4.5
	v82.333C89.667,106.689,87.648,108.708,85.167,108.708z M40.833,18.375c-1.93,0-3.5,1.57-3.5,3.5v82.333c0,1.93,1.57,3.5,3.5,3.5
	h44.333c1.93,0,3.5-1.57,3.5-3.5V21.875c0-1.93-1.57-3.5-3.5-3.5H40.833z M85.243,91.083H40.757V22.667h44.485V91.083z
	 M41.757,90.083h42.485V23.667H41.757V90.083z M63,103.833c-2.826,0-5.125-2.299-5.125-5.125s2.299-5.125,5.125-5.125
	s5.125,2.299,5.125,5.125S65.826,103.833,63,103.833z M63,94.583c-2.274,0-4.125,1.851-4.125,4.125s1.851,4.125,4.125,4.125
	s4.125-1.851,4.125-4.125S65.274,94.583,63,94.583z"/>
</svg>
