<?xml version="1.0" encoding="utf-8"?>
<!-- Generator: Adobe Illustrator 16.0.0, SVG Export Plug-In . SVG Version: 6.00 Build 0)  -->
<!DOCTYPE svg PUBLIC "-//W3C//DTD SVG 1.1//EN" "http://www.w3.org/Graphics/SVG/1.1/DTD/svg11.dtd">
<svg version="1.1" id="Layer_1" xmlns="http://www.w3.org/2000/svg" xmlns:xlink="http://www.w3.org/1999/xlink" x="0px" y="0px"
	 width="126px" height="126px" viewBox="0 0 126 126" enable-background="new 0 0 126 126" xml:space="preserve">
<path d="M96.25,117.25h-66.5c-1.93,0-3.5-1.57-3.5-3.5V12.25c0-1.93,1.57-3.5,3.5-3.5h66.5c1.93,0,3.5,1.57,3.5,3.5v101.5
	C99.75,115.68,98.18,117.25,96.25,117.25z M29.75,9.75c-1.379,0-2.5,1.121-2.5,2.5v101.5c0,1.379,1.121,2.5,2.5,2.5h66.5
	c1.379,0,2.5-1.121,2.5-2.5V12.25c0-1.379-1.121-2.5-2.5-2.5H29.75z M63,113.5c-1.654,0-3-1.346-3-3s1.346-3,3-3s3,1.346,3,3
	S64.654,113.5,63,113.5z M63,108.5c-1.103,0-2,0.897-2,2s0.897,2,2,2s2-0.897,2-2S64.103,108.5,63,108.5z M96.083,106.167H29.917
	V15.833h66.166V106.167z M30.917,105.167h64.166V16.833H30.917V105.167z"/>
</svg>
