<?xml version="1.0" encoding="utf-8"?>
<!-- Generator: Adobe Illustrator 16.0.0, SVG Export Plug-In . SVG Version: 6.00 Build 0)  -->
<!DOCTYPE svg PUBLIC "-//W3C//DTD SVG 1.1//EN" "http://www.w3.org/Graphics/SVG/1.1/DTD/svg11.dtd">
<svg version="1.1" id="Layer_1" xmlns="http://www.w3.org/2000/svg" xmlns:xlink="http://www.w3.org/1999/xlink" x="0px" y="0px"
	 width="126px" height="126px" viewBox="0 0 126 126" enable-background="new 0 0 126 126" xml:space="preserve">
<path d="M26.828,114.715V42.789l6.701,0.543l41.73,8.582v25.82l-0.219,0.148c-0.17,0.115-0.34,0.232-0.49,0.371l-0.143,0.131H71.09
	l-0.148-0.16c-0.357-0.385-0.814-0.691-1.322-0.883c-2.805-1.064-5.775-1.021-8.557,0.113c-0.422,0.172-0.801,0.387-1.125,0.641
	c-0.275,0.213-0.514,0.459-0.709,0.734l-0.092,0.098c-0.287,0.234-0.533,0.5-0.732,0.789c-0.436,0.635-0.857,1.277-1.279,1.92
	l-0.502,0.762c-1.025,1.549-1.59,3.193-1.969,4.451c-0.799,2.658-1.52,5.563-2.199,8.883c-0.555,2.705-1.168,5.91-1.525,9.178
	c-0.184,1.684-0.268,3.314-0.248,4.844c0.016,1.146,0.139,2.664,0.961,4.217l0.389,0.734L26.828,114.715z M27.828,43.873v69.842
	l22.586-0.01c-0.613-1.473-0.717-2.855-0.732-3.938c-0.02-1.57,0.064-3.242,0.254-4.967c0.361-3.309,0.98-6.541,1.539-9.27
	c0.688-3.35,1.414-6.283,2.223-8.969c0.396-1.324,0.994-3.059,2.09-4.715l0.502-0.762c0.426-0.646,0.852-1.295,1.291-1.936
	c0.24-0.35,0.533-0.672,0.875-0.955c0.244-0.332,0.535-0.631,0.869-0.891c0.396-0.307,0.854-0.568,1.361-0.775
	c3.01-1.232,6.248-1.273,9.289-0.123c0.578,0.219,1.107,0.557,1.543,0.979h2.51c0.076-0.061,0.152-0.119,0.232-0.176v-24.48
	L33.389,44.32L27.828,43.873z M25.738,114.715l-15.734-0.023l7.889-7.012V42.83h7.846V114.715z M12.631,113.695l12.107,0.018V43.83
	h-5.846v64.299L12.631,113.695z M75.26,50.953l-41.643-9.021l-6.789-0.588V9.18l7.746,0.025L75.26,22.768V50.953z M27.828,40.428
	l5.938,0.518l40.494,8.768V23.488L34.334,10.18h-6.506V40.428z M25.738,41.387l-7.846-0.012V9.18h7.846V41.387z M18.893,40.377
	l5.846,0.008V10.18h-5.846V40.377z M109.082,116.82c-2.359,0-4.473-1.039-5.152-2.045c-1.01-1.49-1.844-3.74-2.525-5.744
	l-0.082-0.24c-0.518-1.516-1.033-3.031-1.539-4.553c-0.121-0.361-0.428-0.518-0.791-0.68c-2.451,1.801-5.672,1.721-8.041-0.127
	c-0.068-0.053-0.18-0.092-0.26-0.092l-4.17,0.014l-1.934-0.006l-2.234,0.008v-0.012l-3.867-0.004c-0.08,0-0.193,0.039-0.258,0.092
	c-2.379,1.852-5.619,1.908-8.051,0.135c0.002-0.002,0.002-0.004,0.004-0.006c-0.357,0.158-0.666,0.314-0.785,0.678
	c-0.469,1.4-0.943,2.797-1.418,4.193l-0.205,0.6c-0.684,2.006-1.518,4.256-2.525,5.744c-0.682,1.006-2.795,2.045-5.154,2.045
	c-1.621,0-3.125-0.5-4.35-1.447c-2.107-1.734-2.533-3.25-2.561-5.287c-0.018-1.477,0.063-3.047,0.24-4.664
	c0.354-3.258,0.975-6.488,1.533-9.221c0.684-3.338,1.406-6.26,2.209-8.928c0.336-1.117,0.83-2.564,1.688-3.861l0.559-0.848
	c0.414-0.631,0.828-1.26,1.254-1.881c0.154-0.229,0.404-0.365,0.605-0.477c0.037-0.02,0.088-0.049,0.1-0.061
	c0.008-0.219,0.156-0.408,0.281-0.506c0.135-0.107,0.301-0.199,0.502-0.283c2.248-0.918,4.539-0.949,6.795-0.094
	c0.324,0.119,0.496,0.373,0.469,0.697c-0.008,0.096,0.006,0.137,0.012,0.143c0.004,0.006,0.033,0.023,0.113,0.031l0.166,0.051
	c0.443,0.229,0.926,0.334,1.531,0.336h4.721c0.1-0.793,0.766-1.398,1.57-1.398h14.246c0.809,0,1.479,0.613,1.57,1.398h4.59
	c0.604-0.002,1.086-0.107,1.516-0.33l0.172-0.057c0.102-0.008,0.123-0.031,0.123-0.031c0.006-0.006,0.02-0.047,0.012-0.139
	c-0.031-0.32,0.145-0.582,0.469-0.703c2.254-0.854,4.547-0.824,6.793,0.096c0.201,0.082,0.367,0.176,0.504,0.285
	c0.125,0.096,0.273,0.285,0.285,0.496c0.008,0.02,0.059,0.047,0.096,0.068c0.201,0.111,0.451,0.25,0.605,0.479
	c0.428,0.625,0.846,1.26,1.264,1.896l0.547,0.83c0.852,1.285,1.33,2.672,1.688,3.859c0.803,2.67,1.525,5.592,2.209,8.93
	c0.561,2.729,1.18,5.955,1.535,9.221c0.178,1.619,0.258,3.188,0.24,4.664c-0.027,2.037-0.455,3.555-2.555,5.281
	C112.209,116.32,110.703,116.82,109.082,116.82z M99.01,102.947l0.141,0.025c0.471,0.209,0.99,0.439,1.201,1.078
	c0.506,1.518,1.021,3.031,1.539,4.547l0.082,0.24c0.629,1.852,1.479,4.162,2.453,5.602c0.58,0.855,2.525,1.781,4.656,1.781
	c1.488,0,2.865-0.457,3.984-1.322c1.922-1.582,2.303-2.914,2.328-4.82c0.018-1.451-0.063-2.996-0.236-4.592
	c-0.354-3.24-0.971-6.451-1.527-9.164c-0.68-3.32-1.396-6.225-2.195-8.877c-0.344-1.146-0.807-2.482-1.613-3.703l-0.547-0.83
	c-0.416-0.633-0.832-1.266-1.26-1.889c-0.076-0.111-0.254-0.211-0.398-0.291c-0.154-0.086-0.387-0.213-0.406-0.561l0,0
	c-0.004,0-0.029-0.037-0.055-0.059c-0.096-0.074-0.213-0.139-0.361-0.201c-2.107-0.861-4.24-0.891-6.355-0.088
	c-0.088,0.031-0.086,0.051-0.082,0.082c0.023,0.24-0.027,0.436-0.146,0.58c-0.119,0.143-0.295,0.225-0.523,0.246
	c-0.469,0.258-1.055,0.387-1.75,0.389h-4.563v6.631c0,0.096-0.006,0.191-0.02,0.285l0.004,0.094c0,0.814-0.598,1.49-1.389,1.588
	c-0.168,0.074-0.422,0.123-0.684,0.123H77.908c-0.309,0-0.607-0.066-0.885-0.197c-0.434-0.133-0.814-0.498-0.98-0.963
	c-0.139-0.26-0.221-0.594-0.221-0.93l0.014-6.631H71.24c-0.697-0.002-1.283-0.131-1.793-0.396c-0.186-0.014-0.361-0.096-0.48-0.238
	c-0.119-0.145-0.17-0.34-0.146-0.58c0.004-0.031,0.006-0.049-0.08-0.082c-2.121-0.803-4.252-0.773-6.357,0.088
	c-0.15,0.063-0.268,0.127-0.361,0.201c-0.027,0.021-0.053,0.059-0.057,0.072c-0.02,0.334-0.252,0.463-0.404,0.547
	c-0.145,0.08-0.324,0.178-0.398,0.289c-0.426,0.619-0.836,1.246-1.248,1.873l-0.561,0.85c-0.814,1.23-1.289,2.625-1.613,3.701
	c-0.797,2.652-1.516,5.557-2.195,8.877c-0.557,2.717-1.174,5.932-1.525,9.164c-0.174,1.596-0.254,3.141-0.236,4.592
	c0.025,1.904,0.404,3.238,2.334,4.826c1.113,0.859,2.49,1.316,3.977,1.316c2.131,0,4.076-0.926,4.658-1.781
	c0.973-1.438,1.822-3.748,2.453-5.602l0.205-0.6c0.475-1.395,0.949-2.791,1.416-4.189c0.209-0.639,0.73-0.869,1.191-1.072
	l0.15-0.029c0.16,0,0.307,0.094,0.363,0.133c2.221,1.621,5.16,1.566,7.326-0.121c0.172-0.135,0.412-0.219,0.629-0.219l4.467,0.012
	l1.635-0.004l1.678,0.004l0.256-0.008l4.17-0.004c0.215,0,0.455,0.084,0.629,0.219c2.164,1.689,5.105,1.738,7.324,0.123
	C98.703,103.039,98.852,102.947,99.01,102.947z M77.531,79.723c-0.541,0-0.982,0.441-0.982,0.984v7.402
	c0,0.152,0.02,0.264,0.059,0.369c0.133,0.25,0.379,0.484,0.672,0.623c0.055,0.014,0.152,0.029,0.252,0.029h14.246
	c0.041,0,0.08-0.004,0.121-0.008c0.432-0.178,0.791-0.633,0.863-1.168l-0.002-7.211c0-0.58-0.441-1.021-0.982-1.021H77.531z
	 M94.922,103.783c-2.182,0-3.955-1.773-3.955-3.955s1.773-3.955,3.955-3.955s3.955,1.773,3.955,3.955S97.104,103.783,94.922,103.783
	z M94.922,96.473c-1.85,0-3.355,1.506-3.355,3.355s1.506,3.355,3.355,3.355c1.852,0,3.355-1.506,3.355-3.355
	S96.773,96.473,94.922,96.473z M74.256,103.783c-2.182,0-3.957-1.773-3.957-3.955s1.775-3.955,3.957-3.955
	c2.18,0,3.955,1.773,3.955,3.955S76.436,103.783,74.256,103.783z M74.256,96.473c-1.852,0-3.357,1.506-3.357,3.355
	s1.506,3.355,3.357,3.355c1.85,0,3.355-1.506,3.355-3.355S76.105,96.473,74.256,96.473z M81.256,101.365l-0.047-0.352v-0.271
	c0-0.182,0-0.361,0.01-0.541c0.029-0.494,0.42-0.865,0.91-0.865c0.301,0.002,0.592,0.004,0.883,0.004l1.248-0.006l0.066-0.055
	c0.006-0.039,0.004-0.084-0.006-0.131l-1.158-0.021l-1.717,0.002l-0.141-0.107c-0.047-0.047-0.102-0.133-0.096-0.266
	c0.002-0.045,0.002-0.078,0.002-0.113l-0.006-0.305l0.305-0.064h3.037c0.484,0,0.877,0.363,0.912,0.848
	c0.012,0.154,0.012,0.383-0.117,0.611c-0.1,0.184-0.307,0.416-0.727,0.463c-0.084,0.01-0.166,0.01-0.246,0.01l-1.154,0.002
	c-0.271,0-0.541,0-0.811-0.004c-0.031,0-0.049,0-0.057,0.059c-0.006,0.047-0.004,0.098-0.004,0.145c-0.002,0.203-0.002,0.4,0,0.6
	l0.002,0.303l-0.348,0.053l-0.189-0.002L81.256,101.365z M84.193,101.363l-0.223-0.199l-0.004-0.168
	c0.002-0.049,0.002-0.102,0.002-0.156l-0.002-0.121l0.18-0.217l1.064-0.012c0.188,0,0.375,0,0.563,0.004
	c0.072-0.012,0.084-0.039,0.084-0.094c0.002-0.252,0.002-0.5,0.002-0.75v-0.43c0-0.223,0.061-0.416,0.18-0.578
	c0.17-0.232,0.42-0.363,0.703-0.367c0.289-0.002,0.574-0.004,0.861-0.004l1.154,0.002l0.041,0.299c0.002,0.129,0.002,0.18,0,0.232
	l-0.006,0.154l-0.24,0.166l-0.102,0.004l-1.381-0.002c-0.076,0.064-0.078,0.105-0.08,0.148l0.002,0.33c0,0.27,0,0.537-0.002,0.805
	c-0.004,0.342-0.145,0.613-0.408,0.787c-0.164,0.107-0.359,0.162-0.58,0.162L84.193,101.363z M103.959,96.764
	c-4.045,0-7.336-3.289-7.336-7.334s3.291-7.336,7.336-7.336s7.336,3.291,7.336,7.336S108.004,96.764,103.959,96.764z
	 M103.068,82.752c-3.295,0.438-5.846,3.266-5.846,6.678c0,3.713,3.023,6.734,6.736,6.734c3.338,0,6.117-2.439,6.646-5.629
	c-0.414,0.672-1.156,1.119-2.002,1.119c-1.295,0-2.348-1.053-2.348-2.346c0-1.295,1.053-2.348,2.348-2.348
	c0.803,0,1.512,0.404,1.936,1.018c-0.59-2.676-2.775-4.76-5.504-5.199c0.789,0.379,1.336,1.186,1.336,2.117
	c0,1.295-1.053,2.348-2.348,2.348s-2.348-1.053-2.348-2.348C101.676,83.941,102.248,83.117,103.068,82.752z M108.604,87.561
	c-0.963,0-1.748,0.785-1.748,1.748s0.785,1.746,1.748,1.746c0.965,0,1.748-0.783,1.748-1.746S109.568,87.561,108.604,87.561z
	 M102.539,85.82c0.311,0.494,0.859,0.824,1.484,0.824s1.174-0.33,1.482-0.824H102.539z M104.023,83.27l1.494,2.531
	c0.16-0.264,0.254-0.572,0.254-0.904c0-0.963-0.785-1.748-1.748-1.748c-0.965,0-1.748,0.785-1.748,1.748
	c0,0.33,0.092,0.641,0.252,0.904L104.023,83.27z M103.566,85.221h0.912l-0.455-0.771L103.566,85.221z M65.217,96.764
	c-4.045,0-7.336-3.289-7.336-7.334s3.291-7.336,7.336-7.336s7.336,3.291,7.336,7.336S69.262,96.764,65.217,96.764z M65.217,82.693
	c-3.713,0-6.736,3.021-6.736,6.736c0,3.713,3.023,6.734,6.736,6.734c3.715,0,6.736-3.021,6.736-6.734
	C71.953,85.715,68.932,82.693,65.217,82.693z M104.023,96.074c-1.295,0-2.348-1.053-2.348-2.348s1.053-2.348,2.348-2.348
	s2.348,1.053,2.348,2.348S105.318,96.074,104.023,96.074z M104.023,91.979c-0.965,0-1.748,0.785-1.748,1.748
	c0,0.965,0.783,1.748,1.748,1.748c0.963,0,1.748-0.783,1.748-1.748C105.771,92.764,104.986,91.979,104.023,91.979z M66.221,95.895
	h-1.914c-0.639,0-1.156-0.52-1.156-1.156v-2.525c0-0.385,0.191-0.801,0.488-1.061l1.184-1.299c0.238-0.258,0.656-0.256,0.891-0.002
	l1.777,1.943h-0.182c0.045,0.139,0.07,0.281,0.07,0.418v2.525C67.379,95.375,66.859,95.895,66.221,95.895z M65.271,90.258
	l-1.213,1.322c-0.191,0.17-0.309,0.42-0.309,0.633v2.525c0,0.307,0.25,0.557,0.557,0.557h1.914c0.307,0,0.559-0.25,0.559-0.557
	v-2.525c0-0.174-0.078-0.375-0.205-0.525l-0.047-0.057L65.271,90.258z M104.869,95.135l-0.793-0.791l-0.789,0.789l-0.617-0.615
	l0.791-0.791l-0.791-0.789l0.617-0.617l0.789,0.791l0.793-0.791l0.613,0.617l-0.789,0.789l0.789,0.789L104.869,95.135z
	 M99.58,91.654c-1.295,0-2.348-1.053-2.348-2.346c0-1.295,1.053-2.348,2.348-2.348s2.348,1.053,2.348,2.348
	C101.928,90.602,100.875,91.654,99.58,91.654z M99.58,87.561c-0.963,0-1.748,0.785-1.748,1.748s0.785,1.746,1.748,1.746
	s1.748-0.783,1.748-1.746S100.543,87.561,99.58,87.561z M70.502,91.426h-2.525c-0.383,0-0.801-0.191-1.061-0.488l-1.297-1.186
	c-0.127-0.115-0.199-0.277-0.199-0.445c0-0.029,0.002-0.059,0.006-0.086c-0.143,0.039-0.305,0.021-0.438-0.049
	c0.012,0.045,0.018,0.09,0.018,0.135c0,0.168-0.072,0.33-0.199,0.445l-1.32,1.209c-0.236,0.273-0.654,0.465-1.039,0.465h-2.525
	c-0.637,0-1.154-0.52-1.154-1.156v-1.914c0-0.639,0.518-1.158,1.154-1.158h2.525c0.139,0,0.281,0.025,0.42,0.07v-0.18l1.025,0.938
	l-0.277-0.305c-0.273-0.236-0.465-0.652-0.465-1.037v-2.525c0-0.637,0.518-1.156,1.156-1.156h1.914c0.639,0,1.158,0.52,1.158,1.156
	v2.525c0,0.139-0.025,0.279-0.07,0.418h0.176l-0.268,0.297l0.342-0.313v0.182c0.139-0.045,0.281-0.07,0.418-0.07h2.525
	c0.637,0,1.156,0.52,1.156,1.158v1.914C71.658,90.906,71.139,91.426,70.502,91.426z M67.424,88.023l-1.398,1.281l1.318,1.213
	c0.17,0.191,0.42,0.309,0.633,0.309h2.525c0.307,0,0.557-0.25,0.557-0.557v-1.914c0-0.309-0.25-0.559-0.557-0.559h-2.525
	c-0.174,0-0.375,0.078-0.527,0.205L67.424,88.023z M59.922,87.797c-0.307,0-0.555,0.25-0.555,0.559v1.914
	c0,0.307,0.248,0.557,0.555,0.557h2.525c0.213,0,0.465-0.117,0.611-0.285l1.344-1.232L62.975,88
	c-0.15-0.125-0.354-0.203-0.527-0.203H59.922z M64.307,83.602c-0.307,0-0.557,0.25-0.557,0.557v2.525
	c0,0.213,0.117,0.463,0.283,0.609l1.232,1.346l0.004,0.303l-0.002-0.301c0,0,0.004,0,0.008-0.006l1.299-1.426
	c0.127-0.15,0.205-0.35,0.205-0.525v-2.525c0-0.307-0.252-0.557-0.559-0.557H64.307z M108.604,90.67
	c-0.764,0-1.387-0.623-1.387-1.389c0-0.764,0.623-1.387,1.387-1.387c0.766,0,1.389,0.623,1.389,1.387
	C109.992,90.047,109.369,90.67,108.604,90.67z M108.604,88.494c-0.434,0-0.787,0.354-0.787,0.787c0,0.436,0.354,0.789,0.787,0.789
	c0.436,0,0.789-0.354,0.789-0.789C109.393,88.848,109.039,88.494,108.604,88.494z M100.74,90.443h-2.32v-2.322h2.32V90.443z
	 M99.02,89.844h1.121v-1.123H99.02V89.844z M95.15,87.09c-0.857,0-1.555-0.699-1.555-1.557v-2.584c0-0.857,0.697-1.557,1.555-1.557
	c0.859,0,1.557,0.699,1.557,1.557v2.584C96.707,86.391,96.01,87.09,95.15,87.09z M95.15,81.992c-0.527,0-0.955,0.43-0.955,0.957
	v2.584c0,0.527,0.428,0.957,0.955,0.957s0.957-0.43,0.957-0.957v-2.584C96.107,82.422,95.678,81.992,95.15,81.992z M74.025,87.09
	c-0.857,0-1.555-0.699-1.555-1.557v-2.584c0-0.857,0.697-1.557,1.555-1.557s1.557,0.699,1.557,1.557v2.584
	C75.582,86.391,74.883,87.09,74.025,87.09z M74.025,81.992c-0.527,0-0.955,0.43-0.955,0.957v2.584c0,0.527,0.428,0.957,0.955,0.957
	s0.957-0.43,0.957-0.957v-2.584C74.982,82.422,74.553,81.992,74.025,81.992z M31.213,98.461c0.07,0.018,0.141,0.039,0.211,0.064
	c0.195,0.072,0.381,0.236,0.377,0.457c-0.008,0.643-0.002,1.289-0.002,1.934c0,0.07,0,0.141,0.01,0.211
	c0.027,0.221,0.133,0.426,0.365,0.596c0.16,0.121,0.336,0.184,0.518,0.223c0.381,0.082,0.666-0.098,0.666-0.418
	c0-0.977,0-1.955,0-2.93c0-0.02,0-0.039,0-0.066c-0.082-0.023-0.152-0.039-0.225-0.064c-0.059-0.02-0.072-0.004-0.072,0.043
	c0.002,0.523,0.002,1.045,0.002,1.568c0,0.367,0,0.732,0,1.098c-0.002,0.182-0.104,0.27-0.311,0.248
	c-0.088-0.008-0.184-0.033-0.273-0.066c-0.252-0.1-0.365-0.248-0.365-0.461c0-0.697-0.006-1.396,0.002-2.092
	c0.004-0.348-0.309-0.678-0.682-0.801c-0.311-0.102-0.623-0.18-0.934-0.27c-0.039-0.01-0.055-0.004-0.055,0.031
	c0.002,0.145,0.004,0.289,0,0.432c0,0.041,0.018,0.055,0.063,0.066C30.742,98.328,30.977,98.395,31.213,98.461z M31.211,103.041
	c0.447,0.129,0.893,0.25,1.34,0.375c0.057,0.016,0.113,0.035,0.17,0.057c0.168,0.066,0.291,0.189,0.326,0.326
	c0.012,0.045,0.014,0.088,0.014,0.131c0.002,0.447,0.002,0.895,0.002,1.342c0,0.012-0.006,0.023,0,0.035
	c0.01,0.016,0.025,0.041,0.041,0.045c0.08,0.025,0.164,0.047,0.254,0.072c0-0.018,0-0.029,0-0.041c0-0.563,0.006-1.123-0.002-1.688
	c-0.004-0.188-0.102-0.375-0.287-0.541c-0.139-0.123-0.299-0.203-0.469-0.25c-0.459-0.129-0.92-0.254-1.381-0.385
	c-0.27-0.076-0.467-0.242-0.461-0.514c0.01-0.463,0.004-0.932,0.004-1.398c0-0.014-0.002-0.023,0-0.035
	c0.002-0.031-0.012-0.049-0.051-0.059c-0.068-0.018-0.137-0.035-0.207-0.057c-0.047-0.016-0.059-0.002-0.059,0.035
	c0.002,0.553,0,1.105,0.002,1.658c0,0.145,0.035,0.295,0.133,0.445C30.729,102.828,30.951,102.967,31.211,103.041z M33.262,107.322
	c-0.178-0.293-0.357-0.588-0.537-0.881c-0.531-0.873-1.064-1.748-1.598-2.623c-0.027-0.045-0.061-0.09-0.098-0.131
	c-0.107-0.109-0.223-0.109-0.254,0c-0.012,0.043-0.014,0.09-0.014,0.139c-0.002,0.891-0.002,1.781,0,2.672
	c0,0.039-0.014,0.051-0.063,0.035c-0.08-0.025-0.16-0.047-0.246-0.07c0,0.178,0,0.35,0,0.527c0.082,0.023,0.16,0.047,0.238,0.066
	c0.055,0.012,0.072,0.031,0.07,0.078c-0.004,0.139-0.002,0.279,0,0.42c0,0.016,0.016,0.049,0.025,0.051
	c0.094,0.029,0.186,0.055,0.283,0.08c0.002-0.023,0.004-0.041,0.004-0.059c0-0.133,0.002-0.266-0.002-0.4
	c0-0.049,0.014-0.063,0.074-0.045c0.631,0.178,1.262,0.354,1.891,0.527c0.063,0.018,0.127,0.027,0.186,0.029
	c0.094,0.002,0.129-0.045,0.137-0.125C33.367,107.516,33.322,107.42,33.262,107.322z M32.746,107.104
	c-0.541-0.15-1.084-0.301-1.627-0.453c-0.01-0.002-0.021-0.008-0.039-0.014c0-0.781,0-1.561,0-2.34
	c0.006-0.002,0.012-0.002,0.018-0.002c0.014,0.018,0.027,0.033,0.039,0.051c0.549,0.9,1.1,1.803,1.648,2.703
	C32.822,107.111,32.814,107.123,32.746,107.104z"/>
</svg>
