<?xml version="1.0" encoding="utf-8"?>
<!-- Generator: Adobe Illustrator 16.0.0, SVG Export Plug-In . SVG Version: 6.00 Build 0)  -->
<!DOCTYPE svg PUBLIC "-//W3C//DTD SVG 1.1//EN" "http://www.w3.org/Graphics/SVG/1.1/DTD/svg11.dtd">
<svg version="1.1" id="Layer_1" xmlns="http://www.w3.org/2000/svg" xmlns:xlink="http://www.w3.org/1999/xlink" x="0px" y="0px"
	 width="126px" height="126px" viewBox="0 0 126 126" enable-background="new 0 0 126 126" xml:space="preserve">
<path d="M104.771,38.806H21.229c-3.445,0-6.239,2.793-6.239,6.239v36.761c0,3.447,2.794,6.24,6.239,6.24h83.541
	c3.444,0,6.239-2.793,6.239-6.24V45.045C111.01,41.599,108.215,38.806,104.771,38.806z M100.112,42.705
	c1.915,0,3.468,1.553,3.468,3.468s-1.553,3.467-3.468,3.467s-3.467-1.552-3.467-3.467S98.197,42.705,100.112,42.705z M99.115,55.156
	c1.5,0.236,2.52,1.643,2.281,3.144c-0.23,1.495-1.635,2.525-3.139,2.287c-1.504-0.237-2.521-1.648-2.286-3.15
	C96.207,55.934,97.612,54.914,99.115,55.156z M48.183,42.013h29.635c0.528,0,0.954,0.427,0.954,0.953
	c0,0.528-0.426,0.955-0.954,0.955H48.183c-0.526,0-0.952-0.427-0.952-0.955C47.23,42.439,47.656,42.013,48.183,42.013z
	 M26.021,57.362h4.312v3.158l-2.232,2.309l-2.079-2.309V57.362z M19.457,49.64c0-1.375,1.113-2.491,2.489-2.491
	c1.374,0,2.491,1.116,2.491,2.491s-1.117,2.489-2.491,2.489C20.57,52.129,19.457,51.015,19.457,49.64z M21.248,66.367v-4.31h3.157
	l2.31,2.233l-2.31,2.076H21.248z M30.333,71.063h-4.312v-3.156l2.079-2.312l2.232,2.312V71.063z M34.949,66.367h-3.156l-2.31-2.076
	l2.31-2.233h3.156V66.367z M62.998,85.886c-0.919,0-1.666-0.747-1.666-1.669s0.747-1.67,1.666-1.67c0.923,0,1.67,0.748,1.67,1.67
	S63.921,85.886,62.998,85.886z M85.609,79.987H38.947V46.863h46.662V79.987z M90.298,61.566c0.233-1.497,1.645-2.523,3.149-2.289
	c1.5,0.241,2.524,1.652,2.289,3.146c-0.242,1.501-1.642,2.525-3.148,2.294C91.084,64.469,90.065,63.064,90.298,61.566z
	 M95.72,71.569c-1.504-0.246-2.525-1.651-2.292-3.152c0.237-1.495,1.643-2.521,3.15-2.286c1.502,0.24,2.521,1.654,2.289,3.145
	C98.627,70.777,97.227,71.805,95.72,71.569z M101.568,67.125c-1.508-0.246-2.521-1.651-2.29-3.15
	c0.232-1.496,1.645-2.527,3.147-2.291c1.502,0.242,2.522,1.653,2.291,3.145C104.474,66.331,103.072,67.359,101.568,67.125z"/>
</svg>
