<?xml version="1.0" encoding="utf-8"?>
<!-- Generator: Adobe Illustrator 16.0.0, SVG Export Plug-In . SVG Version: 6.00 Build 0)  -->
<!DOCTYPE svg PUBLIC "-//W3C//DTD SVG 1.1//EN" "http://www.w3.org/Graphics/SVG/1.1/DTD/svg11.dtd">
<svg version="1.1" id="Layer_1" xmlns="http://www.w3.org/2000/svg" xmlns:xlink="http://www.w3.org/1999/xlink" x="0px" y="0px"
	 width="126px" height="126px" viewBox="0 0 126 126" enable-background="new 0 0 126 126" xml:space="preserve">
<path fill-rule="evenodd" clip-rule="evenodd" d="M95.457,71.123v-55.9H23.125v93.475h3.208v2.932h70.333v-2.932h6.208V73.871
	C99.971,73.871,97.489,72.688,95.457,71.123z M57.115,19.299c-0.001-0.084,0.03-0.111,0.11-0.109
	c0.628,0.006,1.258-0.014,1.885,0.023c0.755,0.043,1.386,0.625,1.377,1.461c-0.016,1.674-0.004,3.346-0.004,5.018
	c0,0.512,0.23,0.791,0.739,0.859c0.18,0.023,0.374,0.016,0.552-0.021c0.416-0.086,0.625-0.365,0.625-0.799
	c0.002-0.879,0.001-1.756,0.001-2.635c0-1.254,0.001-2.506-0.002-3.76c0-0.111,0.026-0.156,0.144-0.148
	c0.145,0.012,0.291,0.002,0.456,0.002c0,0.064,0,0.111,0,0.158c0,2.342,0,4.682,0,7.023c0,0.77-0.578,1.391-1.348,1.449
	c-0.365,0.027-0.72-0.006-1.046-0.186c-0.467-0.256-0.68-0.676-0.736-1.188c-0.018-0.164-0.019-0.332-0.019-0.498
	c-0.001-1.545-0.011-3.092,0.004-4.637c0.006-0.533-0.366-0.801-0.764-0.846c-0.141-0.016-0.284-0.016-0.426-0.016
	c-0.474-0.002-0.949-0.002-1.423,0c-0.088,0.002-0.126-0.021-0.125-0.119C57.121,19.988,57.119,19.645,57.115,19.299z
	 M58.678,30.178c0.93,0.008,1.859,0.002,2.788,0.004c0.344,0,0.667,0.08,0.948,0.287c0.374,0.271,0.572,0.656,0.577,1.105
	c0.017,1.348,0.007,2.695,0.007,4.045c0,0.025,0,0.053,0,0.096c-0.185,0-0.351,0.004-0.516-0.004
	c-0.029-0.002-0.06-0.051-0.079-0.084c-0.013-0.02-0.003-0.053-0.003-0.082c0-1.07,0-2.143-0.001-3.213
	c0-0.104-0.006-0.207-0.03-0.307c-0.07-0.305-0.32-0.516-0.66-0.563c-0.113-0.014-0.229-0.021-0.342-0.023
	c-0.902-0.002-1.803,0.006-2.705-0.004c-0.525-0.004-0.974-0.189-1.276-0.646c-0.196-0.295-0.266-0.631-0.267-0.98
	c-0.003-1.324,0-2.648-0.002-3.975c0-0.09,0.024-0.129,0.119-0.125c0.139,0.006,0.277,0.006,0.415,0.002
	c0.079-0.002,0.109,0.029,0.103,0.105c-0.003,0.027-0.001,0.055-0.001,0.082c0,1.119,0.015,2.238-0.005,3.357
	C57.734,29.91,58.133,30.174,58.678,30.178z M56.841,36.508c0.213,0,0.407,0,0.642,0c0,0.105,0,0.213,0,0.32c0,1.52,0,3.041,0,4.561
	c0.001,0.512,0.153,0.729,0.649,0.82c0.429,0.08,0.864,0.061,1.26-0.164c0.213-0.121,0.265-0.328,0.265-0.568
	c-0.006-1.539-0.003-3.08-0.003-4.619c0-0.109,0-0.219,0-0.363c0.231,0,0.42,0,0.654,0c0,0.113,0,0.221,0,0.326
	c0.001,1.541,0.002,3.08,0.003,4.621c0.001,0.438,0.083,0.58,0.489,0.723c0.427,0.148,0.854,0.115,1.247-0.123
	c0.213-0.131,0.236-0.355,0.236-0.584c-0.002-1.521-0.001-3.041-0.001-4.563c0-0.119,0-0.238,0-0.387c0.211,0,0.405,0,0.646,0
	c0,0.113,0,0.23,0,0.346l0.013,4.711c0.04,1.188-0.581,1.627-1.681,1.633c-0.546,0.004-0.888-0.117-1.246-0.398
	c-0.817,0.467-1.653,0.553-2.521,0.17c-0.369-0.162-0.57-0.459-0.629-0.852c-0.018-0.119-0.02-0.24-0.02-0.361
	c-0.001-1.641-0.001-3.281-0.001-4.924C56.841,36.732,56.841,36.633,56.841,36.508z"/>
</svg>
