<?xml version="1.0" encoding="utf-8"?>
<!-- Generator: Adobe Illustrator 16.0.0, SVG Export Plug-In . SVG Version: 6.00 Build 0)  -->
<!DOCTYPE svg PUBLIC "-//W3C//DTD SVG 1.1//EN" "http://www.w3.org/Graphics/SVG/1.1/DTD/svg11.dtd">
<svg version="1.1" id="Layer_1" xmlns="http://www.w3.org/2000/svg" xmlns:xlink="http://www.w3.org/1999/xlink" x="0px" y="0px"
	 width="126px" height="126px" viewBox="0 0 126 126" enable-background="new 0 0 126 126" xml:space="preserve">
<path d="M77.869,11.422c0-1.01-0.819-1.83-1.83-1.83H49.961c-1.011,0-1.83,0.82-1.83,1.83c0,0,2.104,50.332,2.104,66.646
	c0,16.316-2.104,37.361-2.104,37.361c0,1.012,0.819,1.83,1.83,1.83h26.078c1.011,0,1.83-0.818,1.83-1.83
	c0,0-2.104-21.045-2.104-37.361C75.766,61.754,77.869,11.422,77.869,11.422z M68.594,17.822c1.371,0,2.614,0.553,3.52,1.447
	c-0.719,0.434-1.479,0.986-2.228,1.633c-0.912-0.791-1.855-1.467-2.702-1.924c-0.367-0.211-0.708-0.379-1.008-0.51
	C66.896,18.068,67.712,17.822,68.594,17.822z M65.444,18.961c0.143,0.334,0.334,0.736,0.585,1.172
	c0.456,0.844,1.132,1.791,1.923,2.701c-0.791,0.912-1.467,1.857-1.923,2.703c-0.251,0.432-0.442,0.836-0.585,1.17
	c-1.129-0.918-1.865-2.303-1.865-3.873C63.579,21.266,64.315,19.883,65.444,18.961z M63,78.826c-3.116,0-5.643-2.525-5.643-5.641
	c0-3.117,2.526-5.643,5.643-5.643s5.642,2.525,5.642,5.643C68.642,76.301,66.116,78.826,63,78.826z M68.594,27.85
	c-0.882,0-1.698-0.248-2.418-0.648c0.3-0.133,0.641-0.299,1.008-0.512c0.847-0.455,1.79-1.131,2.702-1.924
	c0.748,0.648,1.509,1.199,2.228,1.637C71.208,27.295,69.967,27.85,68.594,27.85z M73.237,24.711
	c-0.399-0.615-0.883-1.252-1.423-1.877c0.54-0.625,1.023-1.264,1.422-1.877c0.235,0.582,0.371,1.213,0.371,1.877
	C73.607,23.5,73.472,24.131,73.237,24.711z M64.875,73.301c0,1.035-0.839,1.875-1.875,1.875s-1.875-0.84-1.875-1.875
	s0.839-1.875,1.875-1.875S64.875,72.266,64.875,73.301z"/>
</svg>
