<?xml version="1.0" encoding="utf-8"?>
<!-- Generator: Adobe Illustrator 16.0.0, SVG Export Plug-In . SVG Version: 6.00 Build 0)  -->
<!DOCTYPE svg PUBLIC "-//W3C//DTD SVG 1.1//EN" "http://www.w3.org/Graphics/SVG/1.1/DTD/svg11.dtd">
<svg version="1.1" id="Layer_1" xmlns="http://www.w3.org/2000/svg" xmlns:xlink="http://www.w3.org/1999/xlink" x="0px" y="0px"
	 width="126px" height="126px" viewBox="0 0 126 126" enable-background="new 0 0 126 126" xml:space="preserve">
<path d="M112.244,68.581v-55.9H39.912v55.059H51.17c1.266,0,2.4,0.559,3.182,1.439h4.401c0.03,0,0.062-0.001,0.091-0.002
	c0.379-0.564,0.938-1.014,1.623-1.271c3.166-1.201,6.455-1.156,9.609,0.134c0.436,0.178,0.83,0.403,1.172,0.669
	c0.308,0.24,0.57,0.53,0.777,0.853c0.292,0.217,0.611,0.51,0.881,0.903c0.503,0.732,0.99,1.475,1.479,2.218l0.613,0.932
	c1.158,1.752,1.806,3.631,2.24,5.073c0.938,3.119,1.78,6.522,2.576,10.407c0.648,3.169,1.368,6.925,1.787,10.752
	c0.214,1.951,0.311,3.845,0.287,5.626c-0.002,0.237-0.023,0.457-0.037,0.684h24.086h6.307h7.418V71.328
	C116.758,71.328,114.276,70.146,112.244,68.581z M78.045,40.655c-0.546,0.004-0.887-0.117-1.245-0.398
	c-0.817,0.467-1.653,0.553-2.521,0.17c-0.368-0.163-0.569-0.459-0.63-0.853c-0.018-0.118-0.02-0.239-0.02-0.36
	c-0.001-1.641-0.001-3.282-0.001-4.924c0-0.1,0-0.2,0-0.325c0.213,0,0.407,0,0.642,0c0,0.106,0,0.214,0,0.32
	c0,1.521,0,3.041,0,4.561c0.002,0.512,0.153,0.729,0.648,0.82c0.43,0.081,0.865,0.062,1.26-0.163
	c0.214-0.122,0.266-0.329,0.266-0.568c-0.006-1.54-0.004-3.08-0.004-4.62c0-0.109,0-0.219,0-0.363c0.232,0,0.421,0,0.654,0
	c0,0.114,0,0.221,0,0.327c0.002,1.54,0.003,3.08,0.004,4.621c0.001,0.438,0.082,0.58,0.488,0.722
	c0.428,0.148,0.854,0.116,1.247-0.123c0.214-0.13,0.236-0.354,0.236-0.584c-0.003-1.521-0.001-3.041-0.001-4.562
	c0-0.119,0-0.239,0-0.387c0.211,0,0.405,0,0.646,0c0,0.113,0,0.229,0,0.345l0.013,4.712C79.767,40.21,79.146,40.649,78.045,40.655z
	 M79.784,33.172c-0.185,0-0.351,0.004-0.517-0.004c-0.028-0.002-0.06-0.05-0.078-0.083c-0.013-0.021-0.003-0.054-0.003-0.082
	c0-1.071,0.001-2.143-0.001-3.214c0-0.103-0.007-0.207-0.03-0.306c-0.07-0.305-0.32-0.517-0.66-0.563
	c-0.113-0.015-0.229-0.022-0.342-0.023c-0.901-0.002-1.804,0.005-2.705-0.004c-0.525-0.005-0.974-0.19-1.276-0.646
	c-0.196-0.296-0.266-0.632-0.268-0.98c-0.002-1.324,0-2.649-0.002-3.975c0-0.091,0.023-0.129,0.119-0.125
	c0.139,0.006,0.277,0.006,0.414,0.001c0.08-0.002,0.109,0.03,0.104,0.105c-0.003,0.027-0.001,0.055-0.001,0.083
	c0,1.118,0.015,2.238-0.005,3.356c-0.012,0.655,0.387,0.918,0.932,0.923c0.93,0.008,1.859,0.002,2.787,0.003
	c0.345,0.001,0.667,0.081,0.949,0.287c0.373,0.272,0.571,0.657,0.576,1.106c0.017,1.348,0.007,2.695,0.007,4.044
	C79.784,33.103,79.784,33.13,79.784,33.172z M79.784,16.806c0,2.341,0,4.682,0,7.022c0,0.771-0.577,1.392-1.348,1.449
	c-0.365,0.027-0.72-0.006-1.046-0.186c-0.467-0.256-0.681-0.676-0.736-1.188c-0.018-0.164-0.02-0.331-0.02-0.497
	c-0.001-1.546-0.01-3.092,0.005-4.638c0.006-0.532-0.366-0.801-0.764-0.845c-0.141-0.016-0.284-0.016-0.427-0.016
	c-0.474-0.002-0.948-0.003-1.422,0c-0.089,0.001-0.127-0.021-0.125-0.119c0.006-0.345,0.004-0.688,0-1.033
	c-0.002-0.084,0.03-0.111,0.109-0.11c0.629,0.007,1.259-0.014,1.885,0.023c0.756,0.044,1.387,0.626,1.377,1.462
	c-0.016,1.673-0.004,3.346-0.004,5.018c0,0.512,0.23,0.791,0.738,0.858c0.181,0.024,0.374,0.017,0.553-0.021
	c0.416-0.086,0.625-0.365,0.625-0.8c0.002-0.878,0.001-1.756,0.001-2.634c0-1.254,0.001-2.506-0.003-3.76
	c0-0.112,0.026-0.156,0.145-0.148c0.145,0.011,0.291,0.002,0.456,0.002C79.784,16.712,79.784,16.759,79.784,16.806z M22.072,84.722
	c0.203,0.244,0.332,0.571,0.332,0.872v3.073c0,0.575-0.467,1.041-1.043,1.041h-2.329c-0.575,0-1.042-0.466-1.042-1.041v-3.073
	c0-0.364,0.188-0.768,0.471-1.015l1.47-1.606c0.151-0.165,0.394-0.165,0.545,0l1.601,1.749H22.072z M19.395,82.331l-1.607,1.471
	c-0.248,0.282-0.65,0.47-1.015,0.47h-3.073c-0.575,0-1.041-0.466-1.041-1.042V80.9c0-0.576,0.466-1.043,1.041-1.043h3.073
	c0.3,0,0.628,0.128,0.872,0.332v-0.004l1.75,1.601C19.559,81.937,19.559,82.181,19.395,82.331z M33.858,80.083v-0.041v-8.221v-0.018
	c0-0.789,0.641-1.429,1.427-1.429H51.14c0.786,0,1.427,0.64,1.427,1.429v0.041v8.22v0.019c0,0.787-0.641,1.428-1.428,1.428H35.285
	C34.499,81.511,33.858,80.87,33.858,80.083z M18.461,79.885c-0.283-0.249-0.471-0.652-0.471-1.016v-3.073
	c0-0.576,0.467-1.042,1.042-1.042h2.329c0.576,0,1.043,0.466,1.043,1.042v3.073c0,0.3-0.129,0.628-0.332,0.872h0.004l-1.601,1.75
	c-0.151,0.164-0.394,0.164-0.545,0L18.461,79.885z M69.231,81.926c0,1.341,1.087,2.427,2.427,2.427s2.426-1.086,2.426-2.427
	c0-1.339-1.086-2.426-2.426-2.426S69.231,80.587,69.231,81.926z M73.246,81.896c0,0.876-0.712,1.589-1.588,1.589
	c-0.875,0-1.588-0.713-1.588-1.589c0-0.875,0.713-1.587,1.588-1.587C72.534,80.31,73.246,81.021,73.246,81.896z M66.229,75.568
	l1.163,1.97h-2.326L66.229,75.568z M66.229,74.272c-1.34,0-2.427,1.087-2.427,2.427s1.087,2.426,2.427,2.426
	c1.341,0,2.426-1.086,2.426-2.426S67.57,74.272,66.229,74.272z M64.541,77.838l1.688-2.858l1.688,2.858H64.541z M71.658,80.608
	c0.711,0,1.289,0.578,1.289,1.288s-0.578,1.288-1.289,1.288c-0.709,0-1.287-0.578-1.287-1.288S70.949,80.608,71.658,80.608z
	 M66.229,84.737c-1.34,0-2.427,1.086-2.427,2.425c0,1.341,1.087,2.428,2.427,2.428c1.341,0,2.426-1.087,2.426-2.428
	C68.655,85.823,67.57,84.737,66.229,84.737z M67.707,88.301l-0.275,0.275l-1.139-1.137l-1.137,1.137l-0.277-0.275l1.139-1.139
	l-1.139-1.138l0.277-0.276l1.137,1.14l1.139-1.14l0.275,0.276l-1.137,1.138L67.707,88.301z M77.964,90.166
	c-0.727-3.551-1.565-7.076-2.61-10.549c-0.473-1.573-1.042-3.101-1.955-4.481c-0.714-1.077-1.414-2.164-2.145-3.229
	c-0.135-0.196-0.376-0.333-0.593-0.452c-0.165-0.093-0.286-0.158-0.3-0.378c-0.006-0.116-0.104-0.251-0.201-0.327
	c-0.153-0.119-0.332-0.212-0.512-0.285c-2.582-1.058-5.179-1.101-7.791-0.11c-0.223,0.084-0.348,0.234-0.326,0.465
	c0.033,0.359-0.105,0.558-0.471,0.591c-0.027,0.003-0.057,0.018-0.082,0.031c-0.615,0.318-1.275,0.427-1.96,0.43h-5.762v8.212
	c0,1.168-0.95,2.12-2.118,2.12H35.285c-1.168,0-2.117-0.952-2.117-2.12l0.018-8.212h-5.803c-0.686-0.003-1.346-0.111-1.961-0.43
	c-0.025-0.014-0.054-0.028-0.082-0.031c-0.364-0.033-0.504-0.231-0.471-0.591c0.021-0.23-0.104-0.381-0.326-0.465
	c-2.611-0.99-5.209-0.947-7.791,0.11c-0.18,0.073-0.359,0.166-0.511,0.285c-0.097,0.076-0.196,0.211-0.202,0.327
	c-0.013,0.22-0.135,0.285-0.3,0.378c-0.217,0.119-0.458,0.256-0.592,0.452c-0.731,1.064-1.431,2.151-2.146,3.229
	c-0.912,1.381-1.482,2.908-1.955,4.481c-1.045,3.473-1.883,6.998-2.61,10.549c-0.739,3.609-1.413,7.233-1.813,10.896
	c-0.199,1.816-0.305,3.654-0.282,5.48c0.032,2.409,0.561,4.067,2.897,5.989c4.076,3.15,9.584,1.094,10.749-0.626
	c1.166-1.722,2.159-4.396,2.95-6.722c0.646-1.891,1.29-3.781,1.921-5.677c0.202-0.605,0.706-0.832,1.219-1.058
	c0.062-0.027,0.185,0.033,0.257,0.085c2.811,2.049,6.371,1.984,9.109-0.152c0.14-0.109,0.35-0.184,0.526-0.184
	c0.809,0,2.893,0.002,4.938,0.005v0.01c0.447-0.001,1.285-0.003,2.292-0.005c1.007,0.002,1.845,0.004,2.292,0.005v-0.01
	c2.047-0.003,4.131-0.005,4.939-0.005c0.177,0,0.387,0.074,0.525,0.184c2.738,2.137,6.299,2.201,9.109,0.152
	c0.072-0.052,0.195-0.112,0.258-0.085c0.512,0.226,1.017,0.452,1.219,1.058c0.631,1.896,1.275,3.786,1.92,5.677
	c0.791,2.325,1.785,5,2.951,6.722c1.165,1.72,6.672,3.776,10.749,0.626c2.336-1.922,2.865-3.58,2.896-5.989
	c0.022-1.826-0.082-3.664-0.281-5.48C79.377,97.399,78.703,93.775,77.964,90.166z M29.196,74.391c0-0.822,0.666-1.488,1.487-1.488
	c0.823,0,1.49,0.666,1.49,1.488v3.063c0,0.823-0.667,1.489-1.49,1.489c-0.821,0-1.487-0.666-1.487-1.489V74.391z M20.246,90.407
	c-4.605,0-8.338-3.732-8.338-8.337s3.732-8.337,8.338-8.337c4.604,0,8.336,3.732,8.336,8.337S24.85,90.407,20.246,90.407z
	 M30.955,98.724c-2.393,0-4.332-1.938-4.332-4.331c0-2.394,1.939-4.332,4.332-4.332s4.332,1.938,4.332,4.332
	C35.287,96.785,33.348,98.724,30.955,98.724z M40.615,94.481c-0.267-0.002-0.4,0.185-0.422,0.383
	c-0.008,0.071-0.008,0.142-0.008,0.213c-0.002,0.239-0.002,0.477,0,0.715c0,0.043-0.012,0.063-0.061,0.063
	c-0.174-0.004-0.346-0.001-0.519,0c-0.042,0-0.056-0.016-0.056-0.057c0.004-0.313-0.006-0.63,0.013-0.944
	c0.022-0.378,0.313-0.693,0.732-0.689c0.839,0.008,1.677,0.003,2.515,0.003c0.257,0,0.398-0.116,0.431-0.371
	c0.013-0.091,0.009-0.188-0.011-0.276c-0.043-0.209-0.182-0.313-0.4-0.313c-0.439-0.002-0.88-0.002-1.32-0.002
	c-0.628,0-1.256,0-1.884,0.003c-0.057,0-0.079-0.015-0.075-0.072c0.005-0.073,0.002-0.146,0.002-0.23c0.031,0,0.055,0,0.079,0
	c1.173,0,2.347,0,3.521,0c0.385,0,0.697,0.291,0.726,0.677c0.014,0.184-0.003,0.361-0.093,0.524
	c-0.129,0.234-0.339,0.34-0.596,0.369c-0.082,0.009-0.166,0.009-0.249,0.009C42.165,94.485,41.391,94.489,40.615,94.481z
	 M47.833,93.164c-0.001,0.015-0.025,0.028-0.042,0.04c-0.01,0.007-0.025,0-0.041,0c-0.536,0-1.074,0-1.611,0.002
	c-0.051,0-0.104,0.002-0.152,0.014c-0.152,0.037-0.26,0.161-0.282,0.332c-0.007,0.057-0.011,0.115-0.013,0.172
	c0,0.452,0.003,0.903-0.001,1.355c-0.003,0.264-0.095,0.488-0.323,0.64c-0.148,0.098-0.318,0.135-0.492,0.135
	c-0.664,0.001-1.328,0-1.992,0.001c-0.045,0-0.064-0.014-0.063-0.061c0.003-0.068,0.003-0.138,0-0.207
	c-0.001-0.04,0.016-0.056,0.053-0.052c0.014,0.001,0.027,0,0.042,0c0.561,0,1.122-0.008,1.683,0.003
	c0.328,0.006,0.459-0.194,0.463-0.466c0.004-0.467,0-0.933,0.001-1.398c0-0.173,0.041-0.335,0.144-0.476
	c0.137-0.187,0.33-0.287,0.555-0.289c0.676-0.008,1.352-0.005,2.027-0.005c0.013,0,0.027,0,0.048,0
	C47.835,92.999,47.837,93.082,47.833,93.164z M54.228,74.391c0-0.822,0.666-1.488,1.489-1.488c0.822,0,1.488,0.666,1.488,1.488
	v3.063c0,0.823-0.666,1.489-1.488,1.489c-0.823,0-1.489-0.666-1.489-1.489V74.391z M55.445,98.724c-2.393,0-4.332-1.938-4.332-4.331
	c0-2.394,1.939-4.332,4.332-4.332s4.332,1.938,4.332,4.332C59.777,96.785,57.838,98.724,55.445,98.724z M66.155,90.407
	c-4.604,0-8.337-3.732-8.337-8.337s3.732-8.337,8.337-8.337s8.337,3.732,8.337,8.337S70.76,90.407,66.155,90.407z M60.965,79.5
	c-1.34,0-2.427,1.087-2.427,2.426c0,1.341,1.087,2.427,2.427,2.427s2.427-1.086,2.427-2.427C63.392,80.587,62.305,79.5,60.965,79.5z
	 M62.284,83.216h-2.64v-2.639h2.64V83.216z M27.611,80.9v2.329c0,0.576-0.465,1.042-1.041,1.042h-3.072
	c-0.365,0-0.768-0.188-1.016-0.47l-1.607-1.471c-0.164-0.15-0.164-0.395,0-0.545l1.75-1.601v0.004
	c0.244-0.204,0.571-0.332,0.873-0.332h3.072C27.146,79.857,27.611,80.324,27.611,80.9z M61.984,82.918h-2.041v-2.042h2.041V82.918z"
	/>
</svg>
