<?xml version="1.0" encoding="utf-8"?>
<!-- Generator: Adobe Illustrator 16.0.0, SVG Export Plug-In . SVG Version: 6.00 Build 0)  -->
<!DOCTYPE svg PUBLIC "-//W3C//DTD SVG 1.1//EN" "http://www.w3.org/Graphics/SVG/1.1/DTD/svg11.dtd">
<svg version="1.1" id="Layer_1" xmlns="http://www.w3.org/2000/svg" xmlns:xlink="http://www.w3.org/1999/xlink" x="0px" y="0px"
	 width="126px" height="126px" viewBox="0 0 126 126" enable-background="new 0 0 126 126" xml:space="preserve">
<path d="M71.606,114.238c-2.793,0-5.296-1.232-6.104-2.424c-1.203-1.775-2.227-4.561-2.985-6.789
	c-0.643-1.885-1.285-3.771-1.914-5.66c-0.139-0.418-0.495-0.6-0.916-0.789c-2.878,2.125-6.706,2.031-9.509-0.154
	c-0.075-0.059-0.204-0.105-0.294-0.105l-4.925,0.016l-2.282-0.006l-2.659,0.008v-0.012l-4.547-0.006
	c-0.09,0-0.219,0.047-0.294,0.105c-2.809,2.189-6.646,2.258-9.526,0.162c-0.468,0.213-0.769,0.391-0.898,0.781
	c-0.629,1.889-1.271,3.771-1.913,5.656c-0.761,2.232-1.786,5.02-2.986,6.793c-0.808,1.191-3.311,2.424-6.104,2.424
	c-1.919,0-3.7-0.594-5.15-1.713c-2.495-2.055-3.001-3.85-3.033-6.262c-0.021-1.742,0.074-3.596,0.283-5.508
	c0.422-3.854,1.153-7.67,1.813-10.895c0.808-3.945,1.661-7.396,2.609-10.547c0.397-1.32,0.982-3.033,1.996-4.564l0.629-0.955
	c0.499-0.76,0.998-1.52,1.513-2.27c0.174-0.254,0.439-0.412,0.719-0.566c0.043-0.025,0.1-0.057,0.114-0.07
	c0.003-0.252,0.184-0.48,0.335-0.598c0.161-0.127,0.363-0.24,0.599-0.338c2.657-1.086,5.37-1.125,8.039-0.111
	c0.395,0.146,0.602,0.455,0.566,0.846c-0.011,0.113,0.008,0.152,0.01,0.154l0,0c0.001,0,0.03,0.02,0.117,0.027l0.074,0.006
	l0.148,0.066c0.504,0.26,1.07,0.383,1.783,0.387h5.557c0.125-0.938,0.916-1.652,1.871-1.652h16.826c0.961,0,1.756,0.723,1.874,1.652
	h5.4c0.711-0.004,1.277-0.127,1.782-0.387l0.203-0.07c0.106-0.01,0.136-0.029,0.139-0.031c-0.001,0,0.018-0.037,0.007-0.15
	c-0.035-0.391,0.171-0.699,0.566-0.848c2.669-1.014,5.381-0.975,8.039,0.113c0.233,0.094,0.435,0.207,0.6,0.336
	c0.15,0.117,0.331,0.346,0.345,0.602c0.004,0.01,0.061,0.041,0.102,0.064c0.281,0.156,0.547,0.314,0.722,0.57
	c0.503,0.732,0.991,1.477,1.48,2.221l0.66,1.002c1.005,1.518,1.572,3.158,1.996,4.564c0.948,3.15,1.802,6.602,2.609,10.547
	c0.661,3.23,1.394,7.051,1.813,10.895c0.209,1.912,0.305,3.766,0.283,5.508c-0.032,2.412-0.538,4.207-3.024,6.254
	C75.307,113.645,73.525,114.238,71.606,114.238z M59.709,97.811l0.178,0.035c0.528,0.232,1.175,0.52,1.428,1.283
	c0.629,1.887,1.271,3.771,1.913,5.654c0.743,2.184,1.744,4.908,2.896,6.611c0.595,0.877,2.831,2.094,5.482,2.094
	c1.751,0,3.374-0.539,4.691-1.557c2.265-1.865,2.712-3.436,2.742-5.678c0.021-1.711-0.072-3.533-0.279-5.416
	c-0.416-3.813-1.145-7.613-1.802-10.826c-0.804-3.924-1.652-7.352-2.594-10.48c-0.407-1.354-0.952-2.93-1.902-4.367l-0.662-1.006
	c-0.486-0.738-0.972-1.479-1.473-2.207c-0.088-0.129-0.304-0.248-0.462-0.334c-0.191-0.109-0.467-0.264-0.491-0.684
	c-0.001,0.002-0.001,0.002-0.001,0.002c-0.006,0-0.031-0.033-0.057-0.053c-0.11-0.086-0.252-0.166-0.421-0.234
	c-2.483-1.016-4.996-1.051-7.491-0.105c-0.058,0.021-0.08,0.041-0.084,0.047c0.027,0.32-0.033,0.557-0.18,0.732
	c-0.143,0.172-0.354,0.27-0.63,0.295c-0.547,0.303-1.242,0.457-2.066,0.461h-5.369v7.809c0,0.113-0.008,0.223-0.021,0.33
	l0.003,0.117c0,0.973-0.712,1.779-1.657,1.895c-0.196,0.09-0.499,0.146-0.81,0.146H34.789c-0.369,0-0.725-0.078-1.058-0.236
	c-0.512-0.156-0.966-0.592-1.165-1.145c-0.165-0.307-0.263-0.705-0.263-1.107l0.017-7.809h-5.407
	c-0.826-0.004-1.521-0.158-2.126-0.471c-0.218-0.016-0.43-0.113-0.572-0.285c-0.146-0.176-0.207-0.412-0.179-0.703
	c-0.005-0.033-0.027-0.055-0.085-0.076c-2.495-0.947-5.008-0.908-7.491,0.105c-0.171,0.07-0.312,0.148-0.42,0.232
	c-0.029,0.023-0.057,0.063-0.063,0.078c-0.021,0.395-0.296,0.549-0.479,0.652c-0.166,0.092-0.383,0.211-0.471,0.34
	c-0.512,0.744-1.008,1.5-1.504,2.254l-0.631,0.959c-0.953,1.441-1.497,3.016-1.902,4.367c-0.942,3.129-1.79,6.557-2.594,10.48
	c-0.656,3.207-1.384,7.002-1.802,10.826c-0.207,1.883-0.301,3.705-0.279,5.416c0.03,2.242,0.478,3.813,2.751,5.686
	c1.309,1.01,2.931,1.549,4.683,1.549c2.651,0,4.888-1.217,5.482-2.094c1.15-1.701,2.151-4.426,2.896-6.611
	c0.643-1.887,1.284-3.768,1.913-5.654c0.253-0.766,0.899-1.051,1.419-1.279l0.187-0.039c0.206,0,0.393,0.129,0.444,0.168
	c2.607,1.896,6.072,1.842,8.625-0.148c0.207-0.162,0.497-0.264,0.755-0.264l5.297,0.016l1.909-0.006l1.959,0.006l0.324-0.01
	l4.924-0.006c0.258,0,0.548,0.102,0.755,0.264c2.551,1.99,6.014,2.049,8.628,0.145C59.317,97.938,59.505,97.811,59.709,97.811z
	 M34.343,70.426c-0.627,0-1.138,0.512-1.138,1.141v8.742c0,0.178,0.022,0.307,0.067,0.432c0.154,0.287,0.438,0.561,0.779,0.721
	c0.062,0.016,0.176,0.033,0.291,0.033h16.826c0.047,0,0.094-0.004,0.14-0.01c0.5-0.207,0.919-0.738,1.002-1.365l-0.003-8.51
	c0-0.672-0.511-1.184-1.139-1.184H34.343z M120.437,105.986H81.853l0.037-0.594c0.011-0.152,0.022-0.307,0.023-0.467
	c0.023-1.768-0.072-3.646-0.285-5.582c-0.417-3.811-1.135-7.557-1.781-10.719c-0.793-3.869-1.633-7.262-2.568-10.373
	c-0.427-1.418-1.062-3.264-2.193-4.975l-0.614-0.934c-0.502-0.764-0.98-1.492-1.475-2.211c-0.207-0.303-0.475-0.576-0.795-0.814
	l-0.092-0.098c-0.188-0.293-0.42-0.547-0.692-0.76c-0.315-0.246-0.68-0.453-1.083-0.617c-3.052-1.25-6.271-1.295-9.335-0.131
	c-0.601,0.225-1.1,0.615-1.444,1.129l-0.107,0.16l-0.295,0.008h-4.57l-0.111-0.125c-0.74-0.836-1.798-1.314-2.901-1.314H39.937
	V11.762h73.082v56.09c2.257,1.697,4.626,2.559,7.043,2.559h0.375V105.986z M82.652,105.236h37.034V71.152
	c-2.508-0.084-4.952-1.031-7.271-2.818l-0.146-0.111V12.512H40.687V66.82h10.883c1.261,0,2.471,0.523,3.346,1.439h4.134
	c0.424-0.563,1.003-0.992,1.686-1.248c3.237-1.23,6.657-1.184,9.883,0.137c0.467,0.189,0.891,0.432,1.261,0.721
	c0.321,0.25,0.599,0.549,0.825,0.889c0.363,0.277,0.67,0.598,0.912,0.951c0.496,0.723,0.978,1.455,1.46,2.189l0.636,0.965
	c1.186,1.793,1.845,3.705,2.286,5.172c0.941,3.133,1.787,6.549,2.584,10.439c0.65,3.18,1.372,6.947,1.793,10.787
	c0.216,1.967,0.313,3.875,0.289,5.672C82.662,105.037,82.658,105.137,82.652,105.236z M54.883,98.842
	c-2.588,0-4.693-2.105-4.693-4.693c0-2.586,2.105-4.691,4.693-4.691c2.587,0,4.692,2.105,4.692,4.691
	C59.575,96.736,57.47,98.842,54.883,98.842z M54.883,90.207c-2.175,0-3.943,1.768-3.943,3.941s1.769,3.943,3.943,3.943
	c2.174,0,3.942-1.77,3.942-3.943S57.057,90.207,54.883,90.207z M30.474,98.842c-2.587,0-4.692-2.105-4.692-4.693
	c0-2.586,2.105-4.691,4.692-4.691c2.588,0,4.693,2.105,4.693,4.691C35.167,96.736,33.062,98.842,30.474,98.842z M30.474,90.207
	c-2.174,0-3.942,1.768-3.942,3.941s1.769,3.943,3.942,3.943c2.175,0,3.943-1.77,3.943-3.943S32.648,90.207,30.474,90.207z
	 M42.203,95.98l-0.274-0.244l-0.005-0.205c0.003-0.061,0.003-0.121,0.001-0.18l-0.004-0.156l0.229-0.271l0.209-0.012l0.022,0.002
	l0.991-0.004c0.235,0,0.471,0.002,0.706,0.006l0.078-0.094l0.002-1.391c0-0.266,0.073-0.5,0.217-0.695
	c0.203-0.279,0.505-0.436,0.849-0.441c0.34-0.004,0.678-0.004,1.016-0.004h1.385l0.049,0.375c0.001,0.141,0.001,0.209-0.002,0.277
	l-0.01,0.193l-0.294,0.201l-0.127,0.006l-1.632-0.002c-0.067,0.061-0.071,0.107-0.072,0.152l0.001,0.393
	c0,0.318,0.001,0.633-0.002,0.949c-0.005,0.412-0.175,0.74-0.492,0.949c-0.197,0.129-0.431,0.195-0.695,0.195H42.203z M39.619,95.98
	l-0.209-0.002l-0.226,0.002c-0.001,0-0.001,0-0.002,0c-0.336,0-0.517-0.182-0.517-0.43l0.001-0.313
	c-0.001-0.217-0.001-0.434,0.012-0.65c0.035-0.594,0.507-1.041,1.097-1.041c0.369,0.004,0.726,0.004,1.083,0.004l1.432-0.002
	c0.063-0.092,0.062-0.146,0.052-0.195l-1.349-0.012l-2.04,0.002l-0.174-0.137c-0.058-0.061-0.124-0.17-0.112-0.336
	c0.003-0.039,0.002-0.08,0.001-0.121l-0.006-0.381l0.38-0.078h3.588c0.583,0,1.055,0.439,1.098,1.021
	c0.021,0.287-0.024,0.525-0.14,0.734c-0.121,0.221-0.373,0.5-0.877,0.557c-0.1,0.012-0.196,0.012-0.292,0.012l-1.328,0.002
	c-0.33,0-0.661,0-0.992-0.004c-0.052,0.104-0.051,0.162-0.051,0.219c-0.002,0.238-0.002,0.475,0,0.709l0.003,0.377L39.619,95.98z
	 M65.557,90.551c-4.789,0-8.685-3.895-8.685-8.684s3.896-8.684,8.685-8.684c4.788,0,8.684,3.895,8.684,8.684
	S70.345,90.551,65.557,90.551z M57.629,82.189c0.169,4.227,3.66,7.611,7.928,7.611c3.896,0,7.144-2.82,7.809-6.527
	c-0.501,0.75-1.355,1.244-2.324,1.244c-1.54,0-2.793-1.252-2.793-2.793c0-1.539,1.253-2.793,2.793-2.793
	c0.917,0,1.731,0.443,2.241,1.127c-0.716-3.059-3.208-5.443-6.325-6.002c0.873,0.473,1.467,1.398,1.467,2.459
	c0,1.539-1.253,2.793-2.793,2.793c-1.541,0-2.794-1.254-2.794-2.793c0-1.088,0.625-2.033,1.535-2.494
	c-3.57,0.537-6.369,3.461-6.714,7.09c0.28-1.246,1.396-2.18,2.725-2.18c1.541,0,2.794,1.254,2.794,2.793
	c0,1.541-1.253,2.793-2.794,2.793C59.001,84.518,57.851,83.51,57.629,82.189z M71.041,79.682c-1.127,0-2.043,0.916-2.043,2.043
	s0.916,2.043,2.043,2.043s2.044-0.916,2.044-2.043S72.168,79.682,71.041,79.682z M60.383,79.682c-1.127,0-2.043,0.916-2.043,2.043
	s0.916,2.043,2.043,2.043s2.044-0.916,2.044-2.043S61.51,79.682,60.383,79.682z M63.917,77.627c0.365,0.561,0.997,0.932,1.714,0.932
	s1.349-0.371,1.713-0.932H63.917z M65.631,74.553l1.766,2.99c0.177-0.303,0.277-0.654,0.277-1.027c0-1.127-0.916-2.045-2.043-2.045
	s-2.044,0.918-2.044,2.045c0,0.373,0.101,0.725,0.277,1.025L65.631,74.553z M65.128,76.877h1.005l-0.502-0.85L65.128,76.877z
	 M19.8,90.551c-4.788,0-8.684-3.895-8.684-8.684s3.896-8.684,8.684-8.684c4.789,0,8.685,3.895,8.685,8.684
	S24.589,90.551,19.8,90.551z M19.8,73.934c-4.375,0-7.934,3.559-7.934,7.934s3.559,7.934,7.934,7.934s7.935-3.559,7.935-7.934
	S24.175,73.934,19.8,73.934z M65.631,89.736c-1.541,0-2.794-1.252-2.794-2.793c0-1.539,1.253-2.793,2.794-2.793
	c1.54,0,2.793,1.254,2.793,2.793C68.424,88.484,67.171,89.736,65.631,89.736z M65.631,84.9c-1.127,0-2.044,0.916-2.044,2.043
	s0.917,2.043,2.044,2.043s2.043-0.916,2.043-2.043S66.758,84.9,65.631,84.9z M20.985,89.525h-2.261
	c-0.765,0-1.387-0.623-1.387-1.389v-2.982c0-0.459,0.229-0.955,0.583-1.268l1.399-1.529c0.222-0.244,0.595-0.309,0.877-0.158
	c-0.114-0.135-0.179-0.305-0.178-0.479c0-0.025,0.001-0.049,0.004-0.074c-0.153,0.035-0.32,0.02-0.464-0.047
	c0.007,0.039,0.011,0.08,0.011,0.121c0.001,0.205-0.088,0.402-0.242,0.543l-1.559,1.428c-0.282,0.326-0.78,0.555-1.239,0.555h-2.983
	c-0.764,0-1.386-0.621-1.386-1.387v-2.262c0-0.764,0.622-1.387,1.386-1.387h2.983c0.155,0,0.315,0.027,0.473,0.076v-0.23
	l0.903,0.824l-0.014-0.016c-0.325-0.281-0.555-0.779-0.555-1.238v-2.984c0-0.764,0.622-1.387,1.387-1.387h2.261
	c0.766,0,1.388,0.623,1.388,1.387v2.984c0,0.154-0.026,0.314-0.075,0.471h0.228L22.47,79.16l0.117-0.107v0.234
	c0.156-0.049,0.317-0.076,0.472-0.076h2.983c0.765,0,1.387,0.623,1.387,1.387v2.262c0,0.766-0.622,1.387-1.387,1.387h-2.983
	c-0.459,0-0.956-0.229-1.268-0.584l-1.184-1.082l1.924,2.102h-0.233c0.049,0.158,0.075,0.318,0.075,0.473v2.982
	C22.373,88.902,21.751,89.525,20.985,89.525z M19.85,82.863l-1.404,1.559c-0.223,0.199-0.357,0.488-0.357,0.732v2.982
	c0,0.352,0.285,0.639,0.637,0.639h2.261c0.352,0,0.638-0.287,0.638-0.639v-2.982c0-0.199-0.091-0.432-0.236-0.607l-0.046-0.055
	L19.85,82.863z M22.41,80.232l-1.643,1.504l1.559,1.402c0.199,0.223,0.488,0.357,0.732,0.357h2.983c0.352,0,0.637-0.285,0.637-0.637
	v-2.262c0-0.352-0.285-0.637-0.637-0.637h-2.983c-0.2,0-0.433,0.09-0.606,0.236L22.41,80.232z M13.547,79.961
	c-0.351,0-0.636,0.285-0.636,0.637v2.262c0,0.352,0.285,0.637,0.636,0.637h2.983c0.245,0,0.534-0.135,0.704-0.328l1.588-1.457
	l-1.685-1.514c-0.174-0.146-0.406-0.236-0.607-0.236H13.547z M18.725,75.006c-0.352,0-0.637,0.285-0.637,0.637v2.984
	c0,0.244,0.135,0.533,0.328,0.703l1.445,1.576l1.526-1.674c0.146-0.174,0.235-0.404,0.235-0.605v-2.984
	c0-0.352-0.286-0.637-0.638-0.637H18.725z M66.628,88.635l-0.934-0.934l-0.934,0.934l-0.757-0.758l0.934-0.934l-0.934-0.934
	l0.757-0.756l0.934,0.934l0.934-0.934l0.757,0.756l-0.934,0.934l0.934,0.934L66.628,88.635z M71.041,83.354
	c-0.914,0-1.658-0.744-1.658-1.658c0-0.916,0.744-1.66,1.658-1.66c0.915,0,1.659,0.744,1.659,1.66
	C72.7,82.609,71.956,83.354,71.041,83.354z M71.041,80.785c-0.501,0-0.908,0.408-0.908,0.91c0,0.5,0.407,0.908,0.908,0.908
	s0.909-0.408,0.909-0.908C71.95,81.193,71.542,80.785,71.041,80.785z M61.774,83.088h-2.783v-2.785h2.783V83.088z M59.741,82.338
	h1.283v-1.285h-1.283V82.338z M55.152,79.125c-1.024,0-1.858-0.834-1.858-1.857v-3.053c0-1.025,0.834-1.859,1.858-1.859
	s1.858,0.834,1.858,1.859v3.053C57.011,78.291,56.177,79.125,55.152,79.125z M55.152,73.105c-0.611,0-1.108,0.498-1.108,1.109v3.053
	c0,0.611,0.497,1.107,1.108,1.107s1.108-0.496,1.108-1.107v-3.053C56.261,73.604,55.764,73.105,55.152,73.105z M30.203,79.125
	c-1.024,0-1.857-0.834-1.857-1.857v-3.053c0-1.025,0.833-1.859,1.857-1.859c1.025,0,1.859,0.834,1.859,1.859v3.053
	C32.063,78.291,31.229,79.125,30.203,79.125z M30.203,73.105c-0.61,0-1.107,0.498-1.107,1.109v3.053
	c0,0.611,0.497,1.107,1.107,1.107c0.611,0,1.109-0.496,1.109-1.107v-3.053C31.313,73.604,30.814,73.105,30.203,73.105z
	 M80.163,32.813c-0.24,0-0.434,0-0.645,0c0,0.146,0,0.268,0,0.387c0,1.52-0.002,3.041,0,4.561c0,0.23-0.021,0.455-0.236,0.584
	c-0.393,0.24-0.818,0.271-1.246,0.123c-0.406-0.141-0.488-0.283-0.488-0.721c-0.002-1.541-0.002-3.082-0.004-4.621
	c0-0.107,0-0.213,0-0.328c-0.234,0-0.422,0-0.654,0c0,0.145,0,0.254,0,0.363c0,1.541-0.002,3.08,0.004,4.621
	c0,0.238-0.053,0.445-0.266,0.568c-0.395,0.225-0.83,0.244-1.26,0.162c-0.496-0.092-0.646-0.309-0.648-0.82c0-1.52,0-3.039,0-4.561
	c0-0.105,0-0.213,0-0.32c-0.234,0-0.43,0-0.643,0c0,0.125,0,0.227,0,0.326c0,1.641,0,3.283,0.002,4.924
	c0,0.121,0.002,0.242,0.02,0.359c0.061,0.395,0.262,0.689,0.629,0.854c0.869,0.383,1.705,0.297,2.521-0.17
	c0.359,0.281,0.699,0.402,1.246,0.398c1.1-0.006,1.721-0.445,1.682-1.633l-0.014-4.713C80.163,33.041,80.163,32.926,80.163,32.813z
	 M79.651,26.771c-0.283-0.205-0.605-0.285-0.949-0.287c-0.928,0-1.857,0.006-2.787-0.002c-0.545-0.006-0.943-0.268-0.932-0.924
	c0.02-1.117,0.004-2.238,0.004-3.355c0-0.029-0.002-0.057,0.002-0.084c0.006-0.074-0.023-0.107-0.104-0.105
	c-0.137,0.006-0.275,0.006-0.414,0c-0.096-0.004-0.119,0.033-0.119,0.125c0.002,1.324,0,2.65,0.002,3.975
	c0.002,0.348,0.07,0.684,0.268,0.98c0.303,0.455,0.75,0.641,1.275,0.646c0.902,0.008,1.805,0.002,2.705,0.004
	c0.113,0,0.229,0.008,0.342,0.023c0.34,0.045,0.59,0.258,0.66,0.563c0.023,0.098,0.031,0.203,0.031,0.305
	c0.002,1.072,0,2.143,0,3.215c0,0.027-0.01,0.061,0.004,0.082c0.018,0.033,0.049,0.08,0.078,0.082
	c0.166,0.008,0.332,0.004,0.516,0.004c0-0.041,0-0.068,0-0.096c0-1.348,0.01-2.695-0.006-4.043
	C80.222,27.43,80.024,27.045,79.651,26.771z M79.778,15.492c-0.119-0.008-0.145,0.035-0.145,0.148
	c0.004,1.254,0.002,2.506,0.002,3.76c0,0.877,0.002,1.756,0,2.633c0,0.436-0.209,0.715-0.625,0.801
	c-0.18,0.037-0.373,0.045-0.553,0.02c-0.508-0.066-0.738-0.346-0.738-0.857c0-1.672-0.012-3.346,0.004-5.018
	c0.01-0.836-0.621-1.418-1.377-1.463c-0.627-0.037-1.256-0.016-1.885-0.023c-0.08,0-0.111,0.027-0.109,0.111
	c0.004,0.344,0.006,0.688,0,1.033c-0.002,0.098,0.035,0.119,0.125,0.119c0.473-0.004,0.947-0.002,1.422,0
	c0.143,0,0.285,0,0.426,0.016c0.398,0.043,0.77,0.313,0.764,0.844c-0.014,1.547-0.006,3.092-0.004,4.639
	c0,0.166,0.002,0.332,0.02,0.496c0.055,0.512,0.27,0.932,0.736,1.188c0.326,0.18,0.68,0.213,1.045,0.186
	c0.771-0.057,1.348-0.678,1.348-1.449c0-2.34,0-4.682,0-7.021c0-0.047,0-0.094,0-0.158C80.069,15.494,79.923,15.502,79.778,15.492z"
	/>
</svg>
