<?xml version="1.0" encoding="utf-8"?>
<!-- Generator: Adobe Illustrator 16.0.0, SVG Export Plug-In . SVG Version: 6.00 Build 0)  -->
<!DOCTYPE svg PUBLIC "-//W3C//DTD SVG 1.1//EN" "http://www.w3.org/Graphics/SVG/1.1/DTD/svg11.dtd">
<svg version="1.1" id="Layer_1" xmlns="http://www.w3.org/2000/svg" xmlns:xlink="http://www.w3.org/1999/xlink" x="0px" y="0px"
	 width="126px" height="126px" viewBox="0 0 126 126" enable-background="new 0 0 126 126" xml:space="preserve">
<path d="M18.702,44.338h6.845v70.884L11.626,115.2l7.076-6.288V44.338z M18.702,41.884l6.845,0.009V10.688h-6.845V41.884z
	 M50.742,105.862c-0.187,1.701-0.271,3.351-0.251,4.906c0.019,1.37,0.195,2.887,1.02,4.443l-23.873,0.011V44.338l6.161,0.5
	l41.27,8.49v25.148c-0.189,0.129-0.377,0.262-0.546,0.416h-2.905c-0.404-0.437-0.917-0.786-1.512-1.011
	c-2.941-1.115-6.02-1.069-8.923,0.118c-0.463,0.188-0.886,0.43-1.243,0.708c-0.313,0.243-0.586,0.526-0.809,0.839
	c-0.277,0.226-0.572,0.519-0.83,0.895c-0.438,0.638-0.861,1.282-1.285,1.928l-0.502,0.762c-1.059,1.601-1.641,3.289-2.029,4.583
	c-0.805,2.674-1.527,5.594-2.21,8.926C51.719,99.353,51.102,102.571,50.742,105.862z M30.982,98.974
	c0,0.041,0.019,0.056,0.063,0.067c0.234,0.064,0.47,0.131,0.705,0.196c0.07,0.019,0.141,0.039,0.211,0.064
	c0.196,0.073,0.381,0.236,0.377,0.458c-0.007,0.643-0.002,1.289-0.002,1.934c0,0.069,0.001,0.14,0.01,0.21
	c0.027,0.222,0.133,0.426,0.365,0.597c0.161,0.12,0.336,0.184,0.518,0.222c0.381,0.083,0.667-0.097,0.667-0.418
	c0-0.977,0-1.954,0-2.93c0-0.02,0-0.039,0-0.066c-0.082-0.022-0.153-0.039-0.226-0.063c-0.059-0.02-0.072-0.005-0.072,0.042
	c0.002,0.523,0.002,1.046,0.002,1.569c0,0.366,0,0.732,0,1.098c-0.001,0.182-0.104,0.27-0.311,0.248
	c-0.088-0.009-0.184-0.033-0.273-0.067c-0.252-0.099-0.365-0.247-0.365-0.46c0-0.697-0.006-1.397,0.002-2.092
	c0.005-0.348-0.308-0.678-0.682-0.801c-0.311-0.102-0.622-0.18-0.933-0.27c-0.04-0.011-0.056-0.004-0.055,0.031
	C30.985,98.688,30.986,98.831,30.982,98.974z M30.984,102.927c0.001,0.146,0.035,0.296,0.133,0.446
	c0.149,0.231,0.371,0.371,0.631,0.445c0.447,0.128,0.894,0.249,1.34,0.374c0.057,0.017,0.113,0.036,0.17,0.058
	c0.168,0.066,0.291,0.188,0.326,0.325c0.012,0.045,0.015,0.089,0.015,0.132c0.001,0.447,0.001,0.895,0.001,1.342
	c0,0.011-0.005,0.023,0.001,0.034c0.01,0.016,0.025,0.041,0.04,0.045c0.081,0.026,0.164,0.048,0.255,0.073c0-0.019,0-0.029,0-0.041
	c0-0.563,0.005-1.123-0.003-1.688c-0.003-0.188-0.102-0.375-0.286-0.541c-0.14-0.124-0.299-0.203-0.47-0.25
	c-0.459-0.129-0.92-0.254-1.38-0.386c-0.27-0.076-0.468-0.241-0.462-0.513c0.011-0.464,0.004-0.933,0.004-1.399
	c0-0.013-0.002-0.023,0-0.035c0.002-0.03-0.012-0.048-0.051-0.059c-0.068-0.017-0.137-0.035-0.206-0.056
	c-0.047-0.016-0.06-0.003-0.059,0.034C30.984,101.822,30.982,102.374,30.984,102.927z M33.896,108.39
	c0.009-0.098-0.037-0.193-0.097-0.29c-0.179-0.294-0.358-0.588-0.537-0.881c-0.532-0.874-1.065-1.749-1.598-2.623
	c-0.028-0.045-0.061-0.091-0.099-0.131c-0.107-0.11-0.223-0.11-0.254,0c-0.012,0.043-0.014,0.09-0.014,0.138
	c-0.001,0.891-0.001,1.781,0,2.672c0,0.04-0.014,0.051-0.063,0.035c-0.08-0.025-0.16-0.046-0.245-0.069c0,0.177,0,0.35,0,0.527
	c0.082,0.022,0.159,0.047,0.238,0.065c0.054,0.013,0.071,0.032,0.069,0.079c-0.003,0.138-0.002,0.278,0,0.42
	c0.001,0.016,0.017,0.048,0.025,0.051c0.094,0.029,0.187,0.054,0.283,0.08c0.002-0.023,0.004-0.041,0.004-0.059
	c0-0.133,0.002-0.266-0.002-0.4c0-0.05,0.014-0.063,0.075-0.045c0.63,0.178,1.261,0.354,1.891,0.527
	c0.062,0.017,0.126,0.027,0.185,0.028C33.854,108.518,33.89,108.471,33.896,108.39z M31.674,105.123
	c-0.012-0.018-0.025-0.033-0.038-0.051c-0.007,0-0.013,0-0.019,0.001c0,0.78,0,1.56,0,2.341c0.018,0.006,0.029,0.011,0.04,0.014
	c0.542,0.151,1.085,0.302,1.627,0.453c0.067,0.019,0.075,0.007,0.038-0.055C32.773,106.925,32.223,106.023,31.674,105.123z
	 M75.068,51.341V24.136L34.725,10.688h-7.087v31.206l6.394,0.557L75.068,51.341z M66.994,92.101l-1.308-1.429
	c-0.124-0.135-0.322-0.135-0.445,0l-1.201,1.313c-0.231,0.202-0.384,0.532-0.384,0.83v2.51c0,0.471,0.381,0.853,0.852,0.853h1.902
	c0.471,0,0.852-0.382,0.852-0.853v-2.51c0-0.246-0.104-0.514-0.271-0.714H66.994z M64.803,89.703l-1.43-1.309v0.003
	c-0.199-0.166-0.467-0.271-0.713-0.271h-2.511c-0.47,0-0.851,0.382-0.851,0.852v1.903c0,0.471,0.381,0.852,0.851,0.852h2.511
	c0.298,0,0.627-0.153,0.83-0.385l1.313-1.201C64.938,90.024,64.938,89.825,64.803,89.703z M77.786,89.478h12.955
	c0.642,0,1.165-0.523,1.165-1.167v-0.015V81.58v-0.034c0-0.644-0.523-1.167-1.164-1.167H77.787c-0.643,0-1.166,0.523-1.166,1.167
	v0.015v6.716v0.034C76.621,88.954,77.145,89.478,77.786,89.478z M65.241,89.462c0.123,0.134,0.321,0.134,0.445,0l1.308-1.43h-0.003
	c0.167-0.2,0.271-0.468,0.271-0.713v-2.512c0-0.47-0.381-0.851-0.852-0.851h-1.902c-0.471,0-0.852,0.381-0.852,0.851v2.512
	c0,0.297,0.152,0.627,0.384,0.829L65.241,89.462z M107.506,87.835c1.096,0,1.982,0.888,1.982,1.982s-0.887,1.982-1.982,1.982
	c-1.094,0-1.982-0.888-1.982-1.982S106.412,87.835,107.506,87.835z M107.506,88.496c-0.715,0-1.297,0.581-1.297,1.296
	c0,0.716,0.582,1.299,1.297,1.299c0.717,0,1.299-0.583,1.299-1.299C108.805,89.077,108.223,88.496,107.506,88.496z M102.12,86.231
	h1.901l-0.951-1.609L102.12,86.231z M105.053,85.546c0,1.096-0.887,1.982-1.982,1.982c-1.094,0-1.982-0.887-1.982-1.982
	c0-1.095,0.889-1.982,1.982-1.982C104.166,83.563,105.053,84.451,105.053,85.546z M104.451,86.477l-1.381-2.336l-1.379,2.336
	H104.451z M106.454,89.792c0,0.581,0.472,1.054,1.052,1.054c0.581,0,1.053-0.473,1.053-1.054c0-0.579-0.472-1.052-1.053-1.052
	C106.926,88.74,106.454,89.213,106.454,89.792z M105.053,94.096c0,1.095-0.887,1.982-1.982,1.982c-1.094,0-1.982-0.888-1.982-1.982
	s0.889-1.982,1.982-1.982C104.166,92.113,105.053,93.001,105.053,94.096z M103.349,94.096l0.93-0.93l-0.226-0.226l-0.93,0.93
	l-0.93-0.93l-0.226,0.226l0.93,0.93l-0.93,0.93l0.226,0.226l0.93-0.93l0.93,0.93l0.226-0.226L103.349,94.096z M114.371,109.931
	c-0.025,1.969-0.458,3.322-2.367,4.894c-3.33,2.573-7.83,0.894-8.783-0.513s-1.764-3.592-2.41-5.491
	c-0.527-1.545-1.055-3.09-1.569-4.64c-0.165-0.494-0.577-0.679-0.996-0.863c-0.051-0.021-0.151,0.027-0.21,0.07
	c-2.297,1.673-5.205,1.621-7.443-0.125c-0.113-0.089-0.285-0.15-0.43-0.15c-0.66,0-2.363,0.002-4.035,0.005v0.007
	c-0.365-0.001-1.051-0.002-1.873-0.004c-0.822,0.002-1.507,0.003-1.873,0.004v-0.007c-1.672-0.003-3.374-0.005-4.035-0.005
	c-0.145,0-0.315,0.062-0.43,0.15c-2.238,1.746-5.146,1.798-7.443,0.125c-0.059-0.043-0.158-0.092-0.209-0.07
	c-0.419,0.185-0.832,0.369-0.996,0.863c-0.516,1.55-1.043,3.095-1.568,4.64c-0.647,1.899-1.459,4.085-2.412,5.491
	c-0.952,1.406-5.451,3.086-8.783,0.513c-1.908-1.571-2.341-2.925-2.367-4.894c-0.019-1.493,0.068-2.995,0.23-4.479
	c0.328-2.992,0.879-5.953,1.482-8.902c0.594-2.901,1.279-5.782,2.133-8.62c0.387-1.284,0.852-2.533,1.598-3.661
	c0.583-0.881,1.155-1.768,1.753-2.639c0.109-0.159,0.306-0.271,0.483-0.369c0.135-0.075,0.234-0.129,0.244-0.308
	c0.006-0.095,0.086-0.206,0.166-0.268c0.124-0.097,0.271-0.174,0.418-0.233c2.109-0.863,4.23-0.899,6.365-0.09
	c0.182,0.068,0.284,0.191,0.267,0.38c-0.026,0.294,0.087,0.456,0.384,0.482c0.023,0.002,0.047,0.014,0.068,0.025
	c0.502,0.26,1.042,0.349,1.602,0.351h4.741l-0.015,6.71c0,0.955,0.775,1.732,1.729,1.732h12.955c0.954,0,1.729-0.777,1.729-1.732
	v-6.71h4.708c0.56-0.002,1.099-0.091,1.603-0.351c0.02-0.012,0.043-0.023,0.066-0.025c0.297-0.026,0.411-0.188,0.385-0.482
	c-0.018-0.188,0.084-0.312,0.266-0.38c2.135-0.81,4.256-0.773,6.366,0.09c0.147,0.06,0.293,0.137,0.417,0.233
	c0.08,0.062,0.16,0.173,0.166,0.268c0.01,0.179,0.109,0.232,0.244,0.308c0.178,0.098,0.375,0.21,0.484,0.369
	c0.598,0.871,1.17,1.758,1.752,2.639c0.746,1.128,1.212,2.377,1.598,3.661c0.854,2.838,1.539,5.719,2.133,8.62
	c0.604,2.949,1.155,5.91,1.482,8.902C114.303,106.936,114.391,108.438,114.371,109.931z M72.813,86.162
	c0,0.673,0.543,1.217,1.215,1.217s1.217-0.544,1.217-1.217V83.66c0-0.672-0.545-1.216-1.217-1.216s-1.215,0.544-1.215,1.216V86.162z
	 M72.311,89.935c0-3.762-3.051-6.813-6.813-6.813s-6.812,3.051-6.812,6.813s3.05,6.812,6.812,6.812S72.311,93.696,72.311,89.935z
	 M77.789,100.003c0-1.955-1.585-3.54-3.54-3.54c-1.954,0-3.54,1.585-3.54,3.54s1.586,3.539,3.54,3.539
	C76.204,103.542,77.789,101.958,77.789,100.003z M84.041,100.077c0.068,0,0.137,0,0.205-0.007c0.209-0.024,0.381-0.111,0.485-0.302
	c0.073-0.133,0.087-0.279,0.076-0.429c-0.023-0.315-0.278-0.553-0.593-0.553c-0.959,0-1.918,0-2.877,0c-0.02,0-0.039,0-0.064,0
	c0,0.069,0.003,0.128-0.002,0.188c-0.002,0.047,0.016,0.059,0.063,0.059c0.512-0.002,1.025-0.002,1.539-0.002
	c0.359,0,0.719,0,1.078,0.001c0.179,0,0.293,0.086,0.328,0.256c0.016,0.073,0.019,0.152,0.008,0.227
	c-0.027,0.208-0.141,0.303-0.352,0.303c-0.684,0-1.369,0.005-2.055-0.003c-0.342-0.003-0.58,0.256-0.599,0.564
	c-0.015,0.257-0.007,0.515-0.009,0.771c-0.002,0.033,0.01,0.046,0.045,0.046c0.141-0.001,0.281-0.003,0.423,0
	c0.04,0.001,0.049-0.016,0.049-0.051c-0.001-0.194-0.001-0.39,0-0.584c0-0.058,0-0.116,0.007-0.174
	c0.018-0.162,0.127-0.315,0.346-0.313C82.775,100.082,83.408,100.078,84.041,100.077z M88.041,98.787c-0.018,0-0.028,0-0.039,0
	c-0.553,0-1.104-0.003-1.656,0.003c-0.184,0.003-0.342,0.084-0.453,0.236c-0.084,0.116-0.117,0.248-0.117,0.389
	c-0.002,0.381,0.002,0.762-0.002,1.143c-0.002,0.223-0.109,0.386-0.377,0.381c-0.459-0.008-0.918-0.002-1.375-0.002
	c-0.012,0-0.023,0.001-0.035,0c-0.03-0.003-0.043,0.01-0.043,0.042c0.002,0.057,0.002,0.113,0,0.17
	c-0.002,0.038,0.014,0.049,0.051,0.049c0.543-0.001,1.086,0,1.629-0.001c0.143,0,0.279-0.03,0.4-0.109
	c0.188-0.124,0.264-0.308,0.266-0.523c0.004-0.369,0-0.738,0.001-1.107c0.001-0.047,0.004-0.094,0.011-0.141
	c0.018-0.139,0.105-0.241,0.229-0.27c0.04-0.011,0.083-0.013,0.126-0.013c0.438-0.001,0.877-0.001,1.316-0.001
	c0.011,0,0.024,0.005,0.033,0c0.014-0.009,0.033-0.021,0.033-0.033C88.043,98.932,88.041,98.864,88.041,98.787z M93.264,86.162
	c0,0.673,0.545,1.217,1.217,1.217s1.217-0.544,1.217-1.217V83.66c0-0.672-0.545-1.216-1.217-1.216s-1.217,0.544-1.217,1.216V86.162z
	 M97.799,100.003c0-1.955-1.585-3.54-3.539-3.54c-1.955,0-3.54,1.585-3.54,3.54s1.585,3.539,3.54,3.539
	C96.214,103.542,97.799,101.958,97.799,100.003z M109.822,89.935c0-3.762-3.051-6.813-6.813-6.813s-6.813,3.051-6.813,6.813
	s3.051,6.812,6.813,6.812S109.822,93.696,109.822,89.935z M100.752,89.817c0,1.095-0.889,1.982-1.982,1.982
	c-1.096,0-1.983-0.888-1.983-1.982s0.888-1.982,1.983-1.982C99.863,87.835,100.752,88.723,100.752,89.817z M99.848,88.715h-2.158
	v2.156h2.158V88.715z M70.666,88.127h-2.511c-0.245,0-0.513,0.104-0.713,0.271v-0.003l-1.429,1.309
	c-0.135,0.122-0.135,0.321,0,0.444l1.313,1.201c0.202,0.231,0.531,0.385,0.829,0.385h2.511c0.471,0,0.852-0.381,0.852-0.852v-1.903
	C71.518,88.509,71.137,88.127,70.666,88.127z M99.602,88.958h-1.667v1.669h1.667V88.958z"/>
</svg>
