<?xml version="1.0" encoding="utf-8"?>
<!-- Generator: Adobe Illustrator 16.0.0, SVG Export Plug-In . SVG Version: 6.00 Build 0)  -->
<!DOCTYPE svg PUBLIC "-//W3C//DTD SVG 1.1//EN" "http://www.w3.org/Graphics/SVG/1.1/DTD/svg11.dtd">
<svg version="1.1" id="Layer_1" xmlns="http://www.w3.org/2000/svg" xmlns:xlink="http://www.w3.org/1999/xlink" x="0px" y="0px"
	 width="126px" height="126px" viewBox="0 0 126 126" enable-background="new 0 0 126 126" xml:space="preserve">
<path d="M96.166,118.833H29.834V7.167h66.332V118.833z M30.834,117.833h64.332V8.167H30.834V117.833z M87.333,113.666H38.667
	c-3.033,0-5.5-2.468-5.5-5.5V17.834c0-3.032,2.467-5.5,5.5-5.5h48.666c3.033,0,5.5,2.468,5.5,5.5v90.332
	C92.833,111.198,90.366,113.666,87.333,113.666z M38.667,13.334c-2.481,0-4.5,2.019-4.5,4.5v90.332c0,2.481,2.019,4.5,4.5,4.5
	h48.666c2.481,0,4.5-2.019,4.5-4.5V17.834c0-2.481-2.019-4.5-4.5-4.5H38.667z M92.833,105.166H33.167V20.834h59.666V105.166z
	 M34.167,104.166h57.666V21.834H34.167V104.166z M60.726,111.444l2.034-0.449v-2.025l-2.034,0.398V111.444z M60.726,108.88
	l2.034-0.399v-2.036l-2.034,0.448V108.88z M63.24,110.89l2.034-0.448v-1.966l-2.034,0.398V110.89z M63.24,106.34v2.045l2.034-0.398
	v-2.097L63.24,106.34z M66.542,10.458h-7.084c-0.391,0-0.708-0.317-0.708-0.708s0.317-0.708,0.708-0.708h7.084
	c0.391,0,0.708,0.317,0.708,0.708S66.933,10.458,66.542,10.458z M59.458,9.542c-0.114,0-0.208,0.094-0.208,0.208
	s0.094,0.208,0.208,0.208h7.084c0.114,0,0.208-0.094,0.208-0.208s-0.094-0.208-0.208-0.208H59.458z"/>
</svg>
