<?xml version="1.0" encoding="utf-8"?>
<!-- Generator: Adobe Illustrator 16.0.0, SVG Export Plug-In . SVG Version: 6.00 Build 0)  -->
<!DOCTYPE svg PUBLIC "-//W3C//DTD SVG 1.1//EN" "http://www.w3.org/Graphics/SVG/1.1/DTD/svg11.dtd">
<svg version="1.1" id="Layer_1" xmlns="http://www.w3.org/2000/svg" xmlns:xlink="http://www.w3.org/1999/xlink" x="0px" y="0px"
	 width="126px" height="126px" viewBox="0 0 126 126" enable-background="new 0 0 126 126" xml:space="preserve">
<g>
	<path d="M30.334,8.093v110.666h65.332V8.093H30.334z M59.458,9.885h7.084c0.253,0,0.458,0.205,0.458,0.458
		s-0.205,0.458-0.458,0.458h-7.084c-0.253,0-0.458-0.205-0.458-0.458S59.205,9.885,59.458,9.885z M92.333,108.592
		c0,2.762-2.238,5-5,5H38.667c-2.762,0-5-2.238-5-5V18.26c0-2.762,2.238-5,5-5h48.666c2.762,0,5,2.238,5,5V108.592z"/>
	<path d="M35.333,105.092h55.334V21.76H35.333V105.092z M36.333,22.76h53.334v81.332H36.333V22.76z"/>
	<polygon points="61.188,109.588 63.027,109.227 63.027,107.386 61.188,107.791 	"/>
	<polygon points="63.461,109.141 65.301,108.78 65.301,106.885 63.461,107.291 	"/>
	<polygon points="61.188,111.906 63.027,111.5 63.027,109.669 61.188,110.029 	"/>
	<polygon points="63.461,111.405 65.301,111 65.301,109.223 63.461,109.583 	"/>
</g>
</svg>
