<?xml version="1.0" encoding="utf-8"?>
<!-- Generator: Adobe Illustrator 16.0.0, SVG Export Plug-In . SVG Version: 6.00 Build 0)  -->
<!DOCTYPE svg PUBLIC "-//W3C//DTD SVG 1.1//EN" "http://www.w3.org/Graphics/SVG/1.1/DTD/svg11.dtd">
<svg version="1.1" id="Layer_1" xmlns="http://www.w3.org/2000/svg" xmlns:xlink="http://www.w3.org/1999/xlink" x="0px" y="0px"
	 width="126px" height="126px" viewBox="0 0 126 126" enable-background="new 0 0 126 126" xml:space="preserve">
<path d="M94.501,118.756H31.499V7.244h63.002V118.756z M32.499,117.756h61.002V8.244H32.499V117.756z M90.004,103.248H35.996V13.904
	h54.008V103.248z M36.996,102.248h52.008V14.904H36.996V102.248z M68.339,12.07H57.661v-1.554h10.678V12.07z M60.726,113.069
	l2.034-0.449v-2.025l-2.034,0.398V113.069z M60.726,110.505l2.034-0.399v-2.036l-2.034,0.448V110.505z M63.24,112.515l2.034-0.448
	v-1.966l-2.034,0.398V112.515z M63.24,107.965v2.045l2.034-0.398v-2.097L63.24,107.965z"/>
</svg>
