<?xml version="1.0" encoding="utf-8"?>
<!-- Generator: Adobe Illustrator 16.0.0, SVG Export Plug-In . SVG Version: 6.00 Build 0)  -->
<!DOCTYPE svg PUBLIC "-//W3C//DTD SVG 1.1//EN" "http://www.w3.org/Graphics/SVG/1.1/DTD/svg11.dtd">
<svg version="1.1" id="Layer_1" xmlns="http://www.w3.org/2000/svg" xmlns:xlink="http://www.w3.org/1999/xlink" x="0px" y="0px"
	 width="126px" height="126px" viewBox="0 0 126 126" enable-background="new 0 0 126 126" xml:space="preserve">
<path d="M117.035,22.257H8.965c-0.947,0-1.715,0.767-1.715,1.715v78.908c0,0.948,0.768,1.715,1.715,1.715h108.07
	c0.948,0,1.715-0.767,1.715-1.715V23.972C118.75,23.023,117.983,22.257,117.035,22.257z M62.76,102.703l-2.034,0.449v-2.076
	l2.034-0.398V102.703z M62.76,100.188l-2.034,0.399v-1.987l2.034-0.448V100.188z M65.274,102.149l-2.034,0.448v-2.016l2.034-0.398
	V102.149z M65.274,99.694l-2.034,0.398v-2.045l2.034-0.45V99.694z M111.889,96.52H14.111V29.332h97.777V96.52z"/>
</svg>
