<?xml version="1.0" encoding="utf-8"?>
<!-- Generator: Adobe Illustrator 16.0.0, SVG Export Plug-In . SVG Version: 6.00 Build 0)  -->
<!DOCTYPE svg PUBLIC "-//W3C//DTD SVG 1.1//EN" "http://www.w3.org/Graphics/SVG/1.1/DTD/svg11.dtd">
<svg version="1.1" id="Layer_1" xmlns="http://www.w3.org/2000/svg" xmlns:xlink="http://www.w3.org/1999/xlink" x="0px" y="0px"
	 width="126px" height="126px" viewBox="0 0 126 126" enable-background="new 0 0 126 126" xml:space="preserve">
<path d="M84.669,79.496h-0.08l-0.07,0.041c-0.033,0.02-3.383,1.926-8.561,2.621l-3.255,0.006c-5.443-0.688-9.544-2.676-9.585-2.695
	l-0.132-0.031c-5.206,0-8.455,4.426-10.264,8.141c-2.171,4.457-3.467,10.469-3.467,16.078c0,6.443,1.776,13.328,6.762,13.328
	c4.415,0,6.115-3.252,7.916-6.695c2.086-3.988,4.242-8.113,10.844-8.113c5.417,0,7.566,4.209,9.646,8.279
	c1.68,3.287,3.266,6.393,6.5,6.393c2.071,0,3.74-1.275,4.827-3.689c0.955-2.123,1.461-5.1,1.461-8.609
	C97.211,94.088,92.439,79.496,84.669,79.496z M95.202,112.912c-0.996,2.213-2.436,3.336-4.279,3.336
	c-2.867,0-4.303-2.813-5.966-6.066c-2.061-4.033-4.396-8.605-10.18-8.605c-6.965,0-9.308,4.48-11.375,8.434
	c-1.789,3.42-3.333,6.375-7.385,6.375c-4.548,0-6.162-6.857-6.162-12.729c0-11.326,4.992-23.551,13.063-23.619
	c0.552,0.26,4.541,2.068,9.746,2.725l3.333-0.006c4.979-0.666,8.218-2.365,8.749-2.658C92.1,80.195,96.61,94.375,96.61,104.549
	C96.61,107.975,96.124,110.865,95.202,112.912z M66.177,90.477c-2.521,0-4.571,2.051-4.571,4.57c0,0.615,0.122,1.201,0.343,1.738
	l0.004,0.012h0.001c0.688,1.654,2.322,2.82,4.224,2.82s3.535-1.166,4.223-2.82h0.002l0.007-0.021
	c0.219-0.533,0.339-1.117,0.339-1.729C70.747,92.527,68.697,90.477,66.177,90.477z M64.866,91.299
	c0.025,0.115,0.038,0.23,0.038,0.348c0,0.906-0.737,1.645-1.644,1.645c-0.201,0-0.4-0.039-0.588-0.111
	C63.14,92.309,63.922,91.631,64.866,91.299z M64.667,98.719c-1.017-0.418-1.821-1.246-2.209-2.277
	c0.245-0.139,0.52-0.213,0.803-0.213c0.906,0,1.644,0.738,1.644,1.645C64.904,98.174,64.822,98.463,64.667,98.719z M67.686,98.721
	c-0.156-0.256-0.238-0.547-0.238-0.848c0-0.906,0.738-1.645,1.646-1.645c0.283,0,0.557,0.074,0.802,0.213
	C69.507,97.473,68.701,98.301,67.686,98.721z M70.128,95.047c0,0.268-0.027,0.535-0.081,0.797c-0.297-0.141-0.621-0.215-0.954-0.215
	c-1.238,0-2.245,1.006-2.245,2.244c0,0.357,0.084,0.703,0.244,1.016c-0.602,0.145-1.23,0.146-1.832,0
	c0.161-0.313,0.244-0.658,0.244-1.016c0-1.238-1.006-2.244-2.243-2.244c-0.334,0-0.658,0.074-0.955,0.215
	c-0.053-0.26-0.08-0.525-0.08-0.797c0-0.451,0.075-0.891,0.225-1.311c0.258,0.102,0.533,0.154,0.811,0.154
	c1.237,0,2.243-1.006,2.243-2.244c0-0.162-0.018-0.322-0.053-0.48c0.487-0.094,0.962-0.094,1.449,0
	c-0.035,0.158-0.053,0.32-0.053,0.48c0,1.238,1.007,2.244,2.245,2.244c0.276,0,0.552-0.053,0.81-0.154
	C70.052,94.16,70.128,94.6,70.128,95.047z M69.093,93.291c-0.907,0-1.646-0.738-1.646-1.645c0-0.115,0.013-0.232,0.039-0.348
	c0.944,0.33,1.727,1.01,2.193,1.881C69.492,93.252,69.293,93.291,69.093,93.291z M86.519,90.912c-0.918,0-1.665,0.748-1.665,1.666
	c0,0.92,0.747,1.666,1.665,1.666c0.919,0,1.667-0.746,1.667-1.666C88.186,91.66,87.438,90.912,86.519,90.912z M86.519,93.645
	c-0.587,0-1.065-0.479-1.065-1.066s0.479-1.066,1.065-1.066c0.589,0,1.067,0.479,1.067,1.066S87.107,93.645,86.519,93.645z
	 M69.488,85.031c-0.855,0-1.552,0.697-1.552,1.553c0,0.857,0.696,1.553,1.552,1.553c0.856,0,1.553-0.695,1.553-1.553
	C71.041,85.729,70.345,85.031,69.488,85.031z M69.488,87.537c-0.525,0-0.952-0.428-0.952-0.953s0.427-0.953,0.952-0.953
	s0.953,0.428,0.953,0.953S70.014,87.537,69.488,87.537z M89.253,87.516c-0.919,0-1.667,0.748-1.667,1.666
	c0,0.92,0.748,1.668,1.667,1.668s1.666-0.748,1.666-1.668C90.919,88.264,90.172,87.516,89.253,87.516z M89.253,90.25
	c-0.589,0-1.067-0.479-1.067-1.068c0-0.588,0.479-1.066,1.067-1.066c0.588,0,1.066,0.479,1.066,1.066
	C90.319,89.771,89.841,90.25,89.253,90.25z M75.597,86.148c0-0.576-0.224-1.119-0.63-1.529l-0.243-0.246l0.041-0.027l-0.532-0.217
	c-0.263-0.105-0.535-0.16-0.809-0.16h-0.007c-0.277,0-0.552,0.055-0.816,0.162l-0.533,0.217l0.042,0.027l-0.241,0.244
	c-0.406,0.41-0.629,0.953-0.629,1.529c0,0.361,0.093,0.711,0.274,1.045l-0.033,0.014l0.328,0.52l0.036-0.082
	c0.413,0.436,0.977,0.684,1.572,0.684c0.593,0,1.155-0.246,1.568-0.68l0.035,0.078l0.195-0.35l0.139-0.17l-0.035-0.016
	C75.504,86.859,75.597,86.51,75.597,86.148z M71.839,86.148c0-0.287,0.077-0.564,0.221-0.805c0.076,0.107,0.157,0.213,0.242,0.32
	c-0.176,0.217-0.33,0.432-0.455,0.633C71.842,86.248,71.839,86.197,71.839,86.148z M72.479,87.41
	c0.022-0.012,0.045-0.023,0.067-0.037c0.276-0.148,0.573-0.352,0.87-0.592c0.299,0.24,0.595,0.443,0.862,0.588
	c0.025,0.014,0.05,0.027,0.075,0.041C73.813,87.818,73.021,87.818,72.479,87.41z M74.572,86.846c-0.292-0.158-0.633-0.4-0.959-0.684
	l-0.196-0.17l-0.196,0.17c-0.324,0.281-0.664,0.523-0.966,0.688c-0.018,0.01-0.034,0.018-0.051,0.027
	c0.011-0.02,0.021-0.039,0.033-0.059c0.154-0.289,0.391-0.621,0.683-0.959l0.171-0.195l-0.171-0.197
	c-0.225-0.26-0.421-0.525-0.582-0.793l-0.151-0.25l0.364,0.236c0.222,0.145,0.447,0.314,0.67,0.508l0.196,0.17l0.196-0.17
	c0.225-0.193,0.45-0.365,0.671-0.51l0.367-0.238l-0.154,0.254c-0.162,0.268-0.357,0.535-0.583,0.793l-0.171,0.197l0.171,0.197
	c0.286,0.326,0.522,0.658,0.688,0.965c0.01,0.018,0.02,0.035,0.028,0.053C74.612,86.867,74.592,86.857,74.572,86.846z
	 M74.989,86.299c-0.129-0.207-0.283-0.422-0.457-0.635c0.086-0.107,0.167-0.213,0.243-0.32c0.145,0.24,0.222,0.518,0.222,0.805
	C74.997,86.199,74.994,86.25,74.989,86.299z M64.185,87.211c0-1.932-1.571-3.502-3.504-3.502c-1.931,0-3.502,1.57-3.502,3.502
	s1.571,3.502,3.502,3.502C62.613,90.713,64.185,89.143,64.185,87.211z M60.895,90.105l1.05-1.271h-2.525l1.048,1.271
	c-1.443-0.105-2.597-1.271-2.683-2.721l1.32,1.088v-2.525l-1.321,1.094c0.085-1.451,1.239-2.619,2.684-2.725l-1.049,1.271h2.526
	l-1.051-1.271c1.419,0.104,2.559,1.23,2.681,2.643l-1.224-1.012v2.525l1.223-1.006C63.449,88.877,62.312,90.002,60.895,90.105z
	 M86.208,88.115c0.919,0,1.667-0.748,1.667-1.668c0-0.918-0.748-1.664-1.667-1.664c-0.918,0-1.665,0.746-1.665,1.664
	C84.543,87.367,85.29,88.115,86.208,88.115z M86.208,85.383c0.589,0,1.067,0.479,1.067,1.064c0,0.59-0.479,1.068-1.067,1.068
	c-0.587,0-1.065-0.479-1.065-1.068C85.143,85.861,85.621,85.383,86.208,85.383z M77.675,88.137c0.855,0,1.552-0.695,1.552-1.553
	c0-0.855-0.696-1.553-1.552-1.553c-0.856,0-1.553,0.697-1.553,1.553C76.122,87.441,76.818,88.137,77.675,88.137z M77.675,85.631
	c0.525,0,0.952,0.428,0.952,0.953s-0.427,0.953-0.952,0.953s-0.953-0.428-0.953-0.953S77.149,85.631,77.675,85.631z M78.627,92.195
	c-1.741,0-3.158,1.418-3.158,3.16c0,1.74,1.417,3.156,3.158,3.156s3.158-1.416,3.158-3.156
	C81.785,93.613,80.368,92.195,78.627,92.195z M81.168,95.658c-0.141,1.18-1.089,2.117-2.276,2.24l0.931-1.129h-2.39l0.93,1.129
	c-1.213-0.125-2.177-1.1-2.284-2.316l1.175,0.967v-2.391l-1.175,0.971c0.107-1.219,1.071-2.193,2.284-2.32l-0.93,1.129h2.391
	l-0.932-1.129c1.188,0.123,2.136,1.061,2.276,2.244l-1.083-0.893v2.387L81.168,95.658z M83.477,88.18
	c-0.919,0-1.667,0.746-1.667,1.666c0,0.918,0.748,1.666,1.667,1.666s1.666-0.748,1.666-1.666
	C85.143,88.926,84.396,88.18,83.477,88.18z M83.477,90.912c-0.589,0-1.067-0.479-1.067-1.066s0.479-1.066,1.067-1.066
	c0.588,0,1.066,0.479,1.066,1.066S84.064,90.912,83.477,90.912z M52.595,22.081l-0.283,0.327l0.283,0.327
	c0.53,0.613,0.995,1.227,1.382,1.822l0.522,0.806l0.36-0.891c0.27-0.668,0.406-1.362,0.406-2.064c0-0.701-0.137-1.396-0.407-2.064
	l-0.36-0.89l-0.522,0.805C53.586,20.858,53.121,21.472,52.595,22.081z M54.266,22.408c0,0.245-0.021,0.489-0.062,0.731
	c-0.182-0.243-0.374-0.487-0.576-0.731c0.201-0.244,0.394-0.488,0.576-0.731C54.245,21.919,54.266,22.163,54.266,22.408z
	 M46.287,26.669l0.019,0.016l-0.092,0.04l0.447,0.248l0.141,0.115l0.013-0.029l0.276,0.153c0.849,0.473,1.744,0.712,2.661,0.712
	c1.455,0,2.83-0.565,3.87-1.591l0.457-0.45l-0.548-0.333c-0.732-0.446-1.459-0.98-2.16-1.588l-0.327-0.284l-0.328,0.285
	c-0.901,0.783-1.805,1.427-2.625,1.868c-0.35,0.202-0.674,0.36-0.959,0.487c0.149-0.334,0.313-0.656,0.496-0.97
	c0.436-0.809,1.079-1.712,1.86-2.613l0.284-0.327l-0.285-0.328c-0.766-0.881-1.427-1.809-1.866-2.623
	c-0.178-0.308-0.342-0.629-0.488-0.956h0.001c0.285,0.125,0.609,0.284,0.971,0.492c0.807,0.435,1.71,1.079,2.612,1.861l0.326,0.283
	l0.328-0.283c0.703-0.607,1.45-1.155,2.158-1.583l0.551-0.332l-0.457-0.451c-1.694-1.673-4.342-2.103-6.532-0.882l-0.275,0.153
	l-0.014-0.032l-0.594,0.369l0.092,0.04l-0.014,0.011c-1.302,1.063-2.049,2.616-2.049,4.261
	C44.237,24.057,44.984,25.61,46.287,26.669z M48.578,26.704c0.771-0.415,1.618-1.001,2.467-1.708
	c0.456,0.377,0.921,0.725,1.392,1.04c-1.104,0.822-2.563,1.116-3.92,0.703C48.537,26.728,48.558,26.716,48.578,26.704z
	 M52.436,18.783c-0.465,0.311-0.931,0.658-1.391,1.038c-0.849-0.705-1.693-1.292-2.454-1.702c-0.023-0.014-0.048-0.027-0.071-0.04
	C49.868,17.675,51.334,17.963,52.436,18.783z M46.439,19.372c0.099,0.196,0.202,0.389,0.309,0.572
	c0.419,0.777,1.005,1.622,1.706,2.464c-0.704,0.847-1.289,1.691-1.699,2.452c-0.109,0.188-0.215,0.384-0.315,0.585
	c-0.771-0.83-1.202-1.907-1.202-3.037C45.237,21.281,45.669,20.205,46.439,19.372z M50.3,72.76c0-3.387-2.755-6.143-6.142-6.143
	s-6.143,2.756-6.143,6.143c0,3.386,2.756,6.141,6.143,6.141S50.3,76.146,50.3,72.76z M44.158,77.9c-2.836,0-5.143-2.306-5.143-5.141
	c0-2.836,2.307-5.143,5.143-5.143c2.835,0,5.142,2.307,5.142,5.143C49.3,75.595,46.993,77.9,44.158,77.9z M47.204,103.523
	c0-9.236,3.428-20.616,9.979-24.498l0.246-0.146l-0.005-1.237c0-16.117,2.082-66.122,2.104-66.646c0-1.285-1.045-2.33-2.33-2.33
	H31.119c-1.285,0-2.33,1.045-2.33,2.351c0.021,0.504,2.104,50.509,2.104,66.626c0,16.104-2.08,37.102-2.104,37.361
	c0,1.285,1.045,2.33,2.33,2.33h20.7l-0.857-0.854C48.539,114.064,47.204,109.464,47.204,103.523z M31.119,116.334
	c-0.733,0-1.33-0.597-1.333-1.28c0.021-0.211,2.106-21.257,2.106-37.411c0-16.139-2.083-66.164-2.104-66.646
	c0-0.733,0.597-1.33,1.33-1.33h26.078c0.733,0,1.33,0.597,1.33,1.31c-0.021,0.503-2.104,50.528-2.104,66.667l0.003,0.673
	c-7.021,4.384-10.223,16.088-10.223,25.208c0,5.583,1.164,10.069,3.299,12.811H31.119z"/>
</svg>
