<?xml version="1.0" encoding="utf-8"?>
<!-- Generator: Adobe Illustrator 16.0.0, SVG Export Plug-In . SVG Version: 6.00 Build 0)  -->
<!DOCTYPE svg PUBLIC "-//W3C//DTD SVG 1.1//EN" "http://www.w3.org/Graphics/SVG/1.1/DTD/svg11.dtd">
<svg version="1.1" id="Layer_1" xmlns="http://www.w3.org/2000/svg" xmlns:xlink="http://www.w3.org/1999/xlink" x="0px" y="0px"
	 width="126px" height="126px" viewBox="0 0 126 126" enable-background="new 0 0 126 126" xml:space="preserve">
<path d="M22.22,107.261c-11.656,0-15.81-16.2-15.81-31.36c0-13.261,3.063-27.466,8.192-37.999
	c4.259-8.741,11.899-19.162,24.123-19.162h0.116l0.104,0.051c0.097,0.048,9.839,4.77,22.772,6.408l7.734-0.015
	c12.356-1.658,20.306-6.192,20.385-6.237l0.116-0.067h0.134c18.278,0,29.502,34.444,29.502,59.139c0,8.282-1.19,15.304-3.442,20.306
	c-2.537,5.635-6.425,8.613-11.242,8.613c-7.532,0-11.262-7.3-15.21-15.028c-4.724-9.245-10.077-19.725-23.038-19.725
	c-15.764,0-20.902,9.826-25.872,19.329C36.55,99.611,32.55,107.261,22.22,107.261z M38.613,19.739
	C26.972,19.805,19.622,29.882,15.502,38.34C10.436,48.742,7.41,62.783,7.41,75.9c0,18.443,5.813,30.36,14.81,30.36
	c9.725,0,13.411-7.049,17.68-15.212c4.869-9.312,10.389-19.865,26.758-19.865c13.573,0,19.075,10.769,23.929,20.271
	c3.971,7.771,7.399,14.482,14.319,14.482c4.457,0,7.933-2.7,10.33-8.024c2.194-4.874,3.354-11.753,3.354-19.895
	c0-24.218-10.791-57.974-28.373-58.138c-1.058,0.581-8.919,4.723-20.697,6.299l-7.863,0.016
	C49.224,24.623,39.722,20.264,38.613,19.739z M46.282,66.122c-5.854,0-10.617-4.763-10.617-10.617
	c0-5.854,4.763-10.616,10.617-10.616s10.617,4.763,10.617,10.616C56.899,61.359,52.137,66.122,46.282,66.122z M43.799,64.741
	c1.635,0.443,3.331,0.444,4.968-0.001c-0.447-0.772-0.682-1.64-0.682-2.543c0-2.814,2.29-5.104,5.104-5.104
	c0.849,0,1.67,0.209,2.409,0.608c0.169-0.718,0.254-1.454,0.254-2.197c0-1.163-0.209-2.298-0.621-3.382
	c-0.644,0.283-1.34,0.431-2.042,0.431c-2.814,0-5.104-2.29-5.104-5.104c0-0.438,0.058-0.874,0.171-1.3
	c-1.326-0.284-2.618-0.284-3.946,0c0.114,0.427,0.171,0.862,0.171,1.3c0,2.814-2.289,5.104-5.104,5.104
	c-0.702,0-1.398-0.147-2.042-0.431c-0.413,1.085-0.622,2.22-0.622,3.382c0,0.744,0.085,1.48,0.254,2.198
	c0.739-0.4,1.561-0.609,2.41-0.609c2.814,0,5.104,2.289,5.104,5.104C44.48,63.101,44.247,63.968,43.799,64.741z M37.216,58.715
	c0.935,2.631,2.983,4.738,5.576,5.752c0.451-0.676,0.688-1.455,0.688-2.27c0-2.263-1.841-4.104-4.104-4.104
	C38.608,58.094,37.867,58.308,37.216,58.715z M53.189,58.094c-2.264,0-4.104,1.841-4.104,4.104c0,0.814,0.237,1.593,0.688,2.27
	c2.593-1.014,4.642-3.122,5.576-5.753C54.698,58.308,53.957,58.094,53.189,58.094z M49.236,46.353
	c-0.101,0.359-0.151,0.727-0.151,1.097c0,2.264,1.841,4.104,4.104,4.104c0.58,0,1.155-0.126,1.685-0.367
	C53.725,48.909,51.696,47.148,49.236,46.353z M37.69,51.187c0.53,0.241,1.106,0.367,1.687,0.367c2.263,0,4.104-1.841,4.104-4.104
	c0-0.368-0.051-0.735-0.151-1.097C40.869,47.147,38.84,48.908,37.69,51.187z M75.777,63.502c-4.009,0-7.271-3.262-7.271-7.271
	c0-4.01,3.262-7.271,7.271-7.271c4.01,0,7.271,3.262,7.271,7.271C83.049,60.24,79.787,63.502,75.777,63.502z M73.394,59.796h4.77
	l-2.23,2.704c3.308-0.081,5.988-2.734,6.112-6.03l-2.604,2.146v-4.77l2.604,2.146c-0.124-3.297-2.806-5.951-6.113-6.031l2.231,2.705
	h-4.77l2.229-2.705c-3.362,0.082-6.077,2.824-6.115,6.197l2.805-2.313v4.77l-2.805-2.313c0.038,3.372,2.752,6.114,6.114,6.196
	L73.394,59.796z M94.474,53.394c-2.061,0-3.737-1.676-3.737-3.736s1.677-3.737,3.737-3.737s3.737,1.677,3.737,3.737
	S96.534,53.394,94.474,53.394z M94.474,46.92c-1.509,0-2.737,1.228-2.737,2.737c0,1.509,1.229,2.736,2.737,2.736
	c1.51,0,2.737-1.228,2.737-2.736C97.211,48.147,95.983,46.92,94.474,46.92z M87.264,46.92c-2.061,0-3.737-1.677-3.737-3.737
	s1.677-3.737,3.737-3.737s3.737,1.677,3.737,3.737S89.324,46.92,87.264,46.92z M87.264,40.445c-1.509,0-2.737,1.228-2.737,2.737
	s1.229,2.737,2.737,2.737c1.51,0,2.737-1.228,2.737-2.737S88.773,40.445,87.264,40.445z M100.948,45.348
	c-2.061,0-3.737-1.677-3.737-3.737s1.677-3.737,3.737-3.737s3.736,1.677,3.736,3.737S103.009,45.348,100.948,45.348z
	 M100.948,38.873c-1.509,0-2.737,1.228-2.737,2.737s1.229,2.737,2.737,2.737s2.736-1.228,2.736-2.737S102.457,38.873,100.948,38.873
	z M33.266,45.028c-4.459,0-8.088-3.628-8.088-8.087s3.629-8.087,8.088-8.087s8.087,3.628,8.087,8.087S37.725,45.028,33.266,45.028z
	 M33.222,29.854c-3.888,0.024-7.044,3.194-7.044,7.087s3.155,7.063,7.043,7.087l-2.499-3.032h5.087l-2.497,3.032
	c3.841-0.024,6.967-3.12,7.04-6.949l-2.921,2.406v-5.088l2.921,2.409c-0.072-3.831-3.199-6.929-7.041-6.952l2.499,3.032h-5.089
	L33.222,29.854z M32.842,41.996l0.424,0.515l0.424-0.515H32.842z M38.431,36.519v0.848l0.514-0.424L38.431,36.519z M32.842,31.887
	h0.848l-0.424-0.514L32.842,31.887z M29.321,39.485l-3.086-2.543l3.086-2.545V39.485z M27.808,36.942l0.514,0.424v-0.848
	L27.808,36.942z M63.436,39.376c-1.453,0-2.825-0.648-3.777-1.782l-0.045,0.102l-0.425-0.676l0.04-0.017l-0.105-0.189
	c-0.423-0.759-0.637-1.563-0.637-2.389c0-1.311,0.508-2.545,1.429-3.477l0.451-0.456l0.332,0.549
	c0.38,0.627,0.864,1.288,1.401,1.909l0.282,0.328l-0.283,0.326c-0.694,0.802-1.264,1.601-1.646,2.31
	c-0.152,0.265-0.275,0.505-0.375,0.723c0.24-0.111,0.478-0.235,0.71-0.369c0.723-0.392,1.543-0.976,2.319-1.65l0.328-0.285
	l0.327,0.284c0.786,0.681,1.606,1.265,2.311,1.646c0.237,0.137,0.477,0.262,0.721,0.375c-0.101-0.217-0.22-0.455-0.367-0.709
	c-0.394-0.729-0.962-1.527-1.653-2.322l-0.285-0.327l0.284-0.328c0.537-0.619,1.009-1.263,1.404-1.91l0.333-0.548l0.45,0.457
	c0.922,0.935,1.429,2.169,1.429,3.476c0,0.823-0.215,1.627-0.639,2.389l-0.106,0.189l0.038,0.017l-0.147,0.182l-0.271,0.487
	l-0.044-0.101C66.269,38.726,64.894,39.376,63.436,39.376z M60.839,37.378c1.443,1.285,3.763,1.276,5.194,0.001
	c-0.152-0.078-0.303-0.16-0.449-0.245c-0.665-0.359-1.405-0.87-2.147-1.484c-0.736,0.609-1.478,1.121-2.161,1.491
	C61.134,37.223,60.987,37.302,60.839,37.378z M65.806,33.276c0.596,0.719,1.095,1.438,1.458,2.1
	c0.083-0.313,0.125-0.631,0.125-0.951c0-0.828-0.256-1.621-0.73-2.286C66.397,32.523,66.112,32.903,65.806,33.276z M60.215,32.14
	c-0.473,0.663-0.729,1.455-0.729,2.285c0,0.32,0.041,0.637,0.123,0.948c0.355-0.649,0.856-1.37,1.457-2.097
	C60.758,32.9,60.473,32.52,60.215,32.14z M73.52,38.926c-1.912,0-3.468-1.556-3.468-3.468s1.556-3.468,3.468-3.468
	s3.468,1.556,3.468,3.468S75.432,38.926,73.52,38.926z M73.52,32.99c-1.36,0-2.468,1.107-2.468,2.468s1.107,2.468,2.468,2.468
	c1.361,0,2.468-1.107,2.468-2.468S74.881,32.99,73.52,32.99z M54.13,38.926c-1.912,0-3.468-1.556-3.468-3.468
	s1.556-3.468,3.468-3.468s3.468,1.556,3.468,3.468S56.042,38.926,54.13,38.926z M54.13,32.99c-1.36,0-2.468,1.107-2.468,2.468
	s1.107,2.468,2.468,2.468c1.361,0,2.468-1.107,2.468-2.468S55.491,32.99,54.13,32.99z M93.737,38.873
	c-2.06,0-3.736-1.677-3.736-3.737s1.677-3.736,3.736-3.736c2.061,0,3.737,1.676,3.737,3.736S95.798,38.873,93.737,38.873z
	 M93.737,32.399c-1.509,0-2.736,1.228-2.736,2.736c0,1.51,1.228,2.737,2.736,2.737c1.51,0,2.737-1.228,2.737-2.737
	C96.475,33.627,95.247,32.399,93.737,32.399z M63.436,32.225l-0.326-0.281c-0.541-0.467-1.084-0.878-1.612-1.222l-0.805-0.522
	l0.89-0.36c0.6-0.242,1.224-0.365,1.854-0.365h0.008c0.625,0,1.246,0.122,1.845,0.363l0.892,0.358l-0.805,0.524
	c-0.526,0.343-1.068,0.754-1.612,1.224L63.436,32.225z M62.927,30.508c0.169,0.129,0.339,0.263,0.509,0.402
	c0.17-0.14,0.34-0.274,0.51-0.403c-0.167-0.022-0.335-0.033-0.502-0.033v-0.5l-0.007,0.5C63.266,30.474,63.096,30.485,62.927,30.508
	z"/>
</svg>
