<?xml version="1.0" encoding="iso-8859-1"?>
<!-- Generator: Adobe Illustrator 18.0.0, SVG Export Plug-In . SVG Version: 6.00 Build 0)  -->
<!DOCTYPE svg PUBLIC "-//W3C//DTD SVG 1.1//EN" "http://www.w3.org/Graphics/SVG/1.1/DTD/svg11.dtd">
<svg version="1.1" id="Capa_1" xmlns="http://www.w3.org/2000/svg" xmlns:xlink="http://www.w3.org/1999/xlink" x="0px" y="0px"
	 viewBox="0 0 498.5 498.5" style="enable-background:new 0 0 498.5 498.5;" xml:space="preserve">
<g>
	<path d="M484.25,138.576h-470c-7.857,0-14.25,6.393-14.25,14.25v143.478c0,7.857,6.393,14.25,14.25,14.25h1.25v35.12
		c0,7.858,6.393,14.25,14.25,14.25h439c7.857,0,14.25-6.392,14.25-14.25v-35.12h1.25c7.857,0,14.25-6.393,14.25-14.25V152.826
		C498.5,144.969,492.107,138.576,484.25,138.576z M474.5,345.674c0,3.17-2.58,5.75-5.75,5.75H447v-29.215
		c0-2.347-1.903-4.25-4.25-4.25s-4.25,1.903-4.25,4.25v29.215h-34.278v-29.215c0-2.347-1.903-4.25-4.25-4.25
		c-2.347,0-4.25,1.903-4.25,4.25v29.215h-34.278v-29.215c0-2.347-1.903-4.25-4.25-4.25s-4.25,1.903-4.25,4.25v29.215h-34.278
		v-29.215c0-2.347-1.903-4.25-4.25-4.25s-4.25,1.903-4.25,4.25v29.215h-34.278v-29.215c0-2.347-1.903-4.25-4.25-4.25
		c-2.347,0-4.25,1.903-4.25,4.25v29.215h-34.277v-29.215c0-2.347-1.903-4.25-4.25-4.25c-2.347,0-4.25,1.903-4.25,4.25v29.215
		h-34.278v-29.215c0-2.347-1.903-4.25-4.25-4.25s-4.25,1.903-4.25,4.25v29.215h-34.278v-29.215c0-2.347-1.903-4.25-4.25-4.25
		c-2.347,0-4.25,1.903-4.25,4.25v29.215h-34.278v-29.215c0-2.347-1.903-4.25-4.25-4.25c-2.347,0-4.25,1.903-4.25,4.25v29.215H62
		v-29.215c0-2.347-1.903-4.25-4.25-4.25s-4.25,1.903-4.25,4.25v29.215H29.75c-3.17,0-5.75-2.58-5.75-5.75v-35.12h450.5V345.674z
		 M490,296.304c0,3.17-2.58,5.75-5.75,5.75h-470c-3.17,0-5.75-2.58-5.75-5.75V152.826c0-3.17,2.58-5.75,5.75-5.75h470
		c3.17,0,5.75,2.58,5.75,5.75V296.304z"/>
	<path d="M110.572,170.093H55.25c-7.857,0-14.25,6.393-14.25,14.25v78c0,7.857,6.393,14.25,14.25,14.25h55.322
		c7.857,0,14.25-6.393,14.25-14.25v-78C124.822,176.485,118.43,170.093,110.572,170.093z M116.322,262.343
		c0,3.171-2.58,5.75-5.75,5.75H55.25c-3.17,0-5.75-2.579-5.75-5.75v-78c0-3.17,2.58-5.75,5.75-5.75h8.402v40.855
		c0,2.347,1.903,4.25,4.25,4.25c2.347,0,4.25-1.903,4.25-4.25v-40.855h38.42c3.17,0,5.75,2.58,5.75,5.75V262.343z"/>
	<path d="M221.465,170.093h-55.322c-7.857,0-14.25,6.393-14.25,14.25v78c0,7.857,6.393,14.25,14.25,14.25h55.322
		c7.857,0,14.25-6.393,14.25-14.25v-78C235.715,176.485,229.322,170.093,221.465,170.093z M227.215,262.343
		c0,3.171-2.579,5.75-5.75,5.75h-2.32v-39.646c0-2.347-1.903-4.25-4.25-4.25c-2.347,0-4.25,1.903-4.25,4.25v39.646h-44.502
		c-3.17,0-5.75-2.579-5.75-5.75v-78c0-3.17,2.58-5.75,5.75-5.75h55.322c3.171,0,5.75,2.58,5.75,5.75V262.343z"/>
	<path d="M332.357,170.093h-55.322c-7.857,0-14.25,6.393-14.25,14.25v78c0,7.857,6.393,14.25,14.25,14.25h55.322
		c7.857,0,14.25-6.393,14.25-14.25v-78C346.607,176.485,340.215,170.093,332.357,170.093z M338.107,262.343
		c0,3.171-2.58,5.75-5.75,5.75h-55.322c-3.171,0-5.75-2.579-5.75-5.75v-78c0-3.17,2.579-5.75,5.75-5.75h7.106v64.854
		c0,2.348,1.903,4.25,4.25,4.25s4.25-1.902,4.25-4.25v-64.854h39.716c3.17,0,5.75,2.58,5.75,5.75V262.343z"/>
	<path d="M443.25,170.093h-55.322c-7.857,0-14.25,6.393-14.25,14.25v78c0,7.857,6.393,14.25,14.25,14.25h55.322
		c7.857,0,14.25-6.393,14.25-14.25v-78C457.5,176.485,451.107,170.093,443.25,170.093z M449,262.343c0,3.171-2.58,5.75-5.75,5.75
		h-55.322c-3.17,0-5.75-2.579-5.75-5.75v-78c0-3.17,2.58-5.75,5.75-5.75h35.707v46.854c0,2.348,1.903,4.25,4.25,4.25
		c2.347,0,4.25-1.902,4.25-4.25v-46.854h11.115c3.17,0,5.75,2.58,5.75,5.75V262.343z"/>
</g>
<g>
</g>
<g>
</g>
<g>
</g>
<g>
</g>
<g>
</g>
<g>
</g>
<g>
</g>
<g>
</g>
<g>
</g>
<g>
</g>
<g>
</g>
<g>
</g>
<g>
</g>
<g>
</g>
<g>
</g>
</svg>
